<svg width="1237" height="928" viewBox="0 0 1237 928" fill="none" xmlns="http://www.w3.org/2000/svg">
<rect width="1237" height="928" fill="#E7ECEF"/>
<g opacity="0.9" filter="url(#filter0_d_1231_197)">
<rect x="295" y="57" width="923" height="418" rx="8" fill="white"/>
</g>
<g filter="url(#filter1_d_1231_197)">
<g filter="url(#filter2_d_1231_197)">
<path d="M16 65C16 60.5817 19.5817 57 24 57H278C282.418 57 286 60.5817 286 65V900C286 904.418 282.418 908 278 908H24C19.5817 908 16 904.418 16 900V65Z" fill="white"/>
</g>
</g>
<rect x="58.0508" y="852.327" width="185.902" height="39.7664" rx="8" stroke="#333333" stroke-width="2"/>
<path d="M115.429 870.57H113.304C113.244 870.222 113.132 869.913 112.969 869.644C112.806 869.371 112.604 869.14 112.361 868.951C112.119 868.761 111.842 868.619 111.532 868.525C111.225 868.426 110.893 868.377 110.537 868.377C109.905 868.377 109.344 868.536 108.855 868.854C108.367 869.169 107.984 869.631 107.708 870.241C107.431 870.847 107.293 871.587 107.293 872.462C107.293 873.352 107.431 874.102 107.708 874.712C107.988 875.318 108.371 875.776 108.855 876.087C109.344 876.394 109.903 876.547 110.532 876.547C110.88 876.547 111.206 876.502 111.509 876.411C111.816 876.316 112.09 876.178 112.333 875.996C112.579 875.814 112.785 875.591 112.952 875.326C113.122 875.061 113.24 874.758 113.304 874.417L115.429 874.428C115.35 874.981 115.177 875.5 114.912 875.985C114.651 876.47 114.308 876.898 113.884 877.269C113.46 877.636 112.963 877.924 112.395 878.133C111.827 878.337 111.196 878.439 110.503 878.439C109.48 878.439 108.568 878.203 107.765 877.729C106.962 877.256 106.329 876.572 105.867 875.678C105.405 874.784 105.174 873.712 105.174 872.462C105.174 871.208 105.407 870.136 105.872 869.246C106.338 868.352 106.973 867.669 107.776 867.195C108.579 866.722 109.488 866.485 110.503 866.485C111.151 866.485 111.753 866.576 112.31 866.758C112.867 866.939 113.363 867.206 113.799 867.559C114.234 867.907 114.592 868.335 114.872 868.843C115.157 869.347 115.342 869.922 115.429 870.57ZM119.326 866.644V878.28H117.269V866.644H119.326ZM125.304 878.451C124.429 878.451 123.674 878.269 123.037 877.905C122.405 877.538 121.918 877.019 121.577 876.348C121.236 875.674 121.066 874.881 121.066 873.968C121.066 873.07 121.236 872.282 121.577 871.604C121.922 870.922 122.403 870.392 123.02 870.013C123.638 869.631 124.363 869.439 125.196 869.439C125.734 869.439 126.242 869.526 126.719 869.701C127.2 869.871 127.624 870.136 127.992 870.496C128.363 870.856 128.655 871.314 128.867 871.871C129.079 872.424 129.185 873.083 129.185 873.848V874.479H122.032V873.093H127.213C127.21 872.699 127.124 872.348 126.958 872.042C126.791 871.731 126.558 871.487 126.259 871.309C125.963 871.131 125.619 871.042 125.225 871.042C124.804 871.042 124.435 871.144 124.117 871.348C123.799 871.549 123.551 871.814 123.372 872.144C123.198 872.47 123.109 872.828 123.105 873.218V874.428C123.105 874.936 123.198 875.371 123.384 875.735C123.569 876.095 123.829 876.371 124.162 876.564C124.496 876.754 124.886 876.848 125.333 876.848C125.632 876.848 125.903 876.807 126.145 876.723C126.388 876.636 126.598 876.509 126.776 876.343C126.954 876.176 127.088 875.97 127.179 875.723L129.1 875.939C128.979 876.447 128.747 876.89 128.407 877.269C128.069 877.644 127.638 877.936 127.111 878.144C126.585 878.348 125.982 878.451 125.304 878.451ZM133.436 878.456C132.883 878.456 132.385 878.358 131.942 878.161C131.503 877.96 131.154 877.665 130.897 877.275C130.643 876.884 130.516 876.403 130.516 875.831C130.516 875.339 130.607 874.932 130.789 874.61C130.971 874.288 131.219 874.03 131.533 873.837C131.847 873.644 132.202 873.498 132.596 873.4C132.993 873.297 133.404 873.223 133.828 873.178C134.34 873.125 134.755 873.078 135.073 873.036C135.391 872.991 135.622 872.922 135.766 872.831C135.914 872.737 135.988 872.591 135.988 872.394V872.36C135.988 871.932 135.861 871.6 135.607 871.366C135.353 871.131 134.988 871.013 134.51 871.013C134.006 871.013 133.607 871.123 133.311 871.343C133.02 871.562 132.823 871.822 132.721 872.121L130.8 871.848C130.952 871.318 131.202 870.875 131.55 870.519C131.899 870.159 132.325 869.89 132.828 869.712C133.332 869.53 133.889 869.439 134.499 869.439C134.919 869.439 135.338 869.489 135.755 869.587C136.171 869.686 136.552 869.848 136.897 870.076C137.241 870.299 137.518 870.604 137.726 870.991C137.938 871.377 138.044 871.86 138.044 872.439V878.28H136.067V877.081H135.999C135.874 877.324 135.698 877.551 135.471 877.763C135.247 877.972 134.965 878.14 134.624 878.269C134.287 878.394 133.891 878.456 133.436 878.456ZM133.971 876.945C134.383 876.945 134.741 876.864 135.044 876.701C135.347 876.534 135.58 876.314 135.743 876.042C135.91 875.769 135.993 875.472 135.993 875.15V874.121C135.929 874.174 135.819 874.223 135.664 874.269C135.512 874.314 135.342 874.354 135.152 874.388C134.963 874.422 134.775 874.453 134.59 874.479C134.404 874.506 134.243 874.528 134.107 874.547C133.8 874.589 133.525 874.657 133.283 874.752C133.041 874.847 132.849 874.979 132.709 875.15C132.569 875.316 132.499 875.532 132.499 875.797C132.499 876.176 132.637 876.462 132.914 876.655C133.19 876.848 133.542 876.945 133.971 876.945ZM140.113 878.28V869.553H142.107V871.008H142.198C142.357 870.504 142.63 870.116 143.016 869.843C143.406 869.566 143.851 869.428 144.351 869.428C144.465 869.428 144.592 869.434 144.732 869.445C144.876 869.453 144.995 869.466 145.09 869.485V871.377C145.003 871.347 144.864 871.32 144.675 871.297C144.489 871.271 144.31 871.258 144.135 871.258C143.76 871.258 143.423 871.339 143.124 871.502C142.828 871.661 142.596 871.883 142.425 872.167C142.255 872.451 142.169 872.778 142.169 873.15V878.28H140.113ZM150.516 878.28V866.644H157.971V868.411H152.624V871.57H157.459V873.337H152.624V878.28H150.516ZM159.8 878.28V869.553H161.857V878.28H159.8ZM160.834 868.314C160.508 868.314 160.228 868.206 159.993 867.991C159.758 867.771 159.641 867.508 159.641 867.201C159.641 866.89 159.758 866.627 159.993 866.411C160.228 866.191 160.508 866.081 160.834 866.081C161.164 866.081 161.444 866.191 161.675 866.411C161.91 866.627 162.027 866.89 162.027 867.201C162.027 867.508 161.91 867.771 161.675 867.991C161.444 868.206 161.164 868.314 160.834 868.314ZM166.029 866.644V878.28H163.972V866.644H166.029ZM172.502 869.553V871.144H167.485V869.553H172.502ZM168.723 867.462H170.78V875.655C170.78 875.932 170.822 876.144 170.905 876.292C170.992 876.436 171.106 876.534 171.246 876.587C171.386 876.64 171.542 876.667 171.712 876.667C171.841 876.667 171.958 876.657 172.064 876.638C172.174 876.619 172.257 876.602 172.314 876.587L172.661 878.195C172.551 878.233 172.394 878.275 172.189 878.32C171.988 878.366 171.742 878.392 171.451 878.4C170.935 878.415 170.471 878.337 170.059 878.167C169.646 877.992 169.318 877.723 169.076 877.36C168.837 876.996 168.72 876.542 168.723 875.996V867.462ZM177.992 878.451C177.117 878.451 176.361 878.269 175.725 877.905C175.092 877.538 174.605 877.019 174.265 876.348C173.924 875.674 173.753 874.881 173.753 873.968C173.753 873.07 173.924 872.282 174.265 871.604C174.609 870.922 175.09 870.392 175.708 870.013C176.325 869.631 177.051 869.439 177.884 869.439C178.422 869.439 178.929 869.526 179.407 869.701C179.888 869.871 180.312 870.136 180.679 870.496C181.051 870.856 181.342 871.314 181.554 871.871C181.766 872.424 181.872 873.083 181.872 873.848V874.479H174.719V873.093H179.901C179.897 872.699 179.812 872.348 179.645 872.042C179.479 871.731 179.246 871.487 178.946 871.309C178.651 871.131 178.306 871.042 177.912 871.042C177.492 871.042 177.122 871.144 176.804 871.348C176.486 871.549 176.238 871.814 176.06 872.144C175.886 872.47 175.797 872.828 175.793 873.218V874.428C175.793 874.936 175.886 875.371 176.071 875.735C176.257 876.095 176.516 876.371 176.85 876.564C177.183 876.754 177.573 876.848 178.02 876.848C178.319 876.848 178.59 876.807 178.833 876.723C179.075 876.636 179.285 876.509 179.463 876.343C179.641 876.176 179.776 875.97 179.867 875.723L181.787 875.939C181.666 876.447 181.435 876.89 181.094 877.269C180.757 877.644 180.325 877.936 179.799 878.144C179.272 878.348 178.67 878.451 177.992 878.451ZM183.613 878.28V869.553H185.607V871.008H185.698C185.857 870.504 186.13 870.116 186.516 869.843C186.906 869.566 187.351 869.428 187.851 869.428C187.965 869.428 188.092 869.434 188.232 869.445C188.376 869.453 188.495 869.466 188.59 869.485V871.377C188.503 871.347 188.364 871.32 188.175 871.297C187.989 871.271 187.81 871.258 187.635 871.258C187.26 871.258 186.923 871.339 186.624 871.502C186.328 871.661 186.096 871.883 185.925 872.167C185.755 872.451 185.669 872.778 185.669 873.15V878.28H183.613ZM196.854 871.86L194.979 872.064C194.926 871.875 194.833 871.697 194.701 871.53C194.572 871.364 194.398 871.229 194.178 871.127C193.958 871.025 193.689 870.973 193.371 870.973C192.943 870.973 192.583 871.066 192.292 871.252C192.004 871.437 191.862 871.678 191.865 871.973C191.862 872.227 191.954 872.434 192.144 872.593C192.337 872.752 192.655 872.883 193.098 872.985L194.587 873.303C195.413 873.481 196.026 873.763 196.428 874.15C196.833 874.536 197.038 875.042 197.042 875.667C197.038 876.216 196.877 876.701 196.559 877.121C196.244 877.538 195.807 877.864 195.246 878.098C194.685 878.333 194.042 878.451 193.314 878.451C192.246 878.451 191.386 878.227 190.735 877.78C190.083 877.33 189.695 876.703 189.57 875.9L191.576 875.706C191.667 876.1 191.86 876.398 192.155 876.598C192.451 876.799 192.835 876.9 193.309 876.9C193.797 876.9 194.189 876.799 194.485 876.598C194.784 876.398 194.934 876.15 194.934 875.854C194.934 875.604 194.837 875.398 194.644 875.235C194.454 875.072 194.159 874.947 193.757 874.86L192.269 874.547C191.432 874.373 190.812 874.08 190.411 873.667C190.009 873.25 189.81 872.723 189.814 872.087C189.81 871.549 189.956 871.083 190.252 870.689C190.551 870.292 190.966 869.985 191.496 869.769C192.03 869.549 192.646 869.439 193.343 869.439C194.365 869.439 195.17 869.657 195.757 870.093C196.348 870.528 196.714 871.117 196.854 871.86Z" fill="#333333"/>
<line x1="33.5" y1="96.2661" x2="266.5" y2="96.2661" stroke="#FF7336" stroke-linecap="round"/>
<path d="M33.4773 77.5047V76.1795H40.4403V77.5047H37.7429V84.9067H36.1747V77.5047H33.4773ZM41.7145 84.9067V78.3613H43.2571V84.9067H41.7145ZM42.4901 77.4323C42.2457 77.4323 42.0355 77.3513 41.8594 77.1894C41.6832 77.0246 41.5952 76.8272 41.5952 76.5971C41.5952 76.3641 41.6832 76.1667 41.8594 76.0047C42.0355 75.84 42.2457 75.7576 42.4901 75.7576C42.7372 75.7576 42.9474 75.84 43.1207 76.0047C43.2969 76.1667 43.3849 76.3641 43.3849 76.5971C43.3849 76.8272 43.2969 77.0246 43.1207 77.1894C42.9474 77.3513 42.7372 77.4323 42.4901 77.4323ZM44.8434 84.9067V78.3613H46.3178V79.4735H46.3945C46.5309 79.0985 46.7567 78.8059 47.0721 78.5957C47.3874 78.3826 47.7638 78.2761 48.2013 78.2761C48.6445 78.2761 49.0181 78.384 49.3221 78.5999C49.6289 78.813 49.8448 79.1042 49.9698 79.4735H50.038C50.1829 79.1099 50.4272 78.8201 50.771 78.6042C51.1175 78.3854 51.5281 78.2761 52.0025 78.2761C52.6048 78.2761 53.0962 78.4664 53.4769 78.8471C53.8576 79.2278 54.0479 79.7832 54.0479 80.5133V84.9067H52.5011V80.7519C52.5011 80.3457 52.3931 80.0488 52.1772 79.8613C51.9613 79.6709 51.6971 79.5758 51.3846 79.5758C51.0124 79.5758 50.7212 79.6922 50.511 79.9252C50.3036 80.1553 50.1999 80.455 50.1999 80.8244V84.9067H48.6871V80.688C48.6871 80.3499 48.5849 80.08 48.3803 79.8783C48.1786 79.6766 47.9144 79.5758 47.5877 79.5758C47.3661 79.5758 47.1644 79.6326 46.9826 79.7462C46.8008 79.857 46.6559 80.0147 46.5479 80.2192C46.44 80.4209 46.386 80.6567 46.386 80.9266V84.9067H44.8434ZM58.5107 85.0346C57.8544 85.0346 57.2876 84.8982 56.8104 84.6255C56.3359 84.3499 55.9709 83.9607 55.7152 83.4579C55.4595 82.9522 55.3317 82.357 55.3317 81.6724C55.3317 80.9991 55.4595 80.4082 55.7152 79.8996C55.9737 79.3883 56.3345 78.9905 56.7976 78.7065C57.2607 78.4195 57.8047 78.2761 58.4297 78.2761C58.8331 78.2761 59.2138 78.3414 59.5717 78.4721C59.9325 78.5999 60.2507 78.7988 60.5263 79.0687C60.8047 79.3386 61.0234 79.6823 61.1825 80.0999C61.3416 80.5147 61.4212 81.009 61.4212 81.5829V82.0559H56.0561V81.0161H59.9425C59.9396 80.7207 59.8757 80.4579 59.7507 80.2278C59.6257 79.9948 59.451 79.8116 59.2266 79.678C59.005 79.5445 58.7464 79.4778 58.451 79.4778C58.1357 79.4778 57.8587 79.5545 57.62 79.7079C57.3814 79.8584 57.1953 80.0573 57.0618 80.3045C56.9311 80.5488 56.8643 80.8172 56.8615 81.1099V82.0175C56.8615 82.3982 56.9311 82.7249 57.0703 82.9976C57.2095 83.2675 57.4041 83.4749 57.6541 83.6198C57.9041 83.7619 58.1967 83.8329 58.532 83.8329C58.7564 83.8329 58.9595 83.8016 59.1413 83.7391C59.3232 83.6738 59.4808 83.5786 59.6143 83.4536C59.7479 83.3286 59.8487 83.1738 59.9169 82.9891L61.3572 83.1511C61.2663 83.5317 61.093 83.8641 60.8374 84.1482C60.5845 84.4295 60.2607 84.6482 59.8658 84.8045C59.4709 84.9579 59.0192 85.0346 58.5107 85.0346ZM65.771 84.9067V76.1795H69.0437C69.7141 76.1795 70.2766 76.3045 70.7312 76.5545C71.1886 76.8045 71.5337 77.1482 71.7667 77.5857C72.0025 78.0204 72.1204 78.5147 72.1204 79.0687C72.1204 79.6283 72.0025 80.1255 71.7667 80.5601C71.5309 80.9948 71.1829 81.3371 70.7227 81.5871C70.2624 81.8343 69.6957 81.9579 69.0224 81.9579H66.8533V80.6582H68.8093C69.2013 80.6582 69.5224 80.59 69.7724 80.4536C70.0224 80.3172 70.207 80.1297 70.3263 79.8911C70.4485 79.6525 70.5096 79.3783 70.5096 79.0687C70.5096 78.759 70.4485 78.4863 70.3263 78.2505C70.207 78.0147 70.021 77.8315 69.7681 77.7008C69.5181 77.5672 69.1957 77.5005 68.8008 77.5005H67.3519V84.9067H65.771ZM76.2294 85.0346C75.5732 85.0346 75.0064 84.8982 74.5291 84.6255C74.0547 84.3499 73.6896 83.9607 73.4339 83.4579C73.1783 82.9522 73.0504 82.357 73.0504 81.6724C73.0504 80.9991 73.1783 80.4082 73.4339 79.8996C73.6925 79.3883 74.0533 78.9905 74.5163 78.7065C74.9794 78.4195 75.5234 78.2761 76.1484 78.2761C76.5518 78.2761 76.9325 78.3414 77.2905 78.4721C77.6513 78.5999 77.9695 78.7988 78.245 79.0687C78.5234 79.3386 78.7422 79.6823 78.9013 80.0999C79.0604 80.5147 79.1399 81.009 79.1399 81.5829V82.0559H73.7749V81.0161H77.6612C77.6584 80.7207 77.5945 80.4579 77.4695 80.2278C77.3445 79.9948 77.1697 79.8116 76.9453 79.678C76.7237 79.5445 76.4652 79.4778 76.1697 79.4778C75.8544 79.4778 75.5774 79.5545 75.3388 79.7079C75.1001 79.8584 74.9141 80.0573 74.7805 80.3045C74.6499 80.5488 74.5831 80.8172 74.5803 81.1099V82.0175C74.5803 82.3982 74.6499 82.7249 74.7891 82.9976C74.9283 83.2675 75.1229 83.4749 75.3729 83.6198C75.6229 83.7619 75.9155 83.8329 76.2507 83.8329C76.4751 83.8329 76.6783 83.8016 76.8601 83.7391C77.0419 83.6738 77.1996 83.5786 77.3331 83.4536C77.4666 83.3286 77.5675 83.1738 77.6357 82.9891L79.076 83.1511C78.9851 83.5317 78.8118 83.8641 78.5561 84.1482C78.3033 84.4295 77.9794 84.6482 77.5845 84.8045C77.1896 84.9579 76.7379 85.0346 76.2294 85.0346ZM80.445 84.9067V78.3613H81.9407V79.4522H82.0089C82.1282 79.0744 82.3327 78.7832 82.6225 78.5786C82.9151 78.3712 83.2489 78.2675 83.6239 78.2675C83.7092 78.2675 83.8043 78.2718 83.9094 78.2803C84.0174 78.286 84.1069 78.2959 84.1779 78.3101V79.7292C84.1126 79.7065 84.0089 79.6866 83.8668 79.6695C83.7276 79.6496 83.5927 79.6397 83.462 79.6397C83.1808 79.6397 82.9279 79.7008 82.7035 79.8229C82.4819 79.9422 82.3072 80.1084 82.1793 80.3215C82.0515 80.5346 81.9876 80.7803 81.9876 81.0587V84.9067H80.445ZM85.2028 84.9067V78.3613H86.7454V84.9067H85.2028ZM85.9783 77.4323C85.734 77.4323 85.5238 77.3513 85.3477 77.1894C85.1715 77.0246 85.0835 76.8272 85.0835 76.5971C85.0835 76.3641 85.1715 76.1667 85.3477 76.0047C85.5238 75.84 85.734 75.7576 85.9783 75.7576C86.2255 75.7576 86.4357 75.84 86.609 76.0047C86.7852 76.1667 86.8732 76.3641 86.8732 76.5971C86.8732 76.8272 86.7852 77.0246 86.609 77.1894C86.4357 77.3513 86.2255 77.4323 85.9783 77.4323ZM91.1868 85.0346C90.5476 85.0346 89.9936 84.894 89.5249 84.6127C89.0561 84.3315 88.6925 83.938 88.4339 83.4323C88.1783 82.9266 88.0504 82.3357 88.0504 81.6596C88.0504 80.9834 88.1783 80.3911 88.4339 79.8826C88.6925 79.3741 89.0561 78.9792 89.5249 78.6979C89.9936 78.4167 90.5476 78.2761 91.1868 78.2761C91.826 78.2761 92.38 78.4167 92.8487 78.6979C93.3175 78.9792 93.6797 79.3741 93.9354 79.8826C94.1939 80.3911 94.3232 80.9834 94.3232 81.6596C94.3232 82.3357 94.1939 82.9266 93.9354 83.4323C93.6797 83.938 93.3175 84.3315 92.8487 84.6127C92.38 84.894 91.826 85.0346 91.1868 85.0346ZM91.1953 83.7988C91.5419 83.7988 91.8317 83.7036 92.0646 83.5133C92.2976 83.3201 92.4709 83.0616 92.5845 82.7377C92.701 82.4138 92.7592 82.053 92.7592 81.6553C92.7592 81.2547 92.701 80.8925 92.5845 80.5687C92.4709 80.242 92.2976 79.982 92.0646 79.7888C91.8317 79.5957 91.5419 79.4991 91.1953 79.4991C90.8402 79.4991 90.5447 79.5957 90.3089 79.7888C90.076 79.982 89.9013 80.242 89.7848 80.5687C89.6712 80.8925 89.6143 81.2547 89.6143 81.6553C89.6143 82.053 89.6712 82.4138 89.7848 82.7377C89.9013 83.0616 90.076 83.3201 90.3089 83.5133C90.5447 83.7036 90.8402 83.7988 91.1953 83.7988ZM98.0614 85.0218C97.5472 85.0218 97.087 84.8897 96.6808 84.6255C96.2745 84.3613 95.9535 83.9778 95.7177 83.4749C95.4819 82.9721 95.364 82.3613 95.364 81.6425C95.364 80.9153 95.4833 80.3016 95.7219 79.8016C95.9634 79.2988 96.2887 78.9195 96.6978 78.6638C97.1069 78.4053 97.5629 78.2761 98.0657 78.2761C98.4492 78.2761 98.7646 78.3414 99.0117 78.4721C99.2589 78.5999 99.4549 78.7547 99.5998 78.9366C99.7447 79.1155 99.8569 79.2846 99.9364 79.4437H100V76.1795H101.547V84.9067H100.03V83.8755H99.9364C99.8569 84.0346 99.7418 84.2036 99.5913 84.3826C99.4407 84.5587 99.2418 84.7093 98.9947 84.8343C98.7475 84.9593 98.4364 85.0218 98.0614 85.0218ZM98.4918 83.7562C98.8185 83.7562 99.0969 83.6681 99.3271 83.492C99.5572 83.313 99.7319 83.0644 99.8512 82.7462C99.9705 82.428 100.03 82.0573 100.03 81.634C100.03 81.2107 99.9705 80.8428 99.8512 80.5303C99.7347 80.2178 99.5614 79.9749 99.3313 79.8016C99.104 79.6283 98.8242 79.5417 98.4918 79.5417C98.1481 79.5417 97.8612 79.6312 97.631 79.8101C97.4009 79.9891 97.2276 80.2363 97.1112 80.5516C96.9947 80.867 96.9364 81.2278 96.9364 81.634C96.9364 82.0431 96.9947 82.4082 97.1112 82.7292C97.2305 83.0474 97.4052 83.2988 97.6353 83.4834C97.8683 83.6653 98.1538 83.7562 98.4918 83.7562Z" fill="#333333"/>
<line x1="33.5" y1="174.805" x2="266.5" y2="174.805" stroke="#FF7336" stroke-linecap="round"/>
<path d="M33.8608 163.445V154.718H39.4517V156.043H35.4418V158.413H39.0682V159.738H35.4418V163.445H33.8608ZM40.8239 163.445V156.9H42.3665V163.445H40.8239ZM41.5994 155.971C41.3551 155.971 41.1449 155.89 40.9688 155.728C40.7926 155.563 40.7045 155.366 40.7045 155.136C40.7045 154.903 40.7926 154.705 40.9688 154.543C41.1449 154.379 41.3551 154.296 41.5994 154.296C41.8466 154.296 42.0568 154.379 42.2301 154.543C42.4063 154.705 42.4943 154.903 42.4943 155.136C42.4943 155.366 42.4063 155.563 42.2301 155.728C42.0568 155.89 41.8466 155.971 41.5994 155.971ZM45.4954 154.718V163.445H43.9528V154.718H45.4954ZM50.3501 156.9V158.093H46.5874V156.9H50.3501ZM47.5163 155.332H49.0589V161.477C49.0589 161.684 49.0902 161.843 49.1527 161.954C49.218 162.062 49.3033 162.136 49.4084 162.175C49.5135 162.215 49.63 162.235 49.7578 162.235C49.8544 162.235 49.9425 162.228 50.022 162.214C50.1044 162.2 50.1669 162.187 50.2095 162.175L50.4695 163.381C50.3871 163.41 50.2692 163.441 50.1158 163.475C49.9652 163.509 49.7805 163.529 49.5618 163.535C49.1754 163.546 48.8274 163.488 48.5178 163.36C48.2081 163.229 47.9624 163.028 47.7805 162.755C47.6016 162.482 47.5135 162.141 47.5163 161.732V155.332ZM54.4677 163.573C53.8114 163.573 53.2447 163.437 52.7674 163.164C52.293 162.888 51.9279 162.499 51.6722 161.996C51.4165 161.491 51.2887 160.896 51.2887 160.211C51.2887 159.538 51.4165 158.947 51.6722 158.438C51.9308 157.927 52.2915 157.529 52.7546 157.245C53.2177 156.958 53.7617 156.815 54.3867 156.815C54.7901 156.815 55.1708 156.88 55.5288 157.011C55.8896 157.138 56.2077 157.337 56.4833 157.607C56.7617 157.877 56.9805 158.221 57.1396 158.638C57.2987 159.053 57.3782 159.548 57.3782 160.121V160.594H52.0131V159.555H55.8995C55.8967 159.259 55.8327 158.996 55.7077 158.766C55.5827 158.533 55.408 158.35 55.1836 158.217C54.962 158.083 54.7035 158.016 54.408 158.016C54.0927 158.016 53.8157 158.093 53.5771 158.246C53.3384 158.397 53.1523 158.596 53.0188 158.843C52.8881 159.087 52.8214 159.356 52.8185 159.648V160.556C52.8185 160.937 52.8881 161.263 53.0273 161.536C53.1665 161.806 53.3612 162.013 53.6112 162.158C53.8612 162.3 54.1538 162.371 54.489 162.371C54.7134 162.371 54.9165 162.34 55.0984 162.278C55.2802 162.212 55.4379 162.117 55.5714 161.992C55.7049 161.867 55.8058 161.712 55.8739 161.528L57.3143 161.69C57.2234 162.07 57.0501 162.403 56.7944 162.687C56.5415 162.968 56.2177 163.187 55.8228 163.343C55.4279 163.496 54.9762 163.573 54.4677 163.573ZM58.6832 163.445V156.9H60.179V157.991H60.2472C60.3665 157.613 60.571 157.322 60.8608 157.117C61.1534 156.91 61.4872 156.806 61.8622 156.806C61.9474 156.806 62.0426 156.81 62.1477 156.819C62.2557 156.825 62.3452 156.835 62.4162 156.849V158.268C62.3509 158.245 62.2472 158.225 62.1051 158.208C61.9659 158.188 61.831 158.178 61.7003 158.178C61.419 158.178 61.1662 158.239 60.9418 158.362C60.7202 158.481 60.5455 158.647 60.4176 158.86C60.2898 159.073 60.2259 159.319 60.2259 159.597V163.445H58.6832ZM68.6143 158.63L67.2081 158.783C67.1683 158.641 67.0987 158.508 66.9993 158.383C66.9027 158.258 66.772 158.157 66.6072 158.08C66.4425 158.004 66.2408 157.965 66.0021 157.965C65.6811 157.965 65.4112 158.035 65.1925 158.174C64.9766 158.313 64.87 158.494 64.8729 158.715C64.87 158.906 64.9396 159.06 65.0817 159.18C65.2266 159.299 65.4652 159.397 65.7976 159.474L66.9141 159.712C67.5334 159.846 67.9936 160.058 68.2947 160.347C68.5987 160.637 68.7521 161.016 68.755 161.485C68.7521 161.897 68.6314 162.261 68.3928 162.576C68.157 162.888 67.8288 163.133 67.4084 163.309C66.9879 163.485 66.505 163.573 65.9595 163.573C65.1584 163.573 64.5135 163.406 64.0249 163.07C63.5362 162.732 63.245 162.262 63.1513 161.66L64.6555 161.515C64.7237 161.81 64.8686 162.033 65.0902 162.184C65.3118 162.335 65.6001 162.41 65.9553 162.41C66.3217 162.41 66.6158 162.335 66.8374 162.184C67.0618 162.033 67.174 161.847 67.174 161.626C67.174 161.438 67.1016 161.283 66.9567 161.161C66.8146 161.039 66.593 160.945 66.2919 160.88L65.1754 160.646C64.5476 160.515 64.0831 160.295 63.782 159.985C63.4808 159.673 63.3317 159.278 63.3345 158.8C63.3317 158.397 63.4411 158.048 63.6626 157.752C63.8871 157.454 64.1982 157.224 64.5959 157.062C64.9964 156.897 65.4581 156.815 65.9808 156.815C66.7479 156.815 67.3516 156.978 67.7919 157.305C68.2351 157.631 68.5092 158.073 68.6143 158.63Z" fill="#333333"/>
<g filter="url(#filter3_d_1231_197)">
<rect x="295" y="490" width="923" height="418" rx="8" fill="white"/>
</g>
<rect x="16" y="43" width="1201" height="1" rx="0.5" fill="#E5E5E5"/>
<path d="M24.331 25.2173H22.7372C22.6918 24.956 22.608 24.7244 22.4858 24.5227C22.3636 24.3182 22.2116 24.1449 22.0298 24.0028C21.848 23.8608 21.6406 23.7543 21.4077 23.6832C21.1776 23.6094 20.929 23.5724 20.6619 23.5724C20.1875 23.5724 19.767 23.6918 19.4006 23.9304C19.0341 24.1662 18.7472 24.5128 18.5398 24.9702C18.3324 25.4247 18.2287 25.9801 18.2287 26.6364C18.2287 27.304 18.3324 27.8665 18.5398 28.3239C18.75 28.7784 19.0369 29.1222 19.4006 29.3551C19.767 29.5852 20.1861 29.7003 20.6577 29.7003C20.919 29.7003 21.1634 29.6662 21.3906 29.598C21.6207 29.527 21.8267 29.4233 22.0085 29.2869C22.1932 29.1506 22.348 28.983 22.473 28.7841C22.6009 28.5852 22.6889 28.358 22.7372 28.1023L24.331 28.1108C24.2713 28.5256 24.142 28.9148 23.9432 29.2784C23.7472 29.642 23.4901 29.9631 23.1719 30.2415C22.8537 30.517 22.4815 30.733 22.0554 30.8892C21.6293 31.0426 21.1563 31.1193 20.6364 31.1193C19.8693 31.1193 19.1847 30.9418 18.5824 30.5866C17.9801 30.2315 17.5057 29.7188 17.1591 29.0483C16.8125 28.3778 16.6392 27.5739 16.6392 26.6364C16.6392 25.696 16.8139 24.892 17.1634 24.2244C17.5128 23.554 17.9886 23.0412 18.5909 22.6861C19.1932 22.331 19.875 22.1534 20.6364 22.1534C21.1222 22.1534 21.5739 22.2216 21.9915 22.358C22.4091 22.4943 22.7813 22.6946 23.108 22.9588C23.4347 23.2202 23.7031 23.5412 23.9134 23.9219C24.1264 24.2997 24.2656 24.7315 24.331 25.2173ZM28.5657 31.1278C27.9265 31.1278 27.3725 30.9872 26.9038 30.706C26.435 30.4247 26.0714 30.0312 25.8129 29.5256C25.5572 29.0199 25.4293 28.429 25.4293 27.7528C25.4293 27.0767 25.5572 26.4844 25.8129 25.9759C26.0714 25.4673 26.435 25.0724 26.9038 24.7912C27.3725 24.5099 27.9265 24.3693 28.5657 24.3693C29.2049 24.3693 29.7589 24.5099 30.2276 24.7912C30.6964 25.0724 31.0586 25.4673 31.3143 25.9759C31.5728 26.4844 31.7021 27.0767 31.7021 27.7528C31.7021 28.429 31.5728 29.0199 31.3143 29.5256C31.0586 30.0312 30.6964 30.4247 30.2276 30.706C29.7589 30.9872 29.2049 31.1278 28.5657 31.1278ZM28.5742 29.892C28.9208 29.892 29.2106 29.7969 29.4435 29.6065C29.6765 29.4134 29.8498 29.1548 29.9634 28.831C30.0799 28.5071 30.1381 28.1463 30.1381 27.7486C30.1381 27.348 30.0799 26.9858 29.9634 26.6619C29.8498 26.3352 29.6765 26.0753 29.4435 25.8821C29.2106 25.6889 28.9208 25.5923 28.5742 25.5923C28.2191 25.5923 27.9237 25.6889 27.6879 25.8821C27.4549 26.0753 27.2802 26.3352 27.1637 26.6619C27.0501 26.9858 26.9933 27.348 26.9933 27.7486C26.9933 28.1463 27.0501 28.5071 27.1637 28.831C27.2802 29.1548 27.4549 29.4134 27.6879 29.6065C27.9237 29.7969 28.2191 29.892 28.5742 29.892ZM34.554 27.1648V31H33.0114V24.4545H34.4858V25.5668H34.5625C34.7131 25.2003 34.9531 24.9091 35.2827 24.6932C35.6151 24.4773 36.0256 24.3693 36.5142 24.3693C36.9659 24.3693 37.3594 24.4659 37.6946 24.6591C38.0327 24.8523 38.294 25.1321 38.4787 25.4986C38.6662 25.8651 38.7585 26.3097 38.7557 26.8324V31H37.2131V27.071C37.2131 26.6335 37.0994 26.2912 36.8722 26.044C36.6477 25.7969 36.3366 25.6733 35.9389 25.6733C35.669 25.6733 35.429 25.733 35.2188 25.8523C35.0114 25.9687 34.848 26.1378 34.7287 26.3594C34.6122 26.581 34.554 26.8494 34.554 27.1648ZM43.5923 24.4545V25.6477H39.8295V24.4545H43.5923ZM40.7585 22.8864H42.3011V29.0312C42.3011 29.2386 42.3324 29.3977 42.3949 29.5085C42.4602 29.6165 42.5455 29.6903 42.6506 29.7301C42.7557 29.7699 42.8722 29.7898 43 29.7898C43.0966 29.7898 43.1847 29.7827 43.2642 29.7685C43.3466 29.7543 43.4091 29.7415 43.4517 29.7301L43.7116 30.9361C43.6293 30.9645 43.5114 30.9957 43.358 31.0298C43.2074 31.0639 43.0227 31.0838 42.804 31.0895C42.4176 31.1009 42.0696 31.0426 41.7599 30.9148C41.4503 30.7841 41.2045 30.5824 41.0227 30.3097C40.8438 30.0369 40.7557 29.696 40.7585 29.2869V22.8864ZM47.7099 31.1278C47.0536 31.1278 46.4869 30.9915 46.0096 30.7188C45.5352 30.4432 45.1701 30.054 44.9144 29.5511C44.6587 29.0455 44.5309 28.4503 44.5309 27.7656C44.5309 27.0923 44.6587 26.5014 44.9144 25.9929C45.1729 25.4815 45.5337 25.0838 45.9968 24.7997C46.4599 24.5128 47.0039 24.3693 47.6289 24.3693C48.0323 24.3693 48.413 24.4347 48.771 24.5653C49.1317 24.6932 49.4499 24.892 49.7255 25.1619C50.0039 25.4318 50.2227 25.7756 50.3817 26.1932C50.5408 26.608 50.6204 27.1023 50.6204 27.6761V28.1491H45.2553V27.1094H49.1417C49.1388 26.8139 49.0749 26.5511 48.9499 26.321C48.8249 26.0881 48.6502 25.9048 48.4258 25.7713C48.2042 25.6378 47.9457 25.571 47.6502 25.571C47.3349 25.571 47.0579 25.6477 46.8192 25.8011C46.5806 25.9517 46.3945 26.1506 46.261 26.3977C46.1303 26.642 46.0636 26.9105 46.0607 27.2031V28.1108C46.0607 28.4915 46.1303 28.8182 46.2695 29.0909C46.4087 29.3608 46.6033 29.5682 46.8533 29.7131C47.1033 29.8551 47.396 29.9261 47.7312 29.9261C47.9556 29.9261 48.1587 29.8949 48.3406 29.8324C48.5224 29.767 48.68 29.6719 48.8136 29.5469C48.9471 29.4219 49.0479 29.267 49.1161 29.0824L50.5565 29.2443C50.4656 29.625 50.2923 29.9574 50.0366 30.2415C49.7837 30.5227 49.4599 30.7415 49.065 30.8977C48.6701 31.0511 48.2184 31.1278 47.7099 31.1278ZM53.468 27.1648V31H51.9254V24.4545H53.3999V25.5668H53.4766C53.6271 25.2003 53.8672 24.9091 54.1967 24.6932C54.5291 24.4773 54.9396 24.3693 55.4283 24.3693C55.88 24.3693 56.2734 24.4659 56.6087 24.6591C56.9467 24.8523 57.2081 25.1321 57.3928 25.4986C57.5803 25.8651 57.6726 26.3097 57.6697 26.8324V31H56.1271V27.071C56.1271 26.6335 56.0135 26.2912 55.7862 26.044C55.5618 25.7969 55.2507 25.6733 54.853 25.6733C54.5831 25.6733 54.343 25.733 54.1328 25.8523C53.9254 25.9687 53.7621 26.1378 53.6428 26.3594C53.5263 26.581 53.468 26.8494 53.468 27.1648ZM62.5064 24.4545V25.6477H58.7436V24.4545H62.5064ZM59.6726 22.8864H61.2152V29.0312C61.2152 29.2386 61.2464 29.3977 61.3089 29.5085C61.3743 29.6165 61.4595 29.6903 61.5646 29.7301C61.6697 29.7699 61.7862 29.7898 61.9141 29.7898C62.0107 29.7898 62.0987 29.7827 62.1783 29.7685C62.2607 29.7543 62.3232 29.7415 62.3658 29.7301L62.6257 30.9361C62.5433 30.9645 62.4254 30.9957 62.272 31.0298C62.1214 31.0639 61.9368 31.0838 61.718 31.0895C61.3317 31.1009 60.9837 31.0426 60.674 30.9148C60.3643 30.7841 60.1186 30.5824 59.9368 30.3097C59.7578 30.0369 59.6697 29.696 59.6726 29.2869V22.8864ZM66.8413 31V22.2727H70.114C70.7844 22.2727 71.3469 22.3977 71.8015 22.6477C72.2589 22.8977 72.604 23.2415 72.837 23.679C73.0728 24.1136 73.1907 24.608 73.1907 25.1619C73.1907 25.7216 73.0728 26.2187 72.837 26.6534C72.6012 27.0881 72.2532 27.4304 71.793 27.6804C71.3327 27.9276 70.766 28.0511 70.0927 28.0511H67.9237V26.7514H69.8796C70.2717 26.7514 70.5927 26.6832 70.8427 26.5469C71.0927 26.4105 71.2773 26.223 71.3967 25.9844C71.5188 25.7457 71.5799 25.4716 71.5799 25.1619C71.5799 24.8523 71.5188 24.5795 71.3967 24.3438C71.2773 24.108 71.0913 23.9247 70.8384 23.794C70.5884 23.6605 70.266 23.5938 69.8711 23.5938H68.4222V31H66.8413ZM77.2997 31.1278C76.6435 31.1278 76.0767 30.9915 75.5994 30.7188C75.125 30.4432 74.7599 30.054 74.5043 29.5511C74.2486 29.0455 74.1207 28.4503 74.1207 27.7656C74.1207 27.0923 74.2486 26.5014 74.5043 25.9929C74.7628 25.4815 75.1236 25.0838 75.5866 24.7997C76.0497 24.5128 76.5938 24.3693 77.2188 24.3693C77.6222 24.3693 78.0028 24.4347 78.3608 24.5653C78.7216 24.6932 79.0398 24.892 79.3153 25.1619C79.5938 25.4318 79.8125 25.7756 79.9716 26.1932C80.1307 26.608 80.2102 27.1023 80.2102 27.6761V28.1491H74.8452V27.1094H78.7315C78.7287 26.8139 78.6648 26.5511 78.5398 26.321C78.4148 26.0881 78.2401 25.9048 78.0156 25.7713C77.794 25.6378 77.5355 25.571 77.2401 25.571C76.9247 25.571 76.6477 25.6477 76.4091 25.8011C76.1705 25.9517 75.9844 26.1506 75.8509 26.3977C75.7202 26.642 75.6534 26.9105 75.6506 27.2031V28.1108C75.6506 28.4915 75.7202 28.8182 75.8594 29.0909C75.9986 29.3608 76.1932 29.5682 76.4432 29.7131C76.6932 29.8551 76.9858 29.9261 77.321 29.9261C77.5455 29.9261 77.7486 29.8949 77.9304 29.8324C78.1122 29.767 78.2699 29.6719 78.4034 29.5469C78.5369 29.4219 78.6378 29.267 78.706 29.0824L80.1463 29.2443C80.0554 29.625 79.8821 29.9574 79.6264 30.2415C79.3736 30.5227 79.0497 30.7415 78.6548 30.8977C78.2599 31.0511 77.8082 31.1278 77.2997 31.1278ZM81.5153 31V24.4545H83.011V25.5455H83.0792C83.1985 25.1676 83.4031 24.8764 83.6928 24.6719C83.9854 24.4645 84.3192 24.3608 84.6942 24.3608C84.7795 24.3608 84.8746 24.3651 84.9798 24.3736C85.0877 24.3793 85.1772 24.3892 85.2482 24.4034V25.8224C85.1829 25.7997 85.0792 25.7798 84.9371 25.7628C84.7979 25.7429 84.663 25.733 84.5323 25.733C84.2511 25.733 83.9982 25.794 83.7738 25.9162C83.5522 26.0355 83.3775 26.2017 83.2496 26.4148C83.1218 26.6278 83.0579 26.8736 83.0579 27.152V31H81.5153ZM91.4464 26.1847L90.0401 26.3381C90.0004 26.196 89.9308 26.0625 89.8313 25.9375C89.7347 25.8125 89.604 25.7116 89.4393 25.6349C89.2745 25.5582 89.0728 25.5199 88.8342 25.5199C88.5131 25.5199 88.2433 25.5895 88.0245 25.7287C87.8086 25.8679 87.7021 26.0483 87.7049 26.2699C87.7021 26.4602 87.7717 26.6151 87.9137 26.7344C88.0586 26.8537 88.2972 26.9517 88.6296 27.0284L89.7461 27.267C90.3654 27.4006 90.8256 27.6122 91.1268 27.902C91.4308 28.1918 91.5842 28.571 91.587 29.0398C91.5842 29.4517 91.4634 29.8153 91.2248 30.1307C90.989 30.4432 90.6609 30.6875 90.2404 30.8636C89.82 31.0398 89.337 31.1278 88.7915 31.1278C87.9904 31.1278 87.3455 30.9602 86.8569 30.625C86.3683 30.2869 86.0771 29.8168 85.9833 29.2145L87.4876 29.0696C87.5558 29.3651 87.7006 29.5881 87.9222 29.7386C88.1438 29.8892 88.4322 29.9645 88.7873 29.9645C89.1538 29.9645 89.4478 29.8892 89.6694 29.7386C89.8938 29.5881 90.006 29.402 90.006 29.1804C90.006 28.9929 89.9336 28.8381 89.7887 28.7159C89.6467 28.5937 89.4251 28.5 89.1239 28.4347L88.0075 28.2003C87.3796 28.0696 86.9151 27.8494 86.614 27.5398C86.3129 27.2273 86.1637 26.8324 86.1665 26.3551C86.1637 25.9517 86.2731 25.6023 86.4947 25.3068C86.7191 25.0085 87.0302 24.7784 87.4279 24.6165C87.8285 24.4517 88.2901 24.3693 88.8129 24.3693C89.5799 24.3693 90.1836 24.5327 90.6239 24.8594C91.0671 25.1861 91.3413 25.6278 91.4464 26.1847ZM95.7141 31.1278C95.0749 31.1278 94.521 30.9872 94.0522 30.706C93.5835 30.4247 93.2198 30.0312 92.9613 29.5256C92.7056 29.0199 92.5778 28.429 92.5778 27.7528C92.5778 27.0767 92.7056 26.4844 92.9613 25.9759C93.2198 25.4673 93.5835 25.0724 94.0522 24.7912C94.521 24.5099 95.0749 24.3693 95.7141 24.3693C96.3533 24.3693 96.9073 24.5099 97.3761 24.7912C97.8448 25.0724 98.207 25.4673 98.4627 25.9759C98.7212 26.4844 98.8505 27.0767 98.8505 27.7528C98.8505 28.429 98.7212 29.0199 98.4627 29.5256C98.207 30.0312 97.8448 30.4247 97.3761 30.706C96.9073 30.9872 96.3533 31.1278 95.7141 31.1278ZM95.7227 29.892C96.0692 29.892 96.359 29.7969 96.592 29.6065C96.8249 29.4134 96.9982 29.1548 97.1119 28.831C97.2283 28.5071 97.2866 28.1463 97.2866 27.7486C97.2866 27.348 97.2283 26.9858 97.1119 26.6619C96.9982 26.3352 96.8249 26.0753 96.592 25.8821C96.359 25.6889 96.0692 25.5923 95.7227 25.5923C95.3675 25.5923 95.0721 25.6889 94.8363 25.8821C94.6033 26.0753 94.4286 26.3352 94.3121 26.6619C94.1985 26.9858 94.1417 27.348 94.1417 27.7486C94.1417 28.1463 94.1985 28.5071 94.3121 28.831C94.4286 29.1548 94.6033 29.4134 94.8363 29.6065C95.0721 29.7969 95.3675 29.892 95.7227 29.892ZM101.702 27.1648V31H100.16V24.4545H101.634V25.5668H101.711C101.862 25.2003 102.102 24.9091 102.431 24.6932C102.763 24.4773 103.174 24.3693 103.663 24.3693C104.114 24.3693 104.508 24.4659 104.843 24.6591C105.181 24.8523 105.442 25.1321 105.627 25.4986C105.815 25.8651 105.907 26.3097 105.904 26.8324V31H104.362V27.071C104.362 26.6335 104.248 26.2912 104.021 26.044C103.796 25.7969 103.485 25.6733 103.087 25.6733C102.817 25.6733 102.577 25.733 102.367 25.8523C102.16 25.9687 101.996 26.1378 101.877 26.3594C101.761 26.581 101.702 26.8494 101.702 27.1648ZM109.356 31.1321C108.941 31.1321 108.567 31.0582 108.235 30.9105C107.906 30.7599 107.644 30.5384 107.451 30.2457C107.261 29.9531 107.165 29.5923 107.165 29.1634C107.165 28.794 107.234 28.4886 107.37 28.2472C107.506 28.0057 107.692 27.8125 107.928 27.6676C108.164 27.5227 108.43 27.4134 108.725 27.3395C109.023 27.2628 109.332 27.2074 109.65 27.1733C110.033 27.1335 110.344 27.098 110.583 27.0668C110.822 27.0327 110.995 26.9815 111.103 26.9134C111.214 26.8423 111.269 26.733 111.269 26.5852V26.5597C111.269 26.2386 111.174 25.9901 110.984 25.8139C110.793 25.6378 110.519 25.5497 110.161 25.5497C109.783 25.5497 109.484 25.6321 109.262 25.7969C109.043 25.9616 108.896 26.1562 108.819 26.3807L107.379 26.1761C107.492 25.7784 107.68 25.446 107.941 25.179C108.202 24.9091 108.522 24.7074 108.9 24.5739C109.278 24.4375 109.695 24.3693 110.153 24.3693C110.468 24.3693 110.782 24.4062 111.094 24.4801C111.407 24.554 111.692 24.6761 111.951 24.8466C112.21 25.0142 112.417 25.2429 112.573 25.5327C112.732 25.8224 112.812 26.1847 112.812 26.6193V31H111.329V30.1009H111.278C111.184 30.2827 111.052 30.4531 110.881 30.6122C110.714 30.7685 110.502 30.8949 110.246 30.9915C109.994 31.0852 109.697 31.1321 109.356 31.1321ZM109.756 29.9986C110.066 29.9986 110.335 29.9375 110.562 29.8153C110.789 29.6903 110.964 29.5256 111.086 29.321C111.211 29.1165 111.273 28.8935 111.273 28.652V27.8807C111.225 27.9205 111.143 27.9574 111.026 27.9915C110.913 28.0256 110.785 28.0554 110.643 28.081C110.501 28.1065 110.36 28.1293 110.221 28.1491C110.082 28.169 109.961 28.1861 109.859 28.2003C109.629 28.2315 109.423 28.2827 109.241 28.3537C109.059 28.4247 108.915 28.5241 108.81 28.652C108.705 28.777 108.653 28.9389 108.653 29.1378C108.653 29.4219 108.756 29.6364 108.964 29.7812C109.171 29.9261 109.435 29.9986 109.756 29.9986ZM115.906 22.2727V31H114.363V22.2727H115.906ZM117.492 31V24.4545H119.034V31H117.492ZM118.267 23.5256C118.023 23.5256 117.813 23.4446 117.637 23.2827C117.461 23.1179 117.373 22.9205 117.373 22.6903C117.373 22.4574 117.461 22.2599 117.637 22.098C117.813 21.9332 118.023 21.8509 118.267 21.8509C118.515 21.8509 118.725 21.9332 118.898 22.098C119.074 22.2599 119.162 22.4574 119.162 22.6903C119.162 22.9205 119.074 23.1179 118.898 23.2827C118.725 23.4446 118.515 23.5256 118.267 23.5256ZM125.794 26.1847L124.388 26.3381C124.348 26.196 124.278 26.0625 124.179 25.9375C124.082 25.8125 123.952 25.7116 123.787 25.6349C123.622 25.5582 123.42 25.5199 123.182 25.5199C122.861 25.5199 122.591 25.5895 122.372 25.7287C122.156 25.8679 122.05 26.0483 122.053 26.2699C122.05 26.4602 122.119 26.6151 122.261 26.7344C122.406 26.8537 122.645 26.9517 122.977 27.0284L124.094 27.267C124.713 27.4006 125.173 27.6122 125.474 27.902C125.778 28.1918 125.932 28.571 125.935 29.0398C125.932 29.4517 125.811 29.8153 125.572 30.1307C125.337 30.4432 125.009 30.6875 124.588 30.8636C124.168 31.0398 123.685 31.1278 123.139 31.1278C122.338 31.1278 121.693 30.9602 121.205 30.625C120.716 30.2869 120.425 29.8168 120.331 29.2145L121.835 29.0696C121.903 29.3651 122.048 29.5881 122.27 29.7386C122.491 29.8892 122.78 29.9645 123.135 29.9645C123.501 29.9645 123.795 29.8892 124.017 29.7386C124.241 29.5881 124.354 29.402 124.354 29.1804C124.354 28.9929 124.281 28.8381 124.136 28.7159C123.994 28.5937 123.773 28.5 123.472 28.4347L122.355 28.2003C121.727 28.0696 121.263 27.8494 120.962 27.5398C120.661 27.2273 120.511 26.8324 120.514 26.3551C120.511 25.9517 120.621 25.6023 120.842 25.3068C121.067 25.0085 121.378 24.7784 121.776 24.6165C122.176 24.4517 122.638 24.3693 123.161 24.3693C123.928 24.3693 124.531 24.5327 124.972 24.8594C125.415 25.1861 125.689 25.6278 125.794 26.1847ZM129.09 31.1321C128.675 31.1321 128.302 31.0582 127.969 30.9105C127.64 30.7599 127.379 30.5384 127.185 30.2457C126.995 29.9531 126.9 29.5923 126.9 29.1634C126.9 28.794 126.968 28.4886 127.104 28.2472C127.241 28.0057 127.427 27.8125 127.663 27.6676C127.898 27.5227 128.164 27.4134 128.46 27.3395C128.758 27.2628 129.066 27.2074 129.384 27.1733C129.768 27.1335 130.079 27.098 130.317 27.0668C130.556 27.0327 130.729 26.9815 130.837 26.9134C130.948 26.8423 131.004 26.733 131.004 26.5852V26.5597C131.004 26.2386 130.908 25.9901 130.718 25.8139C130.528 25.6378 130.254 25.5497 129.896 25.5497C129.518 25.5497 129.218 25.6321 128.996 25.7969C128.778 25.9616 128.63 26.1562 128.553 26.3807L127.113 26.1761C127.227 25.7784 127.414 25.446 127.675 25.179C127.937 24.9091 128.256 24.7074 128.634 24.5739C129.012 24.4375 129.43 24.3693 129.887 24.3693C130.202 24.3693 130.516 24.4062 130.829 24.4801C131.141 24.554 131.427 24.6761 131.685 24.8466C131.944 25.0142 132.151 25.2429 132.308 25.5327C132.467 25.8224 132.546 26.1847 132.546 26.6193V31H131.063V30.1009H131.012C130.918 30.2827 130.786 30.4531 130.616 30.6122C130.448 30.7685 130.237 30.8949 129.981 30.9915C129.728 31.0852 129.431 31.1321 129.09 31.1321ZM129.491 29.9986C129.8 29.9986 130.069 29.9375 130.296 29.8153C130.523 29.6903 130.698 29.5256 130.82 29.321C130.945 29.1165 131.008 28.8935 131.008 28.652V27.8807C130.96 27.9205 130.877 27.9574 130.761 27.9915C130.647 28.0256 130.519 28.0554 130.377 28.081C130.235 28.1065 130.094 28.1293 129.955 28.1491C129.816 28.169 129.695 28.1861 129.593 28.2003C129.363 28.2315 129.157 28.2827 128.975 28.3537C128.793 28.4247 128.65 28.5241 128.545 28.652C128.44 28.777 128.387 28.9389 128.387 29.1378C128.387 29.4219 128.491 29.6364 128.698 29.7812C128.906 29.9261 129.17 29.9986 129.491 29.9986ZM137.366 24.4545V25.6477H133.603V24.4545H137.366ZM134.532 22.8864H136.075V29.0312C136.075 29.2386 136.106 29.3977 136.168 29.5085C136.234 29.6165 136.319 29.6903 136.424 29.7301C136.529 29.7699 136.646 29.7898 136.773 29.7898C136.87 29.7898 136.958 29.7827 137.038 29.7685C137.12 29.7543 137.183 29.7415 137.225 29.7301L137.485 30.9361C137.403 30.9645 137.285 30.9957 137.131 31.0298C136.981 31.0639 136.796 31.0838 136.577 31.0895C136.191 31.1009 135.843 31.0426 135.533 30.9148C135.224 30.7841 134.978 30.5824 134.796 30.3097C134.617 30.0369 134.529 29.696 134.532 29.2869V22.8864ZM138.656 31V24.4545H140.199V31H138.656ZM139.431 23.5256C139.187 23.5256 138.977 23.4446 138.801 23.2827C138.625 23.1179 138.537 22.9205 138.537 22.6903C138.537 22.4574 138.625 22.2599 138.801 22.098C138.977 21.9332 139.187 21.8509 139.431 21.8509C139.679 21.8509 139.889 21.9332 140.062 22.098C140.238 22.2599 140.326 22.4574 140.326 22.6903C140.326 22.9205 140.238 23.1179 140.062 23.2827C139.889 23.4446 139.679 23.5256 139.431 23.5256ZM144.64 31.1278C144.001 31.1278 143.447 30.9872 142.978 30.706C142.509 30.4247 142.146 30.0312 141.887 29.5256C141.631 29.0199 141.504 28.429 141.504 27.7528C141.504 27.0767 141.631 26.4844 141.887 25.9759C142.146 25.4673 142.509 25.0724 142.978 24.7912C143.447 24.5099 144.001 24.3693 144.64 24.3693C145.279 24.3693 145.833 24.5099 146.302 24.7912C146.771 25.0724 147.133 25.4673 147.388 25.9759C147.647 26.4844 147.776 27.0767 147.776 27.7528C147.776 28.429 147.647 29.0199 147.388 29.5256C147.133 30.0312 146.771 30.4247 146.302 30.706C145.833 30.9872 145.279 31.1278 144.64 31.1278ZM144.648 29.892C144.995 29.892 145.285 29.7969 145.518 29.6065C145.751 29.4134 145.924 29.1548 146.038 28.831C146.154 28.5071 146.212 28.1463 146.212 27.7486C146.212 27.348 146.154 26.9858 146.038 26.6619C145.924 26.3352 145.751 26.0753 145.518 25.8821C145.285 25.6889 144.995 25.5923 144.648 25.5923C144.293 25.5923 143.998 25.6889 143.762 25.8821C143.529 26.0753 143.354 26.3352 143.238 26.6619C143.124 26.9858 143.067 27.348 143.067 27.7486C143.067 28.1463 143.124 28.5071 143.238 28.831C143.354 29.1548 143.529 29.4134 143.762 29.6065C143.998 29.7969 144.293 29.892 144.648 29.892ZM150.628 27.1648V31H149.086V24.4545H150.56V25.5668H150.637C150.787 25.2003 151.027 24.9091 151.357 24.6932C151.689 24.4773 152.1 24.3693 152.588 24.3693C153.04 24.3693 153.434 24.4659 153.769 24.6591C154.107 24.8523 154.368 25.1321 154.553 25.4986C154.74 25.8651 154.833 26.3097 154.83 26.8324V31H153.287V27.071C153.287 26.6335 153.174 26.2912 152.946 26.044C152.722 25.7969 152.411 25.6733 152.013 25.6733C151.743 25.6733 151.503 25.733 151.293 25.8523C151.086 25.9687 150.922 26.1378 150.803 26.3594C150.686 26.581 150.628 26.8494 150.628 27.1648Z" fill="#333333"/>
<path d="M169.209 23L173.239 26.8116C173.266 26.8363 173.286 26.8657 173.301 26.898C173.315 26.9303 173.322 26.965 173.322 27C173.322 27.035 173.315 27.0697 173.301 27.102C173.286 27.1343 173.266 27.1637 173.239 27.1884L169.209 31" stroke="#333333" stroke-linecap="round" stroke-linejoin="round"/>
<path d="M188.256 25.0597C188.185 24.8295 188.087 24.6236 187.962 24.4418C187.84 24.2571 187.692 24.0994 187.519 23.9688C187.349 23.8381 187.153 23.7401 186.931 23.6747C186.709 23.6065 186.468 23.5724 186.206 23.5724C185.738 23.5724 185.32 23.6903 184.954 23.9261C184.587 24.1619 184.299 24.5085 184.089 24.9659C183.881 25.4205 183.778 25.9744 183.778 26.6278C183.778 27.2869 183.881 27.8452 184.089 28.3026C184.296 28.7599 184.584 29.108 184.954 29.3466C185.323 29.5824 185.752 29.7003 186.241 29.7003C186.684 29.7003 187.067 29.6151 187.391 29.4446C187.718 29.2741 187.969 29.0327 188.145 28.7202C188.322 28.4048 188.41 28.0355 188.41 27.6122L188.768 27.6676H186.398V26.4318H189.939V27.4801C189.939 28.2273 189.78 28.8736 189.462 29.419C189.144 29.9645 188.706 30.3849 188.15 30.6804C187.593 30.973 186.954 31.1193 186.232 31.1193C185.428 31.1193 184.722 30.9389 184.114 30.5781C183.509 30.2145 183.036 29.6989 182.695 29.0312C182.357 28.3608 182.188 27.5653 182.188 26.6449C182.188 25.9403 182.287 25.3111 182.486 24.7571C182.688 24.2031 182.969 23.733 183.33 23.3466C183.691 22.9574 184.114 22.6619 184.6 22.4602C185.086 22.2557 185.614 22.1534 186.185 22.1534C186.668 22.1534 187.118 22.2244 187.536 22.3665C187.954 22.5057 188.324 22.7045 188.648 22.9631C188.975 23.2216 189.243 23.5284 189.454 23.8835C189.664 24.2386 189.802 24.6307 189.867 25.0597H188.256ZM193.284 31.1321C192.869 31.1321 192.495 31.0582 192.163 30.9105C191.833 30.7599 191.572 30.5384 191.379 30.2457C191.188 29.9531 191.093 29.5923 191.093 29.1634C191.093 28.794 191.161 28.4886 191.298 28.2472C191.434 28.0057 191.62 27.8125 191.856 27.6676C192.092 27.5227 192.357 27.4134 192.653 27.3395C192.951 27.2628 193.259 27.2074 193.578 27.1733C193.961 27.1335 194.272 27.098 194.511 27.0668C194.749 27.0327 194.923 26.9815 195.031 26.9134C195.142 26.8423 195.197 26.733 195.197 26.5852V26.5597C195.197 26.2386 195.102 25.9901 194.911 25.8139C194.721 25.6378 194.447 25.5497 194.089 25.5497C193.711 25.5497 193.411 25.6321 193.19 25.7969C192.971 25.9616 192.823 26.1562 192.747 26.3807L191.306 26.1761C191.42 25.7784 191.607 25.446 191.869 25.179C192.13 24.9091 192.45 24.7074 192.828 24.5739C193.205 24.4375 193.623 24.3693 194.08 24.3693C194.396 24.3693 194.71 24.4062 195.022 24.4801C195.335 24.554 195.62 24.6761 195.879 24.8466C196.137 25.0142 196.345 25.2429 196.501 25.5327C196.66 25.8224 196.74 26.1847 196.74 26.6193V31H195.257V30.1009H195.205C195.112 30.2827 194.98 30.4531 194.809 30.6122C194.642 30.7685 194.43 30.8949 194.174 30.9915C193.921 31.0852 193.624 31.1321 193.284 31.1321ZM193.684 29.9986C193.994 29.9986 194.262 29.9375 194.49 29.8153C194.717 29.6903 194.892 29.5256 195.014 29.321C195.139 29.1165 195.201 28.8935 195.201 28.652V27.8807C195.153 27.9205 195.07 27.9574 194.954 27.9915C194.84 28.0256 194.713 28.0554 194.57 28.081C194.428 28.1065 194.288 28.1293 194.149 28.1491C194.009 28.169 193.889 28.1861 193.786 28.2003C193.556 28.2315 193.35 28.2827 193.169 28.3537C192.987 28.4247 192.843 28.5241 192.738 28.652C192.633 28.777 192.58 28.9389 192.58 29.1378C192.58 29.4219 192.684 29.6364 192.892 29.7812C193.099 29.9261 193.363 29.9986 193.684 29.9986ZM198.291 31V24.4545H199.765V25.5668H199.842C199.978 25.1918 200.204 24.8991 200.519 24.6889C200.835 24.4759 201.211 24.3693 201.649 24.3693C202.092 24.3693 202.465 24.4773 202.769 24.6932C203.076 24.9062 203.292 25.1974 203.417 25.5668H203.485C203.63 25.2031 203.874 24.9134 204.218 24.6974C204.565 24.4787 204.975 24.3693 205.45 24.3693C206.052 24.3693 206.544 24.5597 206.924 24.9403C207.305 25.321 207.495 25.8764 207.495 26.6065V31H205.948V26.8452C205.948 26.4389 205.84 26.142 205.624 25.9545C205.409 25.7642 205.144 25.669 204.832 25.669C204.46 25.669 204.169 25.7855 203.958 26.0185C203.751 26.2486 203.647 26.5483 203.647 26.9176V31H202.134V26.7812C202.134 26.4432 202.032 26.1733 201.828 25.9716C201.626 25.7699 201.362 25.669 201.035 25.669C200.813 25.669 200.612 25.7259 200.43 25.8395C200.248 25.9503 200.103 26.108 199.995 26.3125C199.887 26.5142 199.833 26.75 199.833 27.0199V31H198.291ZM211.958 31.1278C211.302 31.1278 210.735 30.9915 210.258 30.7188C209.783 30.4432 209.418 30.054 209.162 29.5511C208.907 29.0455 208.779 28.4503 208.779 27.7656C208.779 27.0923 208.907 26.5014 209.162 25.9929C209.421 25.4815 209.782 25.0838 210.245 24.7997C210.708 24.5128 211.252 24.3693 211.877 24.3693C212.28 24.3693 212.661 24.4347 213.019 24.5653C213.38 24.6932 213.698 24.892 213.974 25.1619C214.252 25.4318 214.471 25.7756 214.63 26.1932C214.789 26.608 214.868 27.1023 214.868 27.6761V28.1491H209.503V27.1094H213.39C213.387 26.8139 213.323 26.5511 213.198 26.321C213.073 26.0881 212.898 25.9048 212.674 25.7713C212.452 25.6378 212.194 25.571 211.898 25.571C211.583 25.571 211.306 25.6477 211.067 25.8011C210.829 25.9517 210.643 26.1506 210.509 26.3977C210.378 26.642 210.312 26.9105 210.309 27.2031V28.1108C210.309 28.4915 210.378 28.8182 210.518 29.0909C210.657 29.3608 210.851 29.5682 211.101 29.7131C211.351 29.8551 211.644 29.9261 211.979 29.9261C212.204 29.9261 212.407 29.8949 212.589 29.8324C212.77 29.767 212.928 29.6719 213.062 29.5469C213.195 29.4219 213.296 29.267 213.364 29.0824L214.805 29.2443C214.714 29.625 214.54 29.9574 214.285 30.2415C214.032 30.5227 213.708 30.7415 213.313 30.8977C212.918 31.0511 212.466 31.1278 211.958 31.1278ZM219.218 31V22.2727H222.491C223.161 22.2727 223.724 22.3892 224.178 22.6222C224.636 22.8551 224.981 23.1818 225.214 23.6023C225.45 24.0199 225.568 24.5071 225.568 25.0639C225.568 25.6236 225.448 26.1094 225.21 26.5213C224.974 26.9304 224.626 27.2472 224.166 27.4716C223.705 27.6932 223.14 27.804 222.47 27.804H220.139V26.4915H222.257C222.649 26.4915 222.97 26.4375 223.22 26.3295C223.47 26.2187 223.654 26.0582 223.774 25.848C223.896 25.6349 223.957 25.3736 223.957 25.0639C223.957 24.7543 223.896 24.4901 223.774 24.2713C223.651 24.0497 223.465 23.8821 223.215 23.7685C222.965 23.652 222.643 23.5938 222.248 23.5938H220.799V31H219.218ZM223.727 27.0455L225.887 31H224.123L222.001 27.0455H223.727ZM229.759 31.1278C229.102 31.1278 228.536 30.9915 228.058 30.7188C227.584 30.4432 227.219 30.054 226.963 29.5511C226.708 29.0455 226.58 28.4503 226.58 27.7656C226.58 27.0923 226.708 26.5014 226.963 25.9929C227.222 25.4815 227.583 25.0838 228.046 24.7997C228.509 24.5128 229.053 24.3693 229.678 24.3693C230.081 24.3693 230.462 24.4347 230.82 24.5653C231.181 24.6932 231.499 24.892 231.774 25.1619C232.053 25.4318 232.271 25.7756 232.431 26.1932C232.59 26.608 232.669 27.1023 232.669 27.6761V28.1491H227.304V27.1094H231.191C231.188 26.8139 231.124 26.5511 230.999 26.321C230.874 26.0881 230.699 25.9048 230.475 25.7713C230.253 25.6378 229.994 25.571 229.699 25.571C229.384 25.571 229.107 25.6477 228.868 25.8011C228.629 25.9517 228.443 26.1506 228.31 26.3977C228.179 26.642 228.112 26.9105 228.11 27.2031V28.1108C228.11 28.4915 228.179 28.8182 228.318 29.0909C228.458 29.3608 228.652 29.5682 228.902 29.7131C229.152 29.8551 229.445 29.9261 229.78 29.9261C230.004 29.9261 230.208 29.8949 230.389 29.8324C230.571 29.767 230.729 29.6719 230.862 29.5469C230.996 29.4219 231.097 29.267 231.165 29.0824L232.605 29.2443C232.514 29.625 232.341 29.9574 232.085 30.2415C231.833 30.5227 231.509 30.7415 231.114 30.8977C230.719 31.0511 230.267 31.1278 229.759 31.1278ZM236.829 31.1278C236.176 31.1278 235.615 30.9844 235.146 30.6974C234.68 30.4105 234.321 30.0142 234.068 29.5085C233.818 29 233.693 28.4148 233.693 27.7528C233.693 27.0881 233.821 26.5014 234.077 25.9929C234.332 25.4815 234.693 25.0838 235.159 24.7997C235.628 24.5128 236.182 24.3693 236.821 24.3693C237.352 24.3693 237.822 24.4673 238.231 24.6634C238.643 24.8565 238.971 25.1307 239.216 25.4858C239.46 25.8381 239.599 26.25 239.633 26.7216H238.159C238.099 26.4062 237.957 26.1435 237.733 25.9332C237.511 25.7202 237.214 25.6136 236.842 25.6136C236.527 25.6136 236.25 25.6989 236.011 25.8693C235.773 26.0369 235.586 26.2784 235.453 26.5938C235.322 26.9091 235.257 27.2869 235.257 27.7273C235.257 28.1733 235.322 28.5568 235.453 28.8778C235.584 29.196 235.767 29.4418 236.003 29.6151C236.241 29.7855 236.521 29.8707 236.842 29.8707C237.069 29.8707 237.273 29.8281 237.452 29.7429C237.633 29.6548 237.785 29.5284 237.907 29.3636C238.03 29.1989 238.113 28.9986 238.159 28.7628H239.633C239.596 29.2259 239.46 29.6364 239.224 29.9943C238.988 30.3494 238.667 30.6278 238.261 30.8295C237.855 31.0284 237.378 31.1278 236.829 31.1278ZM243.755 31.1278C243.116 31.1278 242.562 30.9872 242.093 30.706C241.624 30.4247 241.261 30.0312 241.002 29.5256C240.747 29.0199 240.619 28.429 240.619 27.7528C240.619 27.0767 240.747 26.4844 241.002 25.9759C241.261 25.4673 241.624 25.0724 242.093 24.7912C242.562 24.5099 243.116 24.3693 243.755 24.3693C244.394 24.3693 244.948 24.5099 245.417 24.7912C245.886 25.0724 246.248 25.4673 246.504 25.9759C246.762 26.4844 246.892 27.0767 246.892 27.7528C246.892 28.429 246.762 29.0199 246.504 29.5256C246.248 30.0312 245.886 30.4247 245.417 30.706C244.948 30.9872 244.394 31.1278 243.755 31.1278ZM243.764 29.892C244.11 29.892 244.4 29.7969 244.633 29.6065C244.866 29.4134 245.039 29.1548 245.153 28.831C245.269 28.5071 245.328 28.1463 245.328 27.7486C245.328 27.348 245.269 26.9858 245.153 26.6619C245.039 26.3352 244.866 26.0753 244.633 25.8821C244.4 25.6889 244.11 25.5923 243.764 25.5923C243.409 25.5923 243.113 25.6889 242.877 25.8821C242.644 26.0753 242.47 26.3352 242.353 26.6619C242.24 26.9858 242.183 27.348 242.183 27.7486C242.183 28.1463 242.24 28.5071 242.353 28.831C242.47 29.1548 242.644 29.4134 242.877 29.6065C243.113 29.7969 243.409 29.892 243.764 29.892ZM248.201 31V24.4545H249.675V25.5668H249.752C249.888 25.1918 250.114 24.8991 250.43 24.6889C250.745 24.4759 251.121 24.3693 251.559 24.3693C252.002 24.3693 252.376 24.4773 252.68 24.6932C252.986 24.9062 253.202 25.1974 253.327 25.5668H253.395C253.54 25.2031 253.785 24.9134 254.128 24.6974C254.475 24.4787 254.885 24.3693 255.36 24.3693C255.962 24.3693 256.454 24.5597 256.834 24.9403C257.215 25.321 257.405 25.8764 257.405 26.6065V31H255.858V26.8452C255.858 26.4389 255.751 26.142 255.535 25.9545C255.319 25.7642 255.055 25.669 254.742 25.669C254.37 25.669 254.079 25.7855 253.868 26.0185C253.661 26.2486 253.557 26.5483 253.557 26.9176V31H252.045V26.7812C252.045 26.4432 251.942 26.1733 251.738 25.9716C251.536 25.7699 251.272 25.669 250.945 25.669C250.724 25.669 250.522 25.7259 250.34 25.8395C250.158 25.9503 250.013 26.108 249.905 26.3125C249.797 26.5142 249.743 26.75 249.743 27.0199V31H248.201ZM258.97 31V24.4545H260.445V25.5668H260.521C260.658 25.1918 260.884 24.8991 261.199 24.6889C261.514 24.4759 261.891 24.3693 262.328 24.3693C262.771 24.3693 263.145 24.4773 263.449 24.6932C263.756 24.9062 263.972 25.1974 264.097 25.5668H264.165C264.31 25.2031 264.554 24.9134 264.898 24.6974C265.244 24.4787 265.655 24.3693 266.129 24.3693C266.732 24.3693 267.223 24.5597 267.604 24.9403C267.985 25.321 268.175 25.8764 268.175 26.6065V31H266.628V26.8452C266.628 26.4389 266.52 26.142 266.304 25.9545C266.088 25.7642 265.824 25.669 265.512 25.669C265.139 25.669 264.848 25.7855 264.638 26.0185C264.431 26.2486 264.327 26.5483 264.327 26.9176V31H262.814V26.7812C262.814 26.4432 262.712 26.1733 262.507 25.9716C262.306 25.7699 262.041 25.669 261.715 25.669C261.493 25.669 261.291 25.7259 261.11 25.8395C260.928 25.9503 260.783 26.108 260.675 26.3125C260.567 26.5142 260.513 26.75 260.513 27.0199V31H258.97ZM272.638 31.1278C271.981 31.1278 271.415 30.9915 270.937 30.7188C270.463 30.4432 270.098 30.054 269.842 29.5511C269.586 29.0455 269.459 28.4503 269.459 27.7656C269.459 27.0923 269.586 26.5014 269.842 25.9929C270.101 25.4815 270.461 25.0838 270.925 24.7997C271.388 24.5128 271.932 24.3693 272.557 24.3693C272.96 24.3693 273.341 24.4347 273.699 24.5653C274.059 24.6932 274.378 24.892 274.653 25.1619C274.932 25.4318 275.15 25.7756 275.309 26.1932C275.469 26.608 275.548 27.1023 275.548 27.6761V28.1491H270.183V27.1094H274.069C274.067 26.8139 274.003 26.5511 273.878 26.321C273.753 26.0881 273.578 25.9048 273.354 25.7713C273.132 25.6378 272.873 25.571 272.578 25.571C272.263 25.571 271.986 25.6477 271.747 25.8011C271.508 25.9517 271.322 26.1506 271.189 26.3977C271.058 26.642 270.991 26.9105 270.988 27.2031V28.1108C270.988 28.4915 271.058 28.8182 271.197 29.0909C271.336 29.3608 271.531 29.5682 271.781 29.7131C272.031 29.8551 272.324 29.9261 272.659 29.9261C272.883 29.9261 273.086 29.8949 273.268 29.8324C273.45 29.767 273.608 29.6719 273.741 29.5469C273.875 29.4219 273.976 29.267 274.044 29.0824L275.484 29.2443C275.393 29.625 275.22 29.9574 274.964 30.2415C274.711 30.5227 274.388 30.7415 273.993 30.8977C273.598 31.0511 273.146 31.1278 272.638 31.1278ZM278.396 27.1648V31H276.853V24.4545H278.328V25.5668H278.404C278.555 25.2003 278.795 24.9091 279.124 24.6932C279.457 24.4773 279.867 24.3693 280.356 24.3693C280.808 24.3693 281.201 24.4659 281.536 24.6591C281.874 24.8523 282.136 25.1321 282.32 25.4986C282.508 25.8651 282.6 26.3097 282.597 26.8324V31H281.055V27.071C281.055 26.6335 280.941 26.2912 280.714 26.044C280.49 25.7969 280.178 25.6733 279.781 25.6733C279.511 25.6733 279.271 25.733 279.061 25.8523C278.853 25.9687 278.69 26.1378 278.57 26.3594C278.454 26.581 278.396 26.8494 278.396 27.1648ZM286.595 31.1151C286.08 31.1151 285.62 30.983 285.214 30.7188C284.808 30.4545 284.487 30.071 284.251 29.5682C284.015 29.0653 283.897 28.4545 283.897 27.7358C283.897 27.0085 284.017 26.3949 284.255 25.8949C284.497 25.392 284.822 25.0128 285.231 24.7571C285.64 24.4986 286.096 24.3693 286.599 24.3693C286.982 24.3693 287.298 24.4347 287.545 24.5653C287.792 24.6932 287.988 24.848 288.133 25.0298C288.278 25.2088 288.39 25.3778 288.47 25.5369H288.534V22.2727H290.08V31H288.563V29.9688H288.47C288.39 30.1278 288.275 30.2969 288.124 30.4759C287.974 30.652 287.775 30.8026 287.528 30.9276C287.281 31.0526 286.97 31.1151 286.595 31.1151ZM287.025 29.8494C287.352 29.8494 287.63 29.7614 287.86 29.5852C288.09 29.4062 288.265 29.1577 288.384 28.8395C288.504 28.5213 288.563 28.1506 288.563 27.7273C288.563 27.304 288.504 26.9361 288.384 26.6236C288.268 26.3111 288.095 26.0682 287.865 25.8949C287.637 25.7216 287.357 25.6349 287.025 25.6349C286.681 25.6349 286.394 25.7244 286.164 25.9034C285.934 26.0824 285.761 26.3295 285.644 26.6449C285.528 26.9602 285.47 27.321 285.47 27.7273C285.47 28.1364 285.528 28.5014 285.644 28.8224C285.764 29.1406 285.938 29.392 286.169 29.5767C286.401 29.7585 286.687 29.8494 287.025 29.8494ZM293.608 31.1321C293.193 31.1321 292.819 31.0582 292.487 30.9105C292.157 30.7599 291.896 30.5384 291.703 30.2457C291.513 29.9531 291.417 29.5923 291.417 29.1634C291.417 28.794 291.486 28.4886 291.622 28.2472C291.758 28.0057 291.944 27.8125 292.18 27.6676C292.416 27.5227 292.682 27.4134 292.977 27.3395C293.275 27.2628 293.584 27.2074 293.902 27.1733C294.285 27.1335 294.596 27.098 294.835 27.0668C295.074 27.0327 295.247 26.9815 295.355 26.9134C295.466 26.8423 295.521 26.733 295.521 26.5852V26.5597C295.521 26.2386 295.426 25.9901 295.236 25.8139C295.045 25.6378 294.771 25.5497 294.413 25.5497C294.035 25.5497 293.736 25.6321 293.514 25.7969C293.295 25.9616 293.148 26.1562 293.071 26.3807L291.631 26.1761C291.744 25.7784 291.932 25.446 292.193 25.179C292.454 24.9091 292.774 24.7074 293.152 24.5739C293.53 24.4375 293.947 24.3693 294.405 24.3693C294.72 24.3693 295.034 24.4062 295.346 24.4801C295.659 24.554 295.944 24.6761 296.203 24.8466C296.461 25.0142 296.669 25.2429 296.825 25.5327C296.984 25.8224 297.064 26.1847 297.064 26.6193V31H295.581V30.1009H295.53C295.436 30.2827 295.304 30.4531 295.133 30.6122C294.966 30.7685 294.754 30.8949 294.498 30.9915C294.246 31.0852 293.949 31.1321 293.608 31.1321ZM294.008 29.9986C294.318 29.9986 294.586 29.9375 294.814 29.8153C295.041 29.6903 295.216 29.5256 295.338 29.321C295.463 29.1165 295.525 28.8935 295.525 28.652V27.8807C295.477 27.9205 295.395 27.9574 295.278 27.9915C295.165 28.0256 295.037 28.0554 294.895 28.081C294.753 28.1065 294.612 28.1293 294.473 28.1491C294.334 28.169 294.213 28.1861 294.111 28.2003C293.881 28.2315 293.675 28.2827 293.493 28.3537C293.311 28.4247 293.167 28.5241 293.062 28.652C292.957 28.777 292.905 28.9389 292.905 29.1378C292.905 29.4219 293.008 29.6364 293.216 29.7812C293.423 29.9261 293.687 29.9986 294.008 29.9986ZM301.883 24.4545V25.6477H298.121V24.4545H301.883ZM299.05 22.8864H300.592V29.0312C300.592 29.2386 300.623 29.3977 300.686 29.5085C300.751 29.6165 300.836 29.6903 300.942 29.7301C301.047 29.7699 301.163 29.7898 301.291 29.7898C301.388 29.7898 301.476 29.7827 301.555 29.7685C301.638 29.7543 301.7 29.7415 301.743 29.7301L302.003 30.9361C301.92 30.9645 301.802 30.9957 301.649 31.0298C301.498 31.0639 301.314 31.0838 301.095 31.0895C300.709 31.1009 300.361 31.0426 300.051 30.9148C299.741 30.7841 299.496 30.5824 299.314 30.3097C299.135 30.0369 299.047 29.696 299.05 29.2869V22.8864ZM303.173 31V24.4545H304.716V31H303.173ZM303.949 23.5256C303.705 23.5256 303.494 23.4446 303.318 23.2827C303.142 23.1179 303.054 22.9205 303.054 22.6903C303.054 22.4574 303.142 22.2599 303.318 22.098C303.494 21.9332 303.705 21.8509 303.949 21.8509C304.196 21.8509 304.406 21.9332 304.58 22.098C304.756 22.2599 304.844 22.4574 304.844 22.6903C304.844 22.9205 304.756 23.1179 304.58 23.2827C304.406 23.4446 304.196 23.5256 303.949 23.5256ZM309.157 31.1278C308.518 31.1278 307.964 30.9872 307.496 30.706C307.027 30.4247 306.663 30.0312 306.405 29.5256C306.149 29.0199 306.021 28.429 306.021 27.7528C306.021 27.0767 306.149 26.4844 306.405 25.9759C306.663 25.4673 307.027 25.0724 307.496 24.7912C307.964 24.5099 308.518 24.3693 309.157 24.3693C309.797 24.3693 310.351 24.5099 310.819 24.7912C311.288 25.0724 311.65 25.4673 311.906 25.9759C312.165 26.4844 312.294 27.0767 312.294 27.7528C312.294 28.429 312.165 29.0199 311.906 29.5256C311.65 30.0312 311.288 30.4247 310.819 30.706C310.351 30.9872 309.797 31.1278 309.157 31.1278ZM309.166 29.892C309.513 29.892 309.802 29.7969 310.035 29.6065C310.268 29.4134 310.442 29.1548 310.555 28.831C310.672 28.5071 310.73 28.1463 310.73 27.7486C310.73 27.348 310.672 26.9858 310.555 26.6619C310.442 26.3352 310.268 26.0753 310.035 25.8821C309.802 25.6889 309.513 25.5923 309.166 25.5923C308.811 25.5923 308.515 25.6889 308.28 25.8821C308.047 26.0753 307.872 26.3352 307.756 26.6619C307.642 26.9858 307.585 27.348 307.585 27.7486C307.585 28.1463 307.642 28.5071 307.756 28.831C307.872 29.1548 308.047 29.4134 308.28 29.6065C308.515 29.7969 308.811 29.892 309.166 29.892ZM315.146 27.1648V31H313.603V24.4545H315.078V25.5668H315.154C315.305 25.2003 315.545 24.9091 315.874 24.6932C316.207 24.4773 316.617 24.3693 317.106 24.3693C317.558 24.3693 317.951 24.4659 318.286 24.6591C318.624 24.8523 318.886 25.1321 319.07 25.4986C319.258 25.8651 319.35 26.3097 319.347 26.8324V31H317.805V27.071C317.805 26.6335 317.691 26.2912 317.464 26.044C317.24 25.7969 316.928 25.6733 316.531 25.6733C316.261 25.6733 316.021 25.733 315.811 25.8523C315.603 25.9687 315.44 26.1378 315.32 26.3594C315.204 26.581 315.146 26.8494 315.146 27.1648ZM326.089 26.1847L324.683 26.3381C324.643 26.196 324.573 26.0625 324.474 25.9375C324.377 25.8125 324.247 25.7116 324.082 25.6349C323.917 25.5582 323.715 25.5199 323.477 25.5199C323.156 25.5199 322.886 25.5895 322.667 25.7287C322.451 25.8679 322.345 26.0483 322.347 26.2699C322.345 26.4602 322.414 26.6151 322.556 26.7344C322.701 26.8537 322.94 26.9517 323.272 27.0284L324.389 27.267C325.008 27.4006 325.468 27.6122 325.769 27.902C326.073 28.1918 326.227 28.571 326.23 29.0398C326.227 29.4517 326.106 29.8153 325.867 30.1307C325.632 30.4432 325.303 30.6875 324.883 30.8636C324.463 31.0398 323.98 31.1278 323.434 31.1278C322.633 31.1278 321.988 30.9602 321.499 30.625C321.011 30.2869 320.72 29.8168 320.626 29.2145L322.13 29.0696C322.198 29.3651 322.343 29.5881 322.565 29.7386C322.786 29.8892 323.075 29.9645 323.43 29.9645C323.796 29.9645 324.09 29.8892 324.312 29.7386C324.536 29.5881 324.649 29.402 324.649 29.1804C324.649 28.9929 324.576 28.8381 324.431 28.7159C324.289 28.5937 324.068 28.5 323.767 28.4347L322.65 28.2003C322.022 28.0696 321.558 27.8494 321.257 27.5398C320.955 27.2273 320.806 26.8324 320.809 26.3551C320.806 25.9517 320.916 25.6023 321.137 25.3068C321.362 25.0085 321.673 24.7784 322.07 24.6165C322.471 24.4517 322.933 24.3693 323.455 24.3693C324.222 24.3693 324.826 24.5327 325.267 24.8594C325.71 25.1861 325.984 25.6278 326.089 26.1847Z" fill="#333333"/>
<path d="M340.928 23L344.958 26.8116C344.984 26.8363 345.005 26.8657 345.019 26.898C345.033 26.9303 345.041 26.965 345.041 27C345.041 27.035 345.033 27.0697 345.019 27.102C345.005 27.1343 344.984 27.1637 344.958 27.1884L340.928 31" stroke="#333333" stroke-linecap="round" stroke-linejoin="round"/>
<rect x="354.295" y="43" width="113.108" height="1" rx="0.5" fill="#FF7336"/>
<path d="M361.002 25.0597C360.931 24.8295 360.833 24.6236 360.708 24.4418C360.586 24.2571 360.438 24.0994 360.265 23.9688C360.095 23.8381 359.899 23.7401 359.677 23.6747C359.455 23.6065 359.214 23.5724 358.953 23.5724C358.484 23.5724 358.066 23.6903 357.7 23.9261C357.333 24.1619 357.045 24.5085 356.835 24.9659C356.627 25.4205 356.524 25.9744 356.524 26.6278C356.524 27.2869 356.627 27.8452 356.835 28.3026C357.042 28.7599 357.33 29.108 357.7 29.3466C358.069 29.5824 358.498 29.7003 358.987 29.7003C359.43 29.7003 359.813 29.6151 360.137 29.4446C360.464 29.2741 360.715 29.0327 360.892 28.7202C361.068 28.4048 361.156 28.0355 361.156 27.6122L361.514 27.6676H359.144V26.4318H362.686V27.4801C362.686 28.2273 362.526 28.8736 362.208 29.419C361.89 29.9645 361.453 30.3849 360.896 30.6804C360.339 30.973 359.7 31.1193 358.978 31.1193C358.174 31.1193 357.468 30.9389 356.86 30.5781C356.255 30.2145 355.782 29.6989 355.441 29.0312C355.103 28.3608 354.934 27.5653 354.934 26.6449C354.934 25.9403 355.034 25.3111 355.232 24.7571C355.434 24.2031 355.715 23.733 356.076 23.3466C356.437 22.9574 356.86 22.6619 357.346 22.4602C357.832 22.2557 358.36 22.1534 358.931 22.1534C359.414 22.1534 359.865 22.2244 360.282 22.3665C360.7 22.5057 361.07 22.7045 361.394 22.9631C361.721 23.2216 361.99 23.5284 362.2 23.8835C362.41 24.2386 362.548 24.6307 362.613 25.0597H361.002ZM364.146 31V24.4545H365.642V25.5455H365.71C365.829 25.1676 366.034 24.8764 366.324 24.6719C366.616 24.4645 366.95 24.3608 367.325 24.3608C367.41 24.3608 367.506 24.3651 367.611 24.3736C367.719 24.3793 367.808 24.3892 367.879 24.4034V25.8224C367.814 25.7997 367.71 25.7798 367.568 25.7628C367.429 25.7429 367.294 25.733 367.163 25.733C366.882 25.733 366.629 25.794 366.405 25.9162C366.183 26.0355 366.008 26.2017 365.881 26.4148C365.753 26.6278 365.689 26.8736 365.689 27.152V31H364.146ZM371.49 31.1278C370.85 31.1278 370.296 30.9872 369.828 30.706C369.359 30.4247 368.995 30.0312 368.737 29.5256C368.481 29.0199 368.353 28.429 368.353 27.7528C368.353 27.0767 368.481 26.4844 368.737 25.9759C368.995 25.4673 369.359 25.0724 369.828 24.7912C370.296 24.5099 370.85 24.3693 371.49 24.3693C372.129 24.3693 372.683 24.5099 373.151 24.7912C373.62 25.0724 373.982 25.4673 374.238 25.9759C374.497 26.4844 374.626 27.0767 374.626 27.7528C374.626 28.429 374.497 29.0199 374.238 29.5256C373.982 30.0312 373.62 30.4247 373.151 30.706C372.683 30.9872 372.129 31.1278 371.49 31.1278ZM371.498 29.892C371.845 29.892 372.134 29.7969 372.367 29.6065C372.6 29.4134 372.774 29.1548 372.887 28.831C373.004 28.5071 373.062 28.1463 373.062 27.7486C373.062 27.348 373.004 26.9858 372.887 26.6619C372.774 26.3352 372.6 26.0753 372.367 25.8821C372.134 25.6889 371.845 25.5923 371.498 25.5923C371.143 25.5923 370.847 25.6889 370.612 25.8821C370.379 26.0753 370.204 26.3352 370.088 26.6619C369.974 26.9858 369.917 27.348 369.917 27.7486C369.917 28.1463 369.974 28.5071 370.088 28.831C370.204 29.1548 370.379 29.4134 370.612 29.6065C370.847 29.7969 371.143 29.892 371.498 29.892ZM380.107 28.2472V24.4545H381.65V31H380.154V29.8366H380.086C379.938 30.2031 379.695 30.5028 379.357 30.7358C379.022 30.9687 378.608 31.0852 378.117 31.0852C377.688 31.0852 377.309 30.9901 376.979 30.7997C376.653 30.6065 376.397 30.3267 376.212 29.9602C376.028 29.5909 375.935 29.1449 375.935 28.6222V24.4545H377.478V28.3835C377.478 28.7983 377.591 29.1278 377.819 29.3722C378.046 29.6165 378.344 29.7386 378.714 29.7386C378.941 29.7386 379.161 29.6832 379.374 29.5724C379.587 29.4616 379.762 29.2969 379.898 29.0781C380.037 28.8565 380.107 28.5795 380.107 28.2472ZM383.236 33.4545V24.4545H384.753V25.5369H384.843C384.922 25.3778 385.034 25.2088 385.179 25.0298C385.324 24.848 385.52 24.6932 385.767 24.5653C386.014 24.4347 386.33 24.3693 386.713 24.3693C387.219 24.3693 387.675 24.4986 388.081 24.7571C388.49 25.0128 388.814 25.392 389.053 25.8949C389.294 26.3949 389.415 27.0085 389.415 27.7358C389.415 28.4545 389.297 29.0653 389.061 29.5682C388.825 30.071 388.504 30.4545 388.098 30.7188C387.692 30.983 387.232 31.1151 386.718 31.1151C386.343 31.1151 386.031 31.0526 385.784 30.9276C385.537 30.8026 385.338 30.652 385.188 30.4759C385.04 30.2969 384.925 30.1278 384.843 29.9688H384.779V33.4545H383.236ZM384.749 27.7273C384.749 28.1506 384.808 28.5213 384.928 28.8395C385.05 29.1577 385.225 29.4062 385.452 29.5852C385.682 29.7614 385.96 29.8494 386.287 29.8494C386.628 29.8494 386.914 29.7585 387.144 29.5767C387.374 29.392 387.547 29.1406 387.664 28.8224C387.783 28.5014 387.843 28.1364 387.843 27.7273C387.843 27.321 387.784 26.9602 387.668 26.6449C387.551 26.3295 387.378 26.0824 387.148 25.9034C386.918 25.7244 386.631 25.6349 386.287 25.6349C385.958 25.6349 385.678 25.7216 385.448 25.8949C385.218 26.0682 385.043 26.3111 384.923 26.6236C384.807 26.9361 384.749 27.304 384.749 27.7273ZM401.251 25.2173H399.657C399.612 24.956 399.528 24.7244 399.406 24.5227C399.284 24.3182 399.132 24.1449 398.95 24.0028C398.768 23.8608 398.561 23.7543 398.328 23.6832C398.097 23.6094 397.849 23.5724 397.582 23.5724C397.107 23.5724 396.687 23.6918 396.32 23.9304C395.954 24.1662 395.667 24.5128 395.46 24.9702C395.252 25.4247 395.149 25.9801 395.149 26.6364C395.149 27.304 395.252 27.8665 395.46 28.3239C395.67 28.7784 395.957 29.1222 396.32 29.3551C396.687 29.5852 397.106 29.7003 397.578 29.7003C397.839 29.7003 398.083 29.6662 398.311 29.598C398.541 29.527 398.747 29.4233 398.928 29.2869C399.113 29.1506 399.268 28.983 399.393 28.7841C399.521 28.5852 399.609 28.358 399.657 28.1023L401.251 28.1108C401.191 28.5256 401.062 28.9148 400.863 29.2784C400.667 29.642 400.41 29.9631 400.092 30.2415C399.774 30.517 399.401 30.733 398.975 30.8892C398.549 31.0426 398.076 31.1193 397.556 31.1193C396.789 31.1193 396.105 30.9418 395.502 30.5866C394.9 30.2315 394.426 29.7188 394.079 29.0483C393.732 28.3778 393.559 27.5739 393.559 26.6364C393.559 25.696 393.734 24.892 394.083 24.2244C394.433 23.554 394.909 23.0412 395.511 22.6861C396.113 22.331 396.795 22.1534 397.556 22.1534C398.042 22.1534 398.494 22.2216 398.911 22.358C399.329 22.4943 399.701 22.6946 400.028 22.9588C400.355 23.2202 400.623 23.5412 400.833 23.9219C401.046 24.2997 401.186 24.7315 401.251 25.2173ZM405.486 31.1278C404.846 31.1278 404.292 30.9872 403.824 30.706C403.355 30.4247 402.991 30.0312 402.733 29.5256C402.477 29.0199 402.349 28.429 402.349 27.7528C402.349 27.0767 402.477 26.4844 402.733 25.9759C402.991 25.4673 403.355 25.0724 403.824 24.7912C404.292 24.5099 404.846 24.3693 405.486 24.3693C406.125 24.3693 406.679 24.5099 407.148 24.7912C407.616 25.0724 407.979 25.4673 408.234 25.9759C408.493 26.4844 408.622 27.0767 408.622 27.7528C408.622 28.429 408.493 29.0199 408.234 29.5256C407.979 30.0312 407.616 30.4247 407.148 30.706C406.679 30.9872 406.125 31.1278 405.486 31.1278ZM405.494 29.892C405.841 29.892 406.131 29.7969 406.363 29.6065C406.596 29.4134 406.77 29.1548 406.883 28.831C407 28.5071 407.058 28.1463 407.058 27.7486C407.058 27.348 407 26.9858 406.883 26.6619C406.77 26.3352 406.596 26.0753 406.363 25.8821C406.131 25.6889 405.841 25.5923 405.494 25.5923C405.139 25.5923 404.844 25.6889 404.608 25.8821C404.375 26.0753 404.2 26.3352 404.084 26.6619C403.97 26.9858 403.913 27.348 403.913 27.7486C403.913 28.1463 403.97 28.5071 404.084 28.831C404.2 29.1548 404.375 29.4134 404.608 29.6065C404.844 29.7969 405.139 29.892 405.494 29.892ZM409.931 31V24.4545H411.406V25.5668H411.482C411.619 25.1918 411.845 24.8991 412.16 24.6889C412.475 24.4759 412.852 24.3693 413.289 24.3693C413.732 24.3693 414.106 24.4773 414.41 24.6932C414.717 24.9062 414.933 25.1974 415.058 25.5668H415.126C415.271 25.2031 415.515 24.9134 415.859 24.6974C416.205 24.4787 416.616 24.3693 417.09 24.3693C417.693 24.3693 418.184 24.5597 418.565 24.9403C418.945 25.321 419.136 25.8764 419.136 26.6065V31H417.589V26.8452C417.589 26.4389 417.481 26.142 417.265 25.9545C417.049 25.7642 416.785 25.669 416.472 25.669C416.1 25.669 415.809 25.7855 415.599 26.0185C415.392 26.2486 415.288 26.5483 415.288 26.9176V31H413.775V26.7812C413.775 26.4432 413.673 26.1733 413.468 25.9716C413.267 25.7699 413.002 25.669 412.676 25.669C412.454 25.669 412.252 25.7259 412.07 25.8395C411.889 25.9503 411.744 26.108 411.636 26.3125C411.528 26.5142 411.474 26.75 411.474 27.0199V31H409.931ZM420.701 33.4545V24.4545H422.218V25.5369H422.307C422.387 25.3778 422.499 25.2088 422.644 25.0298C422.789 24.848 422.985 24.6932 423.232 24.5653C423.479 24.4347 423.795 24.3693 424.178 24.3693C424.684 24.3693 425.14 24.4986 425.546 24.7571C425.955 25.0128 426.279 25.392 426.518 25.8949C426.759 26.3949 426.88 27.0085 426.88 27.7358C426.88 28.4545 426.762 29.0653 426.526 29.5682C426.29 30.071 425.969 30.4545 425.563 30.7188C425.157 30.983 424.697 31.1151 424.182 31.1151C423.807 31.1151 423.496 31.0526 423.249 30.9276C423.002 30.8026 422.803 30.652 422.653 30.4759C422.505 30.2969 422.39 30.1278 422.307 29.9688H422.243V33.4545H420.701ZM422.214 27.7273C422.214 28.1506 422.273 28.5213 422.393 28.8395C422.515 29.1577 422.689 29.4062 422.917 29.5852C423.147 29.7614 423.425 29.8494 423.752 29.8494C424.093 29.8494 424.378 29.7585 424.608 29.5767C424.839 29.392 425.012 29.1406 425.128 28.8224C425.248 28.5014 425.307 28.1364 425.307 27.7273C425.307 27.321 425.249 26.9602 425.133 26.6449C425.016 26.3295 424.843 26.0824 424.613 25.9034C424.383 25.7244 424.096 25.6349 423.752 25.6349C423.422 25.6349 423.143 25.7216 422.912 25.8949C422.682 26.0682 422.508 26.3111 422.388 26.6236C422.272 26.9361 422.214 27.304 422.214 27.7273ZM430.084 31.1321C429.67 31.1321 429.296 31.0582 428.964 30.9105C428.634 30.7599 428.373 30.5384 428.18 30.2457C427.989 29.9531 427.894 29.5923 427.894 29.1634C427.894 28.794 427.962 28.4886 428.099 28.2472C428.235 28.0057 428.421 27.8125 428.657 27.6676C428.893 27.5227 429.158 27.4134 429.454 27.3395C429.752 27.2628 430.06 27.2074 430.378 27.1733C430.762 27.1335 431.073 27.098 431.312 27.0668C431.55 27.0327 431.724 26.9815 431.831 26.9134C431.942 26.8423 431.998 26.733 431.998 26.5852V26.5597C431.998 26.2386 431.903 25.9901 431.712 25.8139C431.522 25.6378 431.248 25.5497 430.89 25.5497C430.512 25.5497 430.212 25.6321 429.991 25.7969C429.772 25.9616 429.624 26.1562 429.547 26.3807L428.107 26.1761C428.221 25.7784 428.408 25.446 428.67 25.179C428.931 24.9091 429.251 24.7074 429.628 24.5739C430.006 24.4375 430.424 24.3693 430.881 24.3693C431.197 24.3693 431.51 24.4062 431.823 24.4801C432.135 24.554 432.421 24.6761 432.68 24.8466C432.938 25.0142 433.145 25.2429 433.302 25.5327C433.461 25.8224 433.54 26.1847 433.54 26.6193V31H432.057V30.1009H432.006C431.912 30.2827 431.78 30.4531 431.61 30.6122C431.442 30.7685 431.231 30.8949 430.975 30.9915C430.722 31.0852 430.425 31.1321 430.084 31.1321ZM430.485 29.9986C430.795 29.9986 431.063 29.9375 431.29 29.8153C431.518 29.6903 431.692 29.5256 431.814 29.321C431.939 29.1165 432.002 28.8935 432.002 28.652V27.8807C431.954 27.9205 431.871 27.9574 431.755 27.9915C431.641 28.0256 431.513 28.0554 431.371 28.081C431.229 28.1065 431.089 28.1293 430.949 28.1491C430.81 28.169 430.689 28.1861 430.587 28.2003C430.357 28.2315 430.151 28.2827 429.969 28.3537C429.787 28.4247 429.644 28.5241 429.539 28.652C429.434 28.777 429.381 28.9389 429.381 29.1378C429.381 29.4219 429.485 29.6364 429.692 29.7812C429.9 29.9261 430.164 29.9986 430.485 29.9986ZM435.091 31V24.4545H436.587V25.5455H436.655C436.775 25.1676 436.979 24.8764 437.269 24.6719C437.562 24.4645 437.895 24.3608 438.27 24.3608C438.356 24.3608 438.451 24.3651 438.556 24.3736C438.664 24.3793 438.753 24.3892 438.824 24.4034V25.8224C438.759 25.7997 438.655 25.7798 438.513 25.7628C438.374 25.7429 438.239 25.733 438.108 25.733C437.827 25.733 437.574 25.794 437.35 25.9162C437.128 26.0355 436.954 26.2017 436.826 26.4148C436.698 26.6278 436.634 26.8736 436.634 27.152V31H435.091ZM439.849 31V24.4545H441.392V31H439.849ZM440.625 23.5256C440.381 23.5256 440.17 23.4446 439.994 23.2827C439.818 23.1179 439.73 22.9205 439.73 22.6903C439.73 22.4574 439.818 22.2599 439.994 22.098C440.17 21.9332 440.381 21.8509 440.625 21.8509C440.872 21.8509 441.082 21.9332 441.256 22.098C441.432 22.2599 441.52 22.4574 441.52 22.6903C441.52 22.9205 441.432 23.1179 441.256 23.2827C441.082 23.4446 440.872 23.5256 440.625 23.5256ZM448.151 26.1847L446.745 26.3381C446.705 26.196 446.636 26.0625 446.536 25.9375C446.44 25.8125 446.309 25.7116 446.144 25.6349C445.98 25.5582 445.778 25.5199 445.539 25.5199C445.218 25.5199 444.948 25.5895 444.73 25.7287C444.514 25.8679 444.407 26.0483 444.41 26.2699C444.407 26.4602 444.477 26.6151 444.619 26.7344C444.764 26.8537 445.002 26.9517 445.335 27.0284L446.451 27.267C447.07 27.4006 447.531 27.6122 447.832 27.902C448.136 28.1918 448.289 28.571 448.292 29.0398C448.289 29.4517 448.169 29.8153 447.93 30.1307C447.694 30.4432 447.366 30.6875 446.945 30.8636C446.525 31.0398 446.042 31.1278 445.497 31.1278C444.695 31.1278 444.051 30.9602 443.562 30.625C443.073 30.2869 442.782 29.8168 442.688 29.2145L444.193 29.0696C444.261 29.3651 444.406 29.5881 444.627 29.7386C444.849 29.8892 445.137 29.9645 445.492 29.9645C445.859 29.9645 446.153 29.8892 446.374 29.7386C446.599 29.5881 446.711 29.402 446.711 29.1804C446.711 28.9929 446.639 28.8381 446.494 28.7159C446.352 28.5937 446.13 28.5 445.829 28.4347L444.713 28.2003C444.085 28.0696 443.62 27.8494 443.319 27.5398C443.018 27.2273 442.869 26.8324 442.872 26.3551C442.869 25.9517 442.978 25.6023 443.2 25.3068C443.424 25.0085 443.735 24.7784 444.133 24.6165C444.534 24.4517 444.995 24.3693 445.518 24.3693C446.285 24.3693 446.889 24.5327 447.329 24.8594C447.772 25.1861 448.046 25.6278 448.151 26.1847ZM452.419 31.1278C451.78 31.1278 451.226 30.9872 450.757 30.706C450.289 30.4247 449.925 30.0312 449.666 29.5256C449.411 29.0199 449.283 28.429 449.283 27.7528C449.283 27.0767 449.411 26.4844 449.666 25.9759C449.925 25.4673 450.289 25.0724 450.757 24.7912C451.226 24.5099 451.78 24.3693 452.419 24.3693C453.058 24.3693 453.612 24.5099 454.081 24.7912C454.55 25.0724 454.912 25.4673 455.168 25.9759C455.426 26.4844 455.556 27.0767 455.556 27.7528C455.556 28.429 455.426 29.0199 455.168 29.5256C454.912 30.0312 454.55 30.4247 454.081 30.706C453.612 30.9872 453.058 31.1278 452.419 31.1278ZM452.428 29.892C452.774 29.892 453.064 29.7969 453.297 29.6065C453.53 29.4134 453.703 29.1548 453.817 28.831C453.933 28.5071 453.992 28.1463 453.992 27.7486C453.992 27.348 453.933 26.9858 453.817 26.6619C453.703 26.3352 453.53 26.0753 453.297 25.8821C453.064 25.6889 452.774 25.5923 452.428 25.5923C452.073 25.5923 451.777 25.6889 451.541 25.8821C451.308 26.0753 451.134 26.3352 451.017 26.6619C450.904 26.9858 450.847 27.348 450.847 27.7486C450.847 28.1463 450.904 28.5071 451.017 28.831C451.134 29.1548 451.308 29.4134 451.541 29.6065C451.777 29.7969 452.073 29.892 452.428 29.892ZM458.407 27.1648V31H456.865V24.4545H458.339V25.5668H458.416C458.567 25.2003 458.807 24.9091 459.136 24.6932C459.469 24.4773 459.879 24.3693 460.368 24.3693C460.819 24.3693 461.213 24.4659 461.548 24.6591C461.886 24.8523 462.148 25.1321 462.332 25.4986C462.52 25.8651 462.612 26.3097 462.609 26.8324V31H461.067V27.071C461.067 26.6335 460.953 26.2912 460.726 26.044C460.501 25.7969 460.19 25.6733 459.792 25.6733C459.523 25.6733 459.282 25.733 459.072 25.8523C458.865 25.9687 458.702 26.1378 458.582 26.3594C458.466 26.581 458.407 26.8494 458.407 27.1648Z" fill="#FF7336"/>
<g clip-path="url(#clip0_1231_197)">
<path d="M1109.37 35.0374H1108.21L1111.58 26.1043H1112.73L1116.1 35.0374H1114.93L1112.19 27.5175H1112.12L1109.37 35.0374ZM1109.8 31.5479H1114.5V32.5075H1109.8V31.5479ZM1117.39 35.0374V28.3376H1118.41V29.3844H1118.5C1118.64 29.0267 1118.88 28.749 1119.2 28.5513C1119.52 28.3507 1119.9 28.2503 1120.35 28.2503C1120.8 28.2503 1121.18 28.3507 1121.48 28.5513C1121.79 28.749 1122.03 29.0267 1122.2 29.3844H1122.27C1122.44 29.0384 1122.71 28.7636 1123.06 28.56C1123.41 28.3536 1123.84 28.2503 1124.33 28.2503C1124.95 28.2503 1125.45 28.4379 1125.84 28.813C1126.23 29.1852 1126.43 29.7654 1126.43 30.5534V35.0374H1125.37V30.5534C1125.37 30.059 1125.23 29.7057 1124.95 29.4935C1124.68 29.2812 1124.35 29.175 1123.97 29.175C1123.49 29.175 1123.11 29.3175 1122.85 29.6025C1122.58 29.8846 1122.45 30.2423 1122.45 30.6755V35.0374H1121.37V30.4487C1121.37 30.0678 1121.24 29.761 1120.99 29.5284C1120.74 29.2928 1120.41 29.175 1120.01 29.175C1119.73 29.175 1119.48 29.2463 1119.24 29.3888C1119 29.5313 1118.81 29.729 1118.66 29.982C1118.52 30.2321 1118.45 30.5214 1118.45 30.85V35.0374H1117.39ZM1128.37 37.5498V28.3376H1129.39V29.4019H1129.51C1129.59 29.2855 1129.7 29.1373 1129.84 28.957C1129.98 28.7738 1130.18 28.6109 1130.44 28.4684C1130.7 28.323 1131.06 28.2503 1131.5 28.2503C1132.09 28.2503 1132.6 28.3914 1133.04 28.6734C1133.48 28.9555 1133.83 29.3553 1134.07 29.8729C1134.32 30.3906 1134.45 31.0012 1134.45 31.7049C1134.45 32.4145 1134.32 33.0295 1134.07 33.55C1133.83 34.0676 1133.48 34.4689 1133.04 34.7539C1132.6 35.036 1132.1 35.177 1131.52 35.177C1131.08 35.177 1130.73 35.1057 1130.46 34.9632C1130.19 34.8179 1129.99 34.6536 1129.85 34.4704C1129.7 34.2843 1129.59 34.1301 1129.51 34.008H1129.42V37.5498H1128.37ZM1129.41 31.6875C1129.41 32.1935 1129.48 32.6398 1129.63 33.0266C1129.79 33.4104 1130.01 33.7114 1130.3 33.9295C1130.6 34.1447 1130.95 34.2523 1131.38 34.2523C1131.82 34.2523 1132.19 34.1389 1132.49 33.912C1132.79 33.6823 1133.01 33.3741 1133.16 32.9873C1133.31 32.5977 1133.39 32.1644 1133.39 31.6875C1133.39 31.2164 1133.31 30.7918 1133.16 30.4138C1133.02 30.0329 1132.8 29.7319 1132.5 29.5109C1132.2 29.287 1131.83 29.175 1131.38 29.175C1130.95 29.175 1130.59 29.2812 1130.29 29.4935C1130 29.7028 1129.78 29.9965 1129.63 30.3746C1129.48 30.7497 1129.41 31.1873 1129.41 31.6875ZM1137.12 26.1043V35.0374H1136.06V26.1043H1137.12ZM1139.06 35.0374V28.3376H1140.12V35.0374H1139.06ZM1139.6 27.2209C1139.39 27.2209 1139.21 27.1526 1139.06 27.0159C1138.92 26.8793 1138.84 26.715 1138.84 26.523C1138.84 26.3311 1138.92 26.1668 1139.06 26.0302C1139.21 25.8935 1139.39 25.8251 1139.6 25.8251C1139.8 25.8251 1139.98 25.8935 1140.13 26.0302C1140.28 26.1668 1140.35 26.3311 1140.35 26.523C1140.35 26.715 1140.28 26.8793 1140.13 27.0159C1139.98 27.1526 1139.8 27.2209 1139.6 27.2209ZM1145.12 28.3376V29.2099H1141.41V28.3376H1145.12ZM1142.52 35.0374V27.4128C1142.52 27.029 1142.62 26.7091 1142.8 26.4532C1142.99 26.1974 1143.23 26.0054 1143.52 25.8775C1143.82 25.7495 1144.13 25.6855 1144.46 25.6855C1144.72 25.6855 1144.93 25.7059 1145.1 25.7466C1145.26 25.7873 1145.38 25.8251 1145.46 25.86L1145.16 26.7498C1145.11 26.7324 1145.03 26.7106 1144.94 26.6844C1144.84 26.6583 1144.72 26.6452 1144.57 26.6452C1144.22 26.6452 1143.97 26.7309 1143.81 26.9025C1143.66 27.0741 1143.58 27.3256 1143.58 27.6571V35.0374H1142.52ZM1146.61 35.0374V28.3376H1147.67V35.0374H1146.61ZM1147.15 27.2209C1146.94 27.2209 1146.76 27.1526 1146.61 27.0159C1146.47 26.8793 1146.39 26.715 1146.39 26.523C1146.39 26.3311 1146.47 26.1668 1146.61 26.0302C1146.76 25.8935 1146.94 25.8251 1147.15 25.8251C1147.35 25.8251 1147.53 25.8935 1147.67 26.0302C1147.82 26.1668 1147.9 26.3311 1147.9 26.523C1147.9 26.715 1147.82 26.8793 1147.67 27.0159C1147.53 27.1526 1147.35 27.2209 1147.15 27.2209ZM1152.49 35.177C1151.83 35.177 1151.26 35.0345 1150.78 34.7495C1150.3 34.4616 1149.93 34.0603 1149.67 33.5456C1149.41 33.028 1149.28 32.4261 1149.28 31.7398C1149.28 31.0536 1149.41 30.4487 1149.67 29.9253C1149.93 29.399 1150.29 28.9889 1150.75 28.6952C1151.22 28.3986 1151.76 28.2503 1152.39 28.2503C1152.74 28.2503 1153.1 28.3085 1153.45 28.4248C1153.8 28.5411 1154.12 28.7301 1154.4 28.9919C1154.69 29.2506 1154.92 29.5938 1155.09 30.0213C1155.26 30.4487 1155.35 30.9751 1155.35 31.6002V32.0364H1150.04V31.1466H1154.27C1154.27 30.7686 1154.19 30.4313 1154.04 30.1347C1153.88 29.8381 1153.67 29.604 1153.38 29.4324C1153.1 29.2608 1152.77 29.175 1152.39 29.175C1151.96 29.175 1151.6 29.2768 1151.29 29.4804C1150.99 29.681 1150.75 29.9427 1150.59 30.2655C1150.42 30.5883 1150.34 30.9343 1150.34 31.3036V31.8969C1150.34 32.4028 1150.43 32.8317 1150.61 33.1836C1150.79 33.5326 1151.04 33.7986 1151.37 33.9818C1151.69 34.1621 1152.07 34.2523 1152.49 34.2523C1152.77 34.2523 1153.02 34.2145 1153.25 34.1389C1153.47 34.0604 1153.67 33.944 1153.83 33.7899C1154 33.6329 1154.13 33.438 1154.22 33.2054L1155.24 33.4846C1155.13 33.8219 1154.95 34.1185 1154.7 34.3744C1154.44 34.6274 1154.13 34.8251 1153.75 34.9676C1153.38 35.1072 1152.96 35.177 1152.49 35.177ZM1156.96 35.0374V28.3376H1157.98V29.3495H1158.05C1158.18 29.018 1158.4 28.749 1158.73 28.5426C1159.06 28.3361 1159.43 28.2329 1159.84 28.2329C1159.92 28.2329 1160.02 28.2343 1160.14 28.2373C1160.25 28.2402 1160.34 28.2445 1160.4 28.2503V29.2972C1160.36 29.2885 1160.28 29.2754 1160.15 29.2579C1160.03 29.2376 1159.89 29.2274 1159.75 29.2274C1159.42 29.2274 1159.12 29.2957 1158.86 29.4324C1158.6 29.5662 1158.39 29.7523 1158.24 29.9907C1158.09 30.2263 1158.01 30.4952 1158.01 30.7977V35.0374H1156.96Z" fill="#191919"/>
<path d="M1166.32 35.0376H1164.55L1167.78 26.1045H1169.84L1173.08 35.0376H1171.3L1168.85 27.9365H1168.77L1166.32 35.0376ZM1166.38 31.535H1171.23V32.8349H1166.38V31.535ZM1175.95 26.1045V35.0376H1174.29V26.1045H1175.95Z" fill="#FF6643"/>
<path d="M1103.49 32.1862C1103.49 37.9403 1098.69 42.6048 1092.77 42.6048C1086.86 42.6048 1082.06 37.9403 1082.06 32.1862C1082.06 26.4322 1086.86 21.7676 1092.77 21.7676C1098.69 21.7676 1103.49 26.4322 1103.49 32.1862Z" stroke="#191919" stroke-width="1.53538"/>
<path d="M1097.28 30.7277L1094.94 36.1149C1094.86 36.2905 1094.61 36.2942 1094.53 36.1208L1090.71 28.019C1090.63 27.8478 1090.38 27.8487 1090.3 28.0204L1086.68 35.8237" stroke="#191919" stroke-width="1.53538" stroke-linecap="round" stroke-linejoin="round"/>
<path d="M1097.96 29.3348C1098.46 29.3348 1098.86 28.942 1098.86 28.4574C1098.86 27.9729 1098.46 27.5801 1097.96 27.5801C1097.46 27.5801 1097.06 27.9729 1097.06 28.4574C1097.06 28.942 1097.46 29.3348 1097.96 29.3348Z" fill="#FF6643"/>
<path d="M1090.29 35.0374C1090.79 35.0374 1091.19 34.6446 1091.19 34.1601C1091.19 33.6755 1090.79 33.2827 1090.29 33.2827C1089.79 33.2827 1089.39 33.6755 1089.39 34.1601C1089.39 34.6446 1089.79 35.0374 1090.29 35.0374Z" fill="#191919"/>
</g>
<path d="M1005.21 35V26.2727H1008.16C1008.84 26.2727 1009.4 26.3963 1009.84 26.6435C1010.27 26.8878 1010.6 27.2188 1010.81 27.6364C1011.02 28.054 1011.12 28.5199 1011.12 29.0341C1011.12 29.5483 1011.02 30.0156 1010.81 30.4361C1010.6 30.8565 1010.28 31.1918 1009.85 31.4418C1009.41 31.6889 1008.85 31.8125 1008.18 31.8125H1006.06V30.875H1008.14C1008.61 30.875 1008.99 30.794 1009.27 30.6321C1009.55 30.4702 1009.76 30.2514 1009.89 29.9759C1010.02 29.6974 1010.08 29.3835 1010.08 29.0341C1010.08 28.6847 1010.02 28.3722 1009.89 28.0966C1009.76 27.821 1009.55 27.6051 1009.27 27.4489C1008.98 27.2898 1008.6 27.2102 1008.12 27.2102H1006.27V35H1005.21ZM1015.28 35.1364C1014.69 35.1364 1014.17 34.9957 1013.72 34.7145C1013.28 34.4332 1012.93 34.0398 1012.68 33.5341C1012.44 33.0284 1012.31 32.4375 1012.31 31.7614C1012.31 31.0795 1012.44 30.4844 1012.68 29.9759C1012.93 29.4673 1013.28 29.0724 1013.72 28.7912C1014.17 28.5099 1014.69 28.3693 1015.28 28.3693C1015.87 28.3693 1016.39 28.5099 1016.83 28.7912C1017.28 29.0724 1017.62 29.4673 1017.87 29.9759C1018.12 30.4844 1018.24 31.0795 1018.24 31.7614C1018.24 32.4375 1018.12 33.0284 1017.87 33.5341C1017.62 34.0398 1017.28 34.4332 1016.83 34.7145C1016.39 34.9957 1015.87 35.1364 1015.28 35.1364ZM1015.28 34.233C1015.73 34.233 1016.1 34.1179 1016.39 33.8878C1016.68 33.6577 1016.89 33.3551 1017.03 32.9801C1017.17 32.6051 1017.24 32.1989 1017.24 31.7614C1017.24 31.3239 1017.17 30.9162 1017.03 30.5384C1016.89 30.1605 1016.68 29.8551 1016.39 29.6222C1016.1 29.3892 1015.73 29.2727 1015.28 29.2727C1014.83 29.2727 1014.46 29.3892 1014.17 29.6222C1013.88 29.8551 1013.67 30.1605 1013.53 30.5384C1013.39 30.9162 1013.32 31.3239 1013.32 31.7614C1013.32 32.1989 1013.39 32.6051 1013.53 32.9801C1013.67 33.3551 1013.88 33.6577 1014.17 33.8878C1014.46 34.1179 1014.83 34.233 1015.28 34.233ZM1021.04 35L1019.05 28.4545H1020.1L1021.52 33.4659H1021.59L1022.98 28.4545H1024.06L1025.44 33.4489H1025.51L1026.92 28.4545H1027.98L1025.98 35H1024.99L1023.56 29.9716H1023.46L1022.03 35H1021.04ZM1031.83 35.1364C1031.2 35.1364 1030.65 34.9972 1030.2 34.7188C1029.74 34.4375 1029.39 34.0455 1029.14 33.5426C1028.9 33.0369 1028.78 32.4489 1028.78 31.7784C1028.78 31.108 1028.9 30.517 1029.14 30.0057C1029.39 29.4915 1029.74 29.0909 1030.18 28.804C1030.62 28.5142 1031.14 28.3693 1031.73 28.3693C1032.07 28.3693 1032.4 28.4261 1032.74 28.5398C1033.07 28.6534 1033.37 28.8381 1033.64 29.0938C1033.92 29.3466 1034.13 29.6818 1034.3 30.0994C1034.46 30.517 1034.54 31.0312 1034.54 31.642V32.0682H1029.49V31.1989H1033.52C1033.52 30.8295 1033.44 30.5 1033.29 30.2102C1033.15 29.9205 1032.94 29.6918 1032.67 29.5241C1032.41 29.3565 1032.09 29.2727 1031.73 29.2727C1031.33 29.2727 1030.98 29.3722 1030.69 29.571C1030.4 29.767 1030.17 30.0227 1030.02 30.3381C1029.86 30.6534 1029.78 30.9915 1029.78 31.3523V31.9318C1029.78 32.4261 1029.87 32.8452 1030.04 33.1889C1030.21 33.5298 1030.45 33.7898 1030.76 33.9688C1031.07 34.1449 1031.42 34.233 1031.83 34.233C1032.09 34.233 1032.33 34.196 1032.54 34.1222C1032.76 34.0455 1032.95 33.9318 1033.1 33.7812C1033.26 33.6278 1033.38 33.4375 1033.47 33.2102L1034.44 33.483C1034.33 33.8125 1034.16 34.1023 1033.92 34.3523C1033.68 34.5994 1033.38 34.7926 1033.03 34.9318C1032.67 35.0682 1032.27 35.1364 1031.83 35.1364ZM1036.07 35V28.4545H1037.04V29.4432H1037.11C1037.23 29.1193 1037.44 28.8565 1037.76 28.6548C1038.07 28.4531 1038.42 28.3523 1038.81 28.3523C1038.89 28.3523 1038.98 28.3537 1039.09 28.3565C1039.2 28.3594 1039.28 28.3636 1039.34 28.3693V29.392C1039.31 29.3835 1039.23 29.3707 1039.11 29.3537C1038.99 29.3338 1038.86 29.3239 1038.73 29.3239C1038.41 29.3239 1038.13 29.3906 1037.88 29.5241C1037.63 29.6548 1037.43 29.8366 1037.29 30.0696C1037.15 30.2997 1037.07 30.5625 1037.07 30.858V35H1036.07ZM1043.08 35.1364C1042.45 35.1364 1041.9 34.9972 1041.45 34.7188C1040.99 34.4375 1040.64 34.0455 1040.39 33.5426C1040.15 33.0369 1040.03 32.4489 1040.03 31.7784C1040.03 31.108 1040.15 30.517 1040.39 30.0057C1040.64 29.4915 1040.99 29.0909 1041.43 28.804C1041.87 28.5142 1042.39 28.3693 1042.98 28.3693C1043.32 28.3693 1043.65 28.4261 1043.99 28.5398C1044.32 28.6534 1044.62 28.8381 1044.89 29.0938C1045.17 29.3466 1045.38 29.6818 1045.55 30.0994C1045.71 30.517 1045.79 31.0312 1045.79 31.642V32.0682H1040.74V31.1989H1044.77C1044.77 30.8295 1044.69 30.5 1044.54 30.2102C1044.4 29.9205 1044.19 29.6918 1043.92 29.5241C1043.66 29.3565 1043.34 29.2727 1042.98 29.2727C1042.58 29.2727 1042.23 29.3722 1041.94 29.571C1041.65 29.767 1041.42 30.0227 1041.27 30.3381C1041.11 30.6534 1041.03 30.9915 1041.03 31.3523V31.9318C1041.03 32.4261 1041.12 32.8452 1041.29 33.1889C1041.46 33.5298 1041.7 33.7898 1042.01 33.9688C1042.32 34.1449 1042.67 34.233 1043.08 34.233C1043.34 34.233 1043.58 34.196 1043.79 34.1222C1044.01 34.0455 1044.2 33.9318 1044.35 33.7812C1044.51 33.6278 1044.63 33.4375 1044.72 33.2102L1045.69 33.483C1045.58 33.8125 1045.41 34.1023 1045.17 34.3523C1044.93 34.5994 1044.63 34.7926 1044.28 34.9318C1043.92 35.0682 1043.52 35.1364 1043.08 35.1364ZM1049.79 35.1364C1049.25 35.1364 1048.76 34.9986 1048.35 34.723C1047.93 34.4446 1047.6 34.0526 1047.37 33.5469C1047.13 33.0384 1047.01 32.4375 1047.01 31.7443C1047.01 31.0568 1047.13 30.4602 1047.37 29.9545C1047.6 29.4489 1047.93 29.0582 1048.35 28.7827C1048.77 28.5071 1049.26 28.3693 1049.81 28.3693C1050.23 28.3693 1050.57 28.4403 1050.82 28.5824C1051.07 28.7216 1051.26 28.8807 1051.39 29.0597C1051.52 29.2358 1051.63 29.3807 1051.7 29.4943H1051.78V26.2727H1052.79V35H1051.82V33.9943H1051.7C1051.63 34.1136 1051.52 34.2642 1051.38 34.446C1051.25 34.625 1051.05 34.7855 1050.8 34.9276C1050.55 35.0668 1050.21 35.1364 1049.79 35.1364ZM1049.93 34.233C1050.33 34.233 1050.67 34.1278 1050.95 33.9176C1051.23 33.7045 1051.44 33.4105 1051.58 33.0355C1051.73 32.6577 1051.8 32.2216 1051.8 31.7273C1051.8 31.2386 1051.73 30.8111 1051.59 30.4446C1051.45 30.0753 1051.24 29.7884 1050.96 29.5838C1050.68 29.3764 1050.34 29.2727 1049.93 29.2727C1049.5 29.2727 1049.15 29.3821 1048.86 29.6009C1048.58 29.8168 1048.37 30.1108 1048.23 30.483C1048.09 30.8523 1048.02 31.267 1048.02 31.7273C1048.02 32.1932 1048.09 32.6165 1048.23 32.9972C1048.38 33.375 1048.59 33.6761 1048.87 33.9006C1049.15 34.1222 1049.51 34.233 1049.93 34.233ZM1058.28 35V26.2727H1059.29V29.4943H1059.37C1059.45 29.3807 1059.55 29.2358 1059.68 29.0597C1059.81 28.8807 1060 28.7216 1060.25 28.5824C1060.5 28.4403 1060.84 28.3693 1061.27 28.3693C1061.82 28.3693 1062.3 28.5071 1062.72 28.7827C1063.14 29.0582 1063.47 29.4489 1063.71 29.9545C1063.94 30.4602 1064.06 31.0568 1064.06 31.7443C1064.06 32.4375 1063.94 33.0384 1063.71 33.5469C1063.47 34.0526 1063.15 34.4446 1062.73 34.723C1062.31 34.9986 1061.83 35.1364 1061.28 35.1364C1060.86 35.1364 1060.53 35.0668 1060.27 34.9276C1060.02 34.7855 1059.83 34.625 1059.69 34.446C1059.55 34.2642 1059.45 34.1136 1059.37 33.9943H1059.25V35H1058.28ZM1059.27 31.7273C1059.27 32.2216 1059.34 32.6577 1059.49 33.0355C1059.63 33.4105 1059.85 33.7045 1060.12 33.9176C1060.4 34.1278 1060.74 34.233 1061.15 34.233C1061.57 34.233 1061.92 34.1222 1062.2 33.9006C1062.48 33.6761 1062.7 33.375 1062.84 32.9972C1062.98 32.6165 1063.06 32.1932 1063.06 31.7273C1063.06 31.267 1062.99 30.8523 1062.84 30.483C1062.7 30.1108 1062.49 29.8168 1062.21 29.6009C1061.93 29.3821 1061.57 29.2727 1061.15 29.2727C1060.74 29.2727 1060.39 29.3764 1060.12 29.5838C1059.84 29.7884 1059.63 30.0753 1059.49 30.4446C1059.34 30.8111 1059.27 31.2386 1059.27 31.7273ZM1066.01 37.4545C1065.84 37.4545 1065.69 37.4403 1065.56 37.4119C1065.42 37.3864 1065.33 37.3608 1065.28 37.3352L1065.54 36.4489C1065.78 36.5114 1066 36.5341 1066.18 36.517C1066.37 36.5 1066.54 36.4162 1066.68 36.2656C1066.83 36.1179 1066.97 35.8778 1067.09 35.5455L1067.27 35.0341L1064.85 28.4545H1065.95L1067.75 33.6705H1067.82L1069.63 28.4545H1070.72L1067.94 35.9545C1067.81 36.2926 1067.66 36.5724 1067.48 36.794C1067.29 37.0185 1067.08 37.1847 1066.83 37.2926C1066.59 37.4006 1066.32 37.4545 1066.01 37.4545Z" fill="#4C4C4C"/>
<path d="M1207.13 35.8023H1206.31C1205.87 35.8023 1205.45 35.6338 1205.14 35.3338C1204.83 35.0337 1204.66 34.6267 1204.66 34.2023V30.2023C1204.66 29.9902 1204.57 29.7867 1204.42 29.6367C1204.27 29.4866 1204.06 29.4023 1203.84 29.4023H1203.02" stroke="#333333" stroke-width="2" stroke-linecap="round" stroke-linejoin="round"/>
<path d="M1204.25 26.1999C1204.02 26.1999 1203.84 26.0208 1203.84 25.7999C1203.84 25.579 1204.02 25.3999 1204.25 25.3999" stroke="#333333" stroke-width="2"/>
<path d="M1204.25 26.1999C1204.48 26.1999 1204.66 26.0208 1204.66 25.7999C1204.66 25.579 1204.48 25.3999 1204.25 25.3999" stroke="#333333" stroke-width="2"/>
<path d="M1204.66 43C1211.47 43 1217 37.6274 1217 31C1217 24.3726 1211.47 19 1204.66 19C1197.84 19 1192.32 24.3726 1192.32 31C1192.32 37.6274 1197.84 43 1204.66 43Z" stroke="#333333" stroke-width="2" stroke-linecap="round" stroke-linejoin="round"/>
<defs>
<filter id="filter0_d_1231_197" x="287" y="53" width="939" height="434" filterUnits="userSpaceOnUse" color-interpolation-filters="sRGB">
<feFlood flood-opacity="0" result="BackgroundImageFix"/>
<feColorMatrix in="SourceAlpha" type="matrix" values="0 0 0 0 0 0 0 0 0 0 0 0 0 0 0 0 0 0 127 0" result="hardAlpha"/>
<feOffset dy="4"/>
<feGaussianBlur stdDeviation="4"/>
<feComposite in2="hardAlpha" operator="out"/>
<feColorMatrix type="matrix" values="0 0 0 0 0.0980392 0 0 0 0 0.0980392 0 0 0 0 0.0980392 0 0 0 0.1 0"/>
<feBlend mode="normal" in2="BackgroundImageFix" result="effect1_dropShadow_1231_197"/>
<feBlend mode="normal" in="SourceGraphic" in2="effect1_dropShadow_1231_197" result="shape"/>
</filter>
<filter id="filter1_d_1231_197" x="8" y="53" width="286" height="867" filterUnits="userSpaceOnUse" color-interpolation-filters="sRGB">
<feFlood flood-opacity="0" result="BackgroundImageFix"/>
<feColorMatrix in="SourceAlpha" type="matrix" values="0 0 0 0 0 0 0 0 0 0 0 0 0 0 0 0 0 0 127 0" result="hardAlpha"/>
<feOffset dy="4"/>
<feGaussianBlur stdDeviation="4"/>
<feComposite in2="hardAlpha" operator="out"/>
<feColorMatrix type="matrix" values="0 0 0 0 0.0980392 0 0 0 0 0.0980392 0 0 0 0 0.0980392 0 0 0 0.1 0"/>
<feBlend mode="normal" in2="BackgroundImageFix" result="effect1_dropShadow_1231_197"/>
<feBlend mode="normal" in="SourceGraphic" in2="effect1_dropShadow_1231_197" result="shape"/>
</filter>
<filter id="filter2_d_1231_197" x="8" y="53" width="286" height="867" filterUnits="userSpaceOnUse" color-interpolation-filters="sRGB">
<feFlood flood-opacity="0" result="BackgroundImageFix"/>
<feColorMatrix in="SourceAlpha" type="matrix" values="0 0 0 0 0 0 0 0 0 0 0 0 0 0 0 0 0 0 127 0" result="hardAlpha"/>
<feOffset dy="4"/>
<feGaussianBlur stdDeviation="4"/>
<feComposite in2="hardAlpha" operator="out"/>
<feColorMatrix type="matrix" values="0 0 0 0 0.0980392 0 0 0 0 0.0980392 0 0 0 0 0.0980392 0 0 0 0.1 0"/>
<feBlend mode="normal" in2="BackgroundImageFix" result="effect1_dropShadow_1231_197"/>
<feBlend mode="normal" in="SourceGraphic" in2="effect1_dropShadow_1231_197" result="shape"/>
</filter>
<filter id="filter3_d_1231_197" x="287" y="486" width="939" height="434" filterUnits="userSpaceOnUse" color-interpolation-filters="sRGB">
<feFlood flood-opacity="0" result="BackgroundImageFix"/>
<feColorMatrix in="SourceAlpha" type="matrix" values="0 0 0 0 0 0 0 0 0 0 0 0 0 0 0 0 0 0 127 0" result="hardAlpha"/>
<feOffset dy="4"/>
<feGaussianBlur stdDeviation="4"/>
<feComposite in2="hardAlpha" operator="out"/>
<feColorMatrix type="matrix" values="0 0 0 0 0.0980392 0 0 0 0 0.0980392 0 0 0 0 0.0980392 0 0 0 0.1 0"/>
<feBlend mode="normal" in2="BackgroundImageFix" result="effect1_dropShadow_1231_197"/>
<feBlend mode="normal" in="SourceGraphic" in2="effect1_dropShadow_1231_197" result="shape"/>
</filter>
<clipPath id="clip0_1231_197">
<rect width="95.6275" height="22.3726" fill="white" transform="translate(1081.27 21)"/>
</clipPath>
</defs>
</svg>
