<svg width="1237" height="928" viewBox="0 0 1237 928" fill="none" xmlns="http://www.w3.org/2000/svg">
<rect width="1237" height="928" fill="#E7ECEF"/>
<g filter="url(#filter0_d_2466_1107)">
<rect x="301" y="57" width="917" height="851" rx="8" fill="white"/>
</g>
<g filter="url(#filter1_d_2466_1107)">
<g filter="url(#filter2_d_2466_1107)">
<path d="M16 65C16 60.5817 19.5817 57 24 57H277C281.418 57 285 60.5817 285 65V900C285 904.418 281.418 908 277 908H24C19.5817 908 16 904.418 16 900V65Z" fill="white"/>
</g>
</g>
<rect x="57.8945" y="852.327" width="185.213" height="39.7664" rx="8" stroke="#333333" stroke-width="2"/>
<path d="M114.929 870.57H112.804C112.743 870.222 112.632 869.913 112.469 869.644C112.306 869.371 112.103 869.14 111.861 868.951C111.618 868.761 111.342 868.619 111.031 868.525C110.725 868.426 110.393 868.377 110.037 868.377C109.404 868.377 108.844 868.536 108.355 868.854C107.867 869.169 107.484 869.631 107.207 870.241C106.931 870.847 106.793 871.587 106.793 872.462C106.793 873.352 106.931 874.102 107.207 874.712C107.488 875.318 107.87 875.776 108.355 876.087C108.844 876.394 109.403 876.547 110.031 876.547C110.38 876.547 110.706 876.502 111.009 876.411C111.315 876.316 111.59 876.178 111.832 875.996C112.079 875.814 112.285 875.591 112.452 875.326C112.622 875.061 112.74 874.758 112.804 874.417L114.929 874.428C114.85 874.981 114.677 875.5 114.412 875.985C114.151 876.47 113.808 876.898 113.384 877.269C112.959 877.636 112.463 877.924 111.895 878.133C111.327 878.337 110.696 878.439 110.003 878.439C108.98 878.439 108.067 878.203 107.264 877.729C106.461 877.256 105.829 876.572 105.367 875.678C104.904 874.784 104.673 873.712 104.673 872.462C104.673 871.208 104.906 870.136 105.372 869.246C105.838 868.352 106.473 867.669 107.276 867.195C108.079 866.722 108.988 866.485 110.003 866.485C110.651 866.485 111.253 866.576 111.81 866.758C112.367 866.939 112.863 867.206 113.298 867.559C113.734 867.907 114.092 868.335 114.372 868.843C114.656 869.347 114.842 869.922 114.929 870.57ZM118.825 866.644V878.28H116.769V866.644H118.825ZM124.804 878.451C123.929 878.451 123.173 878.269 122.537 877.905C121.904 877.538 121.418 877.019 121.077 876.348C120.736 875.674 120.565 874.881 120.565 873.968C120.565 873.07 120.736 872.282 121.077 871.604C121.422 870.922 121.903 870.392 122.52 870.013C123.137 869.631 123.863 869.439 124.696 869.439C125.234 869.439 125.742 869.526 126.219 869.701C126.7 869.871 127.124 870.136 127.492 870.496C127.863 870.856 128.154 871.314 128.367 871.871C128.579 872.424 128.685 873.083 128.685 873.848V874.479H121.531V873.093H126.713C126.709 872.699 126.624 872.348 126.457 872.042C126.291 871.731 126.058 871.487 125.759 871.309C125.463 871.131 125.118 871.042 124.725 871.042C124.304 871.042 123.935 871.144 123.617 871.348C123.298 871.549 123.05 871.814 122.872 872.144C122.698 872.47 122.609 872.828 122.605 873.218V874.428C122.605 874.936 122.698 875.371 122.884 875.735C123.069 876.095 123.329 876.371 123.662 876.564C123.995 876.754 124.386 876.848 124.832 876.848C125.132 876.848 125.403 876.807 125.645 876.723C125.887 876.636 126.098 876.509 126.276 876.343C126.454 876.176 126.588 875.97 126.679 875.723L128.6 875.939C128.478 876.447 128.247 876.89 127.906 877.269C127.569 877.644 127.137 877.936 126.611 878.144C126.084 878.348 125.482 878.451 124.804 878.451ZM132.936 878.456C132.383 878.456 131.885 878.358 131.442 878.161C131.002 877.96 130.654 877.665 130.396 877.275C130.143 876.884 130.016 876.403 130.016 875.831C130.016 875.339 130.107 874.932 130.288 874.61C130.47 874.288 130.718 874.03 131.033 873.837C131.347 873.644 131.701 873.498 132.095 873.4C132.493 873.297 132.904 873.223 133.328 873.178C133.84 873.125 134.254 873.078 134.573 873.036C134.891 872.991 135.122 872.922 135.266 872.831C135.413 872.737 135.487 872.591 135.487 872.394V872.36C135.487 871.932 135.36 871.6 135.107 871.366C134.853 871.131 134.487 871.013 134.01 871.013C133.506 871.013 133.107 871.123 132.811 871.343C132.52 871.562 132.323 871.822 132.22 872.121L130.3 871.848C130.451 871.318 130.701 870.875 131.05 870.519C131.398 870.159 131.824 869.89 132.328 869.712C132.832 869.53 133.389 869.439 133.999 869.439C134.419 869.439 134.838 869.489 135.254 869.587C135.671 869.686 136.052 869.848 136.396 870.076C136.741 870.299 137.018 870.604 137.226 870.991C137.438 871.377 137.544 871.86 137.544 872.439V878.28H135.567V877.081H135.499C135.374 877.324 135.198 877.551 134.97 877.763C134.747 877.972 134.465 878.14 134.124 878.269C133.787 878.394 133.391 878.456 132.936 878.456ZM133.47 876.945C133.883 876.945 134.241 876.864 134.544 876.701C134.847 876.534 135.08 876.314 135.243 876.042C135.41 875.769 135.493 875.472 135.493 875.15V874.121C135.429 874.174 135.319 874.223 135.163 874.269C135.012 874.314 134.841 874.354 134.652 874.388C134.463 874.422 134.275 874.453 134.09 874.479C133.904 874.506 133.743 874.528 133.607 874.547C133.3 874.589 133.025 874.657 132.783 874.752C132.54 874.847 132.349 874.979 132.209 875.15C132.069 875.316 131.999 875.532 131.999 875.797C131.999 876.176 132.137 876.462 132.413 876.655C132.69 876.848 133.042 876.945 133.47 876.945ZM139.612 878.28V869.553H141.607V871.008H141.698C141.857 870.504 142.129 870.116 142.516 869.843C142.906 869.566 143.351 869.428 143.851 869.428C143.965 869.428 144.091 869.434 144.232 869.445C144.376 869.453 144.495 869.466 144.59 869.485V871.377C144.502 871.347 144.364 871.32 144.175 871.297C143.989 871.271 143.809 871.258 143.635 871.258C143.26 871.258 142.923 871.339 142.624 871.502C142.328 871.661 142.095 871.883 141.925 872.167C141.754 872.451 141.669 872.778 141.669 873.15V878.28H139.612ZM150.016 878.28V866.644H157.47V868.411H152.124V871.57H156.959V873.337H152.124V878.28H150.016ZM159.3 878.28V869.553H161.357V878.28H159.3ZM160.334 868.314C160.008 868.314 159.728 868.206 159.493 867.991C159.258 867.771 159.141 867.508 159.141 867.201C159.141 866.89 159.258 866.627 159.493 866.411C159.728 866.191 160.008 866.081 160.334 866.081C160.663 866.081 160.944 866.191 161.175 866.411C161.41 866.627 161.527 866.89 161.527 867.201C161.527 867.508 161.41 867.771 161.175 867.991C160.944 868.206 160.663 868.314 160.334 868.314ZM165.529 866.644V878.28H163.472V866.644H165.529ZM172.002 869.553V871.144H166.984V869.553H172.002ZM168.223 867.462H170.28V875.655C170.28 875.932 170.322 876.144 170.405 876.292C170.492 876.436 170.606 876.534 170.746 876.587C170.886 876.64 171.041 876.667 171.212 876.667C171.341 876.667 171.458 876.657 171.564 876.638C171.674 876.619 171.757 876.602 171.814 876.587L172.161 878.195C172.051 878.233 171.894 878.275 171.689 878.32C171.488 878.366 171.242 878.392 170.95 878.4C170.435 878.415 169.971 878.337 169.558 878.167C169.145 877.992 168.818 877.723 168.575 877.36C168.337 876.996 168.219 876.542 168.223 875.996V867.462ZM177.492 878.451C176.617 878.451 175.861 878.269 175.225 877.905C174.592 877.538 174.105 877.019 173.764 876.348C173.423 875.674 173.253 874.881 173.253 873.968C173.253 873.07 173.423 872.282 173.764 871.604C174.109 870.922 174.59 870.392 175.208 870.013C175.825 869.631 176.55 869.439 177.384 869.439C177.922 869.439 178.429 869.526 178.906 869.701C179.387 869.871 179.812 870.136 180.179 870.496C180.55 870.856 180.842 871.314 181.054 871.871C181.266 872.424 181.372 873.083 181.372 873.848V874.479H174.219V873.093H179.401C179.397 872.699 179.312 872.348 179.145 872.042C178.978 871.731 178.745 871.487 178.446 871.309C178.151 871.131 177.806 871.042 177.412 871.042C176.992 871.042 176.622 871.144 176.304 871.348C175.986 871.549 175.738 871.814 175.56 872.144C175.386 872.47 175.297 872.828 175.293 873.218V874.428C175.293 874.936 175.386 875.371 175.571 875.735C175.757 876.095 176.016 876.371 176.35 876.564C176.683 876.754 177.073 876.848 177.52 876.848C177.819 876.848 178.09 876.807 178.333 876.723C178.575 876.636 178.785 876.509 178.963 876.343C179.141 876.176 179.276 875.97 179.367 875.723L181.287 875.939C181.166 876.447 180.935 876.89 180.594 877.269C180.257 877.644 179.825 877.936 179.298 878.144C178.772 878.348 178.17 878.451 177.492 878.451ZM183.112 878.28V869.553H185.107V871.008H185.198C185.357 870.504 185.629 870.116 186.016 869.843C186.406 869.566 186.851 869.428 187.351 869.428C187.465 869.428 187.591 869.434 187.732 869.445C187.876 869.453 187.995 869.466 188.09 869.485V871.377C188.002 871.347 187.864 871.32 187.675 871.297C187.489 871.271 187.309 871.258 187.135 871.258C186.76 871.258 186.423 871.339 186.124 871.502C185.828 871.661 185.595 871.883 185.425 872.167C185.254 872.451 185.169 872.778 185.169 873.15V878.28H183.112ZM196.354 871.86L194.479 872.064C194.426 871.875 194.333 871.697 194.2 871.53C194.072 871.364 193.897 871.229 193.678 871.127C193.458 871.025 193.189 870.973 192.871 870.973C192.443 870.973 192.083 871.066 191.791 871.252C191.503 871.437 191.361 871.678 191.365 871.973C191.361 872.227 191.454 872.434 191.644 872.593C191.837 872.752 192.155 872.883 192.598 872.985L194.087 873.303C194.913 873.481 195.526 873.763 195.928 874.15C196.333 874.536 196.538 875.042 196.541 875.667C196.538 876.216 196.377 876.701 196.058 877.121C195.744 877.538 195.306 877.864 194.746 878.098C194.185 878.333 193.541 878.451 192.814 878.451C191.746 878.451 190.886 878.227 190.234 877.78C189.583 877.33 189.195 876.703 189.07 875.9L191.075 875.706C191.166 876.1 191.359 876.398 191.655 876.598C191.95 876.799 192.335 876.9 192.808 876.9C193.297 876.9 193.689 876.799 193.984 876.598C194.284 876.398 194.433 876.15 194.433 875.854C194.433 875.604 194.337 875.398 194.144 875.235C193.954 875.072 193.659 874.947 193.257 874.86L191.769 874.547C190.931 874.373 190.312 874.08 189.911 873.667C189.509 873.25 189.31 872.723 189.314 872.087C189.31 871.549 189.456 871.083 189.752 870.689C190.051 870.292 190.466 869.985 190.996 869.769C191.53 869.549 192.145 869.439 192.842 869.439C193.865 869.439 194.67 869.657 195.257 870.093C195.848 870.528 196.214 871.117 196.354 871.86Z" fill="#333333"/>
<line x1="33.6001" y1="96.2661" x2="267.977" y2="96.2661" stroke="#FF7336" stroke-linecap="round"/>
<path d="M33.5774 77.5047V76.1795H40.5404V77.5047H37.843V84.9067H36.2748V77.5047H33.5774ZM41.8146 84.9067V78.3613H43.3572V84.9067H41.8146ZM42.5902 77.4323C42.3458 77.4323 42.1356 77.3513 41.9595 77.1894C41.7833 77.0246 41.6953 76.8272 41.6953 76.5971C41.6953 76.3641 41.7833 76.1667 41.9595 76.0047C42.1356 75.84 42.3458 75.7576 42.5902 75.7576C42.8373 75.7576 43.0475 75.84 43.2208 76.0047C43.397 76.1667 43.485 76.3641 43.485 76.5971C43.485 76.8272 43.397 77.0246 43.2208 77.1894C43.0475 77.3513 42.8373 77.4323 42.5902 77.4323ZM44.9435 84.9067V78.3613H46.4179V79.4735H46.4946C46.631 79.0985 46.8568 78.8059 47.1722 78.5957C47.4875 78.3826 47.8639 78.2761 48.3014 78.2761C48.7446 78.2761 49.1182 78.384 49.4222 78.5999C49.729 78.813 49.9449 79.1042 50.0699 79.4735H50.1381C50.283 79.1099 50.5273 78.8201 50.871 78.6042C51.2176 78.3854 51.6282 78.2761 52.1026 78.2761C52.7049 78.2761 53.1963 78.4664 53.577 78.8471C53.9577 79.2278 54.148 79.7832 54.148 80.5133V84.9067H52.6012V80.7519C52.6012 80.3457 52.4932 80.0488 52.2773 79.8613C52.0614 79.6709 51.7972 79.5758 51.4847 79.5758C51.1125 79.5758 50.8213 79.6922 50.6111 79.9252C50.4037 80.1553 50.3 80.455 50.3 80.8244V84.9067H48.7872V80.688C48.7872 80.3499 48.685 80.08 48.4804 79.8783C48.2787 79.6766 48.0145 79.5758 47.6878 79.5758C47.4662 79.5758 47.2645 79.6326 47.0827 79.7462C46.9009 79.857 46.756 80.0147 46.648 80.2192C46.5401 80.4209 46.4861 80.6567 46.4861 80.9266V84.9067H44.9435ZM58.6108 85.0346C57.9545 85.0346 57.3877 84.8982 56.9105 84.6255C56.436 84.3499 56.071 83.9607 55.8153 83.4579C55.5596 82.9522 55.4318 82.357 55.4318 81.6724C55.4318 80.9991 55.5596 80.4082 55.8153 79.8996C56.0738 79.3883 56.4346 78.9905 56.8977 78.7065C57.3608 78.4195 57.9048 78.2761 58.5298 78.2761C58.9332 78.2761 59.3139 78.3414 59.6718 78.4721C60.0326 78.5999 60.3508 78.7988 60.6264 79.0687C60.9048 79.3386 61.1235 79.6823 61.2826 80.0999C61.4417 80.5147 61.5213 81.009 61.5213 81.5829V82.0559H56.1562V81.0161H60.0426C60.0397 80.7207 59.9758 80.4579 59.8508 80.2278C59.7258 79.9948 59.5511 79.8116 59.3267 79.678C59.1051 79.5445 58.8465 79.4778 58.5511 79.4778C58.2358 79.4778 57.9588 79.5545 57.7201 79.7079C57.4815 79.8584 57.2954 80.0573 57.1619 80.3045C57.0312 80.5488 56.9644 80.8172 56.9616 81.1099V82.0175C56.9616 82.3982 57.0312 82.7249 57.1704 82.9976C57.3096 83.2675 57.5042 83.4749 57.7542 83.6198C58.0042 83.7619 58.2968 83.8329 58.6321 83.8329C58.8565 83.8329 59.0596 83.8016 59.2414 83.7391C59.4233 83.6738 59.5809 83.5786 59.7144 83.4536C59.848 83.3286 59.9488 83.1738 60.017 82.9891L61.4573 83.1511C61.3664 83.5317 61.1931 83.8641 60.9375 84.1482C60.6846 84.4295 60.3608 84.6482 59.9659 84.8045C59.571 84.9579 59.1193 85.0346 58.6108 85.0346ZM65.871 84.9067V76.1795H69.1438C69.8142 76.1795 70.3767 76.3045 70.8313 76.5545C71.2887 76.8045 71.6338 77.1482 71.8668 77.5857C72.1026 78.0204 72.2205 78.5147 72.2205 79.0687C72.2205 79.6283 72.1026 80.1255 71.8668 80.5601C71.631 80.9948 71.283 81.3371 70.8228 81.5871C70.3625 81.8343 69.7958 81.9579 69.1225 81.9579H66.9534V80.6582H68.9094C69.3014 80.6582 69.6225 80.59 69.8725 80.4536C70.1225 80.3172 70.3071 80.1297 70.4264 79.8911C70.5486 79.6525 70.6097 79.3783 70.6097 79.0687C70.6097 78.759 70.5486 78.4863 70.4264 78.2505C70.3071 78.0147 70.121 77.8315 69.8682 77.7008C69.6182 77.5672 69.2958 77.5005 68.9009 77.5005H67.452V84.9067H65.871ZM76.3295 85.0346C75.6733 85.0346 75.1065 84.8982 74.6292 84.6255C74.1548 84.3499 73.7897 83.9607 73.534 83.4579C73.2784 82.9522 73.1505 82.357 73.1505 81.6724C73.1505 80.9991 73.2784 80.4082 73.534 79.8996C73.7926 79.3883 74.1534 78.9905 74.6164 78.7065C75.0795 78.4195 75.6235 78.2761 76.2485 78.2761C76.6519 78.2761 77.0326 78.3414 77.3906 78.4721C77.7514 78.5999 78.0696 78.7988 78.3451 79.0687C78.6235 79.3386 78.8423 79.6823 79.0014 80.0999C79.1605 80.5147 79.24 81.009 79.24 81.5829V82.0559H73.875V81.0161H77.7613C77.7585 80.7207 77.6946 80.4579 77.5696 80.2278C77.4446 79.9948 77.2698 79.8116 77.0454 79.678C76.8238 79.5445 76.5653 79.4778 76.2698 79.4778C75.9545 79.4778 75.6775 79.5545 75.4389 79.7079C75.2002 79.8584 75.0142 80.0573 74.8806 80.3045C74.75 80.5488 74.6832 80.8172 74.6804 81.1099V82.0175C74.6804 82.3982 74.75 82.7249 74.8892 82.9976C75.0284 83.2675 75.223 83.4749 75.473 83.6198C75.723 83.7619 76.0156 83.8329 76.3508 83.8329C76.5752 83.8329 76.7784 83.8016 76.9602 83.7391C77.142 83.6738 77.2997 83.5786 77.4332 83.4536C77.5667 83.3286 77.6676 83.1738 77.7358 82.9891L79.1761 83.1511C79.0852 83.5317 78.9119 83.8641 78.6562 84.1482C78.4034 84.4295 78.0795 84.6482 77.6846 84.8045C77.2897 84.9579 76.838 85.0346 76.3295 85.0346ZM80.5451 84.9067V78.3613H82.0408V79.4522H82.109C82.2283 79.0744 82.4328 78.7832 82.7226 78.5786C83.0152 78.3712 83.349 78.2675 83.724 78.2675C83.8093 78.2675 83.9044 78.2718 84.0095 78.2803C84.1175 78.286 84.207 78.2959 84.278 78.3101V79.7292C84.2127 79.7065 84.109 79.6866 83.9669 79.6695C83.8277 79.6496 83.6928 79.6397 83.5621 79.6397C83.2809 79.6397 83.028 79.7008 82.8036 79.8229C82.582 79.9422 82.4073 80.1084 82.2794 80.3215C82.1516 80.5346 82.0877 80.7803 82.0877 81.0587V84.9067H80.5451ZM85.3029 84.9067V78.3613H86.8455V84.9067H85.3029ZM86.0784 77.4323C85.8341 77.4323 85.6239 77.3513 85.4478 77.1894C85.2716 77.0246 85.1835 76.8272 85.1835 76.5971C85.1835 76.3641 85.2716 76.1667 85.4478 76.0047C85.6239 75.84 85.8341 75.7576 86.0784 75.7576C86.3256 75.7576 86.5358 75.84 86.7091 76.0047C86.8853 76.1667 86.9733 76.3641 86.9733 76.5971C86.9733 76.8272 86.8853 77.0246 86.7091 77.1894C86.5358 77.3513 86.3256 77.4323 86.0784 77.4323ZM91.2869 85.0346C90.6477 85.0346 90.0937 84.894 89.625 84.6127C89.1562 84.3315 88.7926 83.938 88.534 83.4323C88.2784 82.9266 88.1505 82.3357 88.1505 81.6596C88.1505 80.9834 88.2784 80.3911 88.534 79.8826C88.7926 79.3741 89.1562 78.9792 89.625 78.6979C90.0937 78.4167 90.6477 78.2761 91.2869 78.2761C91.9261 78.2761 92.4801 78.4167 92.9488 78.6979C93.4176 78.9792 93.7798 79.3741 94.0355 79.8826C94.294 80.3911 94.4233 80.9834 94.4233 81.6596C94.4233 82.3357 94.294 82.9266 94.0355 83.4323C93.7798 83.938 93.4176 84.3315 92.9488 84.6127C92.4801 84.894 91.9261 85.0346 91.2869 85.0346ZM91.2954 83.7988C91.642 83.7988 91.9318 83.7036 92.1647 83.5133C92.3977 83.3201 92.571 83.0616 92.6846 82.7377C92.8011 82.4138 92.8593 82.053 92.8593 81.6553C92.8593 81.2547 92.8011 80.8925 92.6846 80.5687C92.571 80.242 92.3977 79.982 92.1647 79.7888C91.9318 79.5957 91.642 79.4991 91.2954 79.4991C90.9403 79.4991 90.6448 79.5957 90.409 79.7888C90.1761 79.982 90.0014 80.242 89.8849 80.5687C89.7713 80.8925 89.7144 81.2547 89.7144 81.6553C89.7144 82.053 89.7713 82.4138 89.8849 82.7377C90.0014 83.0616 90.1761 83.3201 90.409 83.5133C90.6448 83.7036 90.9403 83.7988 91.2954 83.7988ZM98.1615 85.0218C97.6473 85.0218 97.1871 84.8897 96.7809 84.6255C96.3746 84.3613 96.0536 83.9778 95.8178 83.4749C95.582 82.9721 95.4641 82.3613 95.4641 81.6425C95.4641 80.9153 95.5834 80.3016 95.822 79.8016C96.0635 79.2988 96.3888 78.9195 96.7979 78.6638C97.207 78.4053 97.663 78.2761 98.1658 78.2761C98.5493 78.2761 98.8647 78.3414 99.1118 78.4721C99.359 78.5999 99.555 78.7547 99.6999 78.9366C99.8448 79.1155 99.957 79.2846 100.037 79.4437H100.1V76.1795H101.647V84.9067H100.13V83.8755H100.037C99.957 84.0346 99.8419 84.2036 99.6914 84.3826C99.5408 84.5587 99.3419 84.7093 99.0948 84.8343C98.8476 84.9593 98.5365 85.0218 98.1615 85.0218ZM98.5919 83.7562C98.9186 83.7562 99.197 83.6681 99.4272 83.492C99.6573 83.313 99.832 83.0644 99.9513 82.7462C100.071 82.428 100.13 82.0573 100.13 81.634C100.13 81.2107 100.071 80.8428 99.9513 80.5303C99.8348 80.2178 99.6615 79.9749 99.4314 79.8016C99.2041 79.6283 98.9243 79.5417 98.5919 79.5417C98.2482 79.5417 97.9612 79.6312 97.7311 79.8101C97.501 79.9891 97.3277 80.2363 97.2112 80.5516C97.0948 80.867 97.0365 81.2278 97.0365 81.634C97.0365 82.0431 97.0948 82.4082 97.2112 82.7292C97.3306 83.0474 97.5053 83.2988 97.7354 83.4834C97.9684 83.6653 98.2539 83.7562 98.5919 83.7562Z" fill="#333333"/>
<line x1="32.5" y1="174.359" x2="266.876" y2="174.359" stroke="#FF7336" stroke-linecap="round"/>
<path d="M32.8608 163V154.273H38.4517V155.598H34.4418V157.967H38.0682V159.293H34.4418V163H32.8608ZM39.8239 163V156.455H41.3665V163H39.8239ZM40.5994 155.526C40.3551 155.526 40.1449 155.445 39.9688 155.283C39.7926 155.118 39.7045 154.92 39.7045 154.69C39.7045 154.457 39.7926 154.26 39.9688 154.098C40.1449 153.933 40.3551 153.851 40.5994 153.851C40.8466 153.851 41.0568 153.933 41.2301 154.098C41.4063 154.26 41.4943 154.457 41.4943 154.69C41.4943 154.92 41.4063 155.118 41.2301 155.283C41.0568 155.445 40.8466 155.526 40.5994 155.526ZM44.4954 154.273V163H42.9528V154.273H44.4954ZM49.3501 156.455V157.648H45.5874V156.455H49.3501ZM46.5163 154.886H48.0589V161.031C48.0589 161.239 48.0902 161.398 48.1527 161.509C48.218 161.616 48.3033 161.69 48.4084 161.73C48.5135 161.77 48.63 161.79 48.7578 161.79C48.8544 161.79 48.9425 161.783 49.022 161.768C49.1044 161.754 49.1669 161.741 49.2095 161.73L49.4695 162.936C49.3871 162.964 49.2692 162.996 49.1158 163.03C48.9652 163.064 48.7805 163.084 48.5618 163.089C48.1754 163.101 47.8274 163.043 47.5178 162.915C47.2081 162.784 46.9624 162.582 46.7805 162.31C46.6016 162.037 46.5135 161.696 46.5163 161.287V154.886ZM53.4677 163.128C52.8114 163.128 52.2447 162.991 51.7674 162.719C51.293 162.443 50.9279 162.054 50.6722 161.551C50.4165 161.045 50.2887 160.45 50.2887 159.766C50.2887 159.092 50.4165 158.501 50.6722 157.993C50.9308 157.482 51.2915 157.084 51.7546 156.8C52.2177 156.513 52.7617 156.369 53.3867 156.369C53.7901 156.369 54.1708 156.435 54.5288 156.565C54.8896 156.693 55.2077 156.892 55.4833 157.162C55.7617 157.432 55.9805 157.776 56.1396 158.193C56.2987 158.608 56.3782 159.102 56.3782 159.676V160.149H51.0131V159.109H54.8995C54.8967 158.814 54.8327 158.551 54.7077 158.321C54.5827 158.088 54.408 157.905 54.1836 157.771C53.962 157.638 53.7035 157.571 53.408 157.571C53.0927 157.571 52.8157 157.648 52.5771 157.801C52.3384 157.952 52.1523 158.151 52.0188 158.398C51.8881 158.642 51.8214 158.911 51.8185 159.203V160.111C51.8185 160.491 51.8881 160.818 52.0273 161.091C52.1665 161.361 52.3612 161.568 52.6112 161.713C52.8612 161.855 53.1538 161.926 53.489 161.926C53.7134 161.926 53.9165 161.895 54.0984 161.832C54.2802 161.767 54.4379 161.672 54.5714 161.547C54.7049 161.422 54.8058 161.267 54.8739 161.082L56.3143 161.244C56.2234 161.625 56.0501 161.957 55.7944 162.241C55.5415 162.523 55.2177 162.741 54.8228 162.898C54.4279 163.051 53.9762 163.128 53.4677 163.128ZM57.6832 163V156.455H59.179V157.545H59.2472C59.3665 157.168 59.571 156.876 59.8608 156.672C60.1534 156.464 60.4872 156.361 60.8622 156.361C60.9474 156.361 61.0426 156.365 61.1477 156.374C61.2557 156.379 61.3452 156.389 61.4162 156.403V157.822C61.3509 157.8 61.2472 157.78 61.1051 157.763C60.9659 157.743 60.831 157.733 60.7003 157.733C60.419 157.733 60.1662 157.794 59.9418 157.916C59.7202 158.036 59.5455 158.202 59.4176 158.415C59.2898 158.628 59.2259 158.874 59.2259 159.152V163H57.6832ZM67.6143 158.185L66.2081 158.338C66.1683 158.196 66.0987 158.062 65.9993 157.938C65.9027 157.812 65.772 157.712 65.6072 157.635C65.4425 157.558 65.2408 157.52 65.0021 157.52C64.6811 157.52 64.4112 157.589 64.1925 157.729C63.9766 157.868 63.87 158.048 63.8729 158.27C63.87 158.46 63.9396 158.615 64.0817 158.734C64.2266 158.854 64.4652 158.952 64.7976 159.028L65.9141 159.267C66.5334 159.401 66.9936 159.612 67.2947 159.902C67.5987 160.192 67.7521 160.571 67.755 161.04C67.7521 161.452 67.6314 161.815 67.3928 162.131C67.157 162.443 66.8288 162.687 66.4084 162.864C65.9879 163.04 65.505 163.128 64.9595 163.128C64.1584 163.128 63.5135 162.96 63.0249 162.625C62.5362 162.287 62.245 161.817 62.1513 161.214L63.6555 161.07C63.7237 161.365 63.8686 161.588 64.0902 161.739C64.3118 161.889 64.6001 161.964 64.9553 161.964C65.3217 161.964 65.6158 161.889 65.8374 161.739C66.0618 161.588 66.174 161.402 66.174 161.18C66.174 160.993 66.1016 160.838 65.9567 160.716C65.8146 160.594 65.593 160.5 65.2919 160.435L64.1754 160.2C63.5476 160.07 63.0831 159.849 62.782 159.54C62.4808 159.227 62.3317 158.832 62.3345 158.355C62.3317 157.952 62.4411 157.602 62.6626 157.307C62.8871 157.009 63.1982 156.778 63.5959 156.616C63.9964 156.452 64.4581 156.369 64.9808 156.369C65.7479 156.369 66.3516 156.533 66.7919 156.859C67.2351 157.186 67.5092 157.628 67.6143 158.185Z" fill="#333333"/>
<rect x="16" y="43" width="1201" height="1" rx="0.5" fill="#E5E5E5"/>
<path d="M23.2572 25.0597C23.1862 24.8295 23.0882 24.6236 22.9632 24.4418C22.841 24.2571 22.6933 24.0994 22.52 23.9688C22.3495 23.8381 22.1535 23.7401 21.9319 23.6747C21.7103 23.6065 21.4688 23.5724 21.2075 23.5724C20.7387 23.5724 20.3211 23.6903 19.9546 23.9261C19.5882 24.1619 19.2998 24.5085 19.0896 24.9659C18.8822 25.4205 18.7785 25.9744 18.7785 26.6278C18.7785 27.2869 18.8822 27.8452 19.0896 28.3026C19.297 28.7599 19.5853 29.108 19.9546 29.3466C20.324 29.5824 20.7529 29.7003 21.2416 29.7003C21.6847 29.7003 22.0683 29.6151 22.3921 29.4446C22.7188 29.2741 22.9703 29.0327 23.1464 28.7202C23.3225 28.4048 23.4106 28.0355 23.4106 27.6122L23.7686 27.6676H21.3992V26.4318H24.9404V27.4801C24.9404 28.2273 24.7813 28.8736 24.4632 29.419C24.145 29.9645 23.7075 30.3849 23.1507 30.6804C22.5938 30.973 21.9546 31.1193 21.233 31.1193C20.4291 31.1193 19.7231 30.9389 19.1151 30.5781C18.51 30.2145 18.037 29.6989 17.6961 29.0312C17.358 28.3608 17.189 27.5653 17.189 26.6449C17.189 25.9403 17.2884 25.3111 17.4873 24.7571C17.689 24.2031 17.9703 23.733 18.3311 23.3466C18.6919 22.9574 19.1151 22.6619 19.6009 22.4602C20.0867 22.2557 20.6151 22.1534 21.1862 22.1534C21.6691 22.1534 22.1194 22.2244 22.537 22.3665C22.9546 22.5057 23.3254 22.7045 23.6492 22.9631C23.9759 23.2216 24.2444 23.5284 24.4546 23.8835C24.6649 24.2386 24.8026 24.6307 24.868 25.0597H23.2572ZM28.2845 31.1321C27.8698 31.1321 27.4962 31.0582 27.1638 30.9105C26.8343 30.7599 26.5729 30.5384 26.3797 30.2457C26.1894 29.9531 26.0942 29.5923 26.0942 29.1634C26.0942 28.794 26.1624 28.4886 26.2987 28.2472C26.4351 28.0057 26.6212 27.8125 26.857 27.6676C27.0928 27.5227 27.3584 27.4134 27.6539 27.3395C27.9521 27.2628 28.2604 27.2074 28.5786 27.1733C28.9621 27.1335 29.2732 27.098 29.5118 27.0668C29.7504 27.0327 29.9237 26.9815 30.0317 26.9134C30.1425 26.8423 30.1979 26.733 30.1979 26.5852V26.5597C30.1979 26.2386 30.1027 25.9901 29.9124 25.8139C29.722 25.6378 29.4479 25.5497 29.0899 25.5497C28.7121 25.5497 28.4124 25.6321 28.1908 25.7969C27.972 25.9616 27.8243 26.1562 27.7476 26.3807L26.3073 26.1761C26.4209 25.7784 26.6084 25.446 26.8698 25.179C27.1311 24.9091 27.4507 24.7074 27.8286 24.5739C28.2064 24.4375 28.624 24.3693 29.0814 24.3693C29.3968 24.3693 29.7107 24.4062 30.0232 24.4801C30.3357 24.554 30.6212 24.6761 30.8797 24.8466C31.1382 25.0142 31.3456 25.2429 31.5019 25.5327C31.661 25.8224 31.7405 26.1847 31.7405 26.6193V31H30.2575V30.1009H30.2064C30.1127 30.2827 29.9806 30.4531 29.8101 30.6122C29.6425 30.7685 29.4308 30.8949 29.1752 30.9915C28.9223 31.0852 28.6254 31.1321 28.2845 31.1321ZM28.6851 29.9986C28.9948 29.9986 29.2632 29.9375 29.4905 29.8153C29.7178 29.6903 29.8925 29.5256 30.0146 29.321C30.1396 29.1165 30.2021 28.8935 30.2021 28.652V27.8807C30.1539 27.9205 30.0715 27.9574 29.955 27.9915C29.8414 28.0256 29.7135 28.0554 29.5715 28.081C29.4294 28.1065 29.2888 28.1293 29.1496 28.1491C29.0104 28.169 28.8896 28.1861 28.7874 28.2003C28.5573 28.2315 28.3513 28.2827 28.1695 28.3537C27.9877 28.4247 27.8442 28.5241 27.7391 28.652C27.634 28.777 27.5814 28.9389 27.5814 29.1378C27.5814 29.4219 27.6851 29.6364 27.8925 29.7812C28.0999 29.9261 28.3641 29.9986 28.6851 29.9986ZM33.2916 31V24.4545H34.7661V25.5668H34.8428C34.9791 25.1918 35.205 24.8991 35.5203 24.6889C35.8357 24.4759 36.2121 24.3693 36.6496 24.3693C37.0928 24.3693 37.4664 24.4773 37.7703 24.6932C38.0771 24.9062 38.2931 25.1974 38.4181 25.5668H38.4862C38.6311 25.2031 38.8754 24.9134 39.2192 24.6974C39.5658 24.4787 39.9763 24.3693 40.4507 24.3693C41.053 24.3693 41.5445 24.5597 41.9252 24.9403C42.3058 25.321 42.4962 25.8764 42.4962 26.6065V31H40.9493V26.8452C40.9493 26.4389 40.8414 26.142 40.6254 25.9545C40.4095 25.7642 40.1453 25.669 39.8328 25.669C39.4607 25.669 39.1695 25.7855 38.9593 26.0185C38.7519 26.2486 38.6482 26.5483 38.6482 26.9176V31H37.1354V26.7812C37.1354 26.4432 37.0331 26.1733 36.8286 25.9716C36.6269 25.7699 36.3627 25.669 36.036 25.669C35.8144 25.669 35.6127 25.7259 35.4308 25.8395C35.249 25.9503 35.1041 26.108 34.9962 26.3125C34.8882 26.5142 34.8343 26.75 34.8343 27.0199V31H33.2916ZM46.9589 31.1278C46.3026 31.1278 45.7359 30.9915 45.2586 30.7188C44.7842 30.4432 44.4191 30.054 44.1634 29.5511C43.9078 29.0455 43.7799 28.4503 43.7799 27.7656C43.7799 27.0923 43.9078 26.5014 44.1634 25.9929C44.422 25.4815 44.7828 25.0838 45.2458 24.7997C45.7089 24.5128 46.2529 24.3693 46.8779 24.3693C47.2813 24.3693 47.662 24.4347 48.02 24.5653C48.3808 24.6932 48.699 24.892 48.9745 25.1619C49.2529 25.4318 49.4717 25.7756 49.6308 26.1932C49.7899 26.608 49.8694 27.1023 49.8694 27.6761V28.1491H44.5044V27.1094H48.3907C48.3879 26.8139 48.324 26.5511 48.199 26.321C48.074 26.0881 47.8992 25.9048 47.6748 25.7713C47.4532 25.6378 47.1947 25.571 46.8992 25.571C46.5839 25.571 46.3069 25.6477 46.0683 25.8011C45.8296 25.9517 45.6436 26.1506 45.51 26.3977C45.3794 26.642 45.3126 26.9105 45.3097 27.2031V28.1108C45.3097 28.4915 45.3794 28.8182 45.5186 29.0909C45.6578 29.3608 45.8524 29.5682 46.1024 29.7131C46.3524 29.8551 46.645 29.9261 46.9802 29.9261C47.2046 29.9261 47.4078 29.8949 47.5896 29.8324C47.7714 29.767 47.9291 29.6719 48.0626 29.5469C48.1961 29.4219 48.297 29.267 48.3651 29.0824L49.8055 29.2443C49.7146 29.625 49.5413 29.9574 49.2856 30.2415C49.0328 30.5227 48.7089 30.7415 48.314 30.8977C47.9191 31.0511 47.4674 31.1278 46.9589 31.1278ZM54.2192 31V22.2727H57.4919C58.1624 22.2727 58.7249 22.3892 59.1794 22.6222C59.6368 22.8551 59.982 23.1818 60.2149 23.6023C60.4507 24.0199 60.5686 24.5071 60.5686 25.0639C60.5686 25.6236 60.4493 26.1094 60.2107 26.5213C59.9749 26.9304 59.6269 27.2472 59.1666 27.4716C58.7064 27.6932 58.1411 27.804 57.4706 27.804H55.1396V26.4915H57.2575C57.6496 26.4915 57.9706 26.4375 58.2206 26.3295C58.4706 26.2187 58.6553 26.0582 58.7746 25.848C58.8968 25.6349 58.9578 25.3736 58.9578 25.0639C58.9578 24.7543 58.8968 24.4901 58.7746 24.2713C58.6524 24.0497 58.4664 23.8821 58.2164 23.7685C57.9664 23.652 57.6439 23.5938 57.249 23.5938H55.8002V31H54.2192ZM58.7277 27.0455L60.8882 31H59.124L57.0019 27.0455H58.7277ZM64.7597 31.1278C64.1034 31.1278 63.5367 30.9915 63.0594 30.7188C62.585 30.4432 62.2199 30.054 61.9642 29.5511C61.7085 29.0455 61.5807 28.4503 61.5807 27.7656C61.5807 27.0923 61.7085 26.5014 61.9642 25.9929C62.2227 25.4815 62.5835 25.0838 63.0466 24.7997C63.5097 24.5128 64.0537 24.3693 64.6787 24.3693C65.0821 24.3693 65.4628 24.4347 65.8208 24.5653C66.1816 24.6932 66.4997 24.892 66.7753 25.1619C67.0537 25.4318 67.2725 25.7756 67.4316 26.1932C67.5906 26.608 67.6702 27.1023 67.6702 27.6761V28.1491H62.3051V27.1094H66.1915C66.1887 26.8139 66.1247 26.5511 65.9997 26.321C65.8747 26.0881 65.7 25.9048 65.4756 25.7713C65.254 25.6378 64.9955 25.571 64.7 25.571C64.3847 25.571 64.1077 25.6477 63.8691 25.8011C63.6304 25.9517 63.4443 26.1506 63.3108 26.3977C63.1801 26.642 63.1134 26.9105 63.1105 27.2031V28.1108C63.1105 28.4915 63.1801 28.8182 63.3193 29.0909C63.4585 29.3608 63.6531 29.5682 63.9031 29.7131C64.1531 29.8551 64.4458 29.9261 64.781 29.9261C65.0054 29.9261 65.2085 29.8949 65.3904 29.8324C65.5722 29.767 65.7298 29.6719 65.8634 29.5469C65.9969 29.4219 66.0977 29.267 66.1659 29.0824L67.6063 29.2443C67.5154 29.625 67.3421 29.9574 67.0864 30.2415C66.8335 30.5227 66.5097 30.7415 66.1148 30.8977C65.7199 31.0511 65.2682 31.1278 64.7597 31.1278ZM71.8303 31.1278C71.1769 31.1278 70.6159 30.9844 70.1471 30.6974C69.6812 30.4105 69.3218 30.0142 69.069 29.5085C68.819 29 68.694 28.4148 68.694 27.7528C68.694 27.0881 68.8218 26.5014 69.0775 25.9929C69.3332 25.4815 69.694 25.0838 70.1599 24.7997C70.6286 24.5128 71.1826 24.3693 71.8218 24.3693C72.3531 24.3693 72.8232 24.4673 73.2323 24.6634C73.6443 24.8565 73.9724 25.1307 74.2167 25.4858C74.461 25.8381 74.6002 26.25 74.6343 26.7216H73.1599C73.1002 26.4062 72.9582 26.1435 72.7338 25.9332C72.5122 25.7202 72.2153 25.6136 71.8431 25.6136C71.5278 25.6136 71.2508 25.6989 71.0122 25.8693C70.7735 26.0369 70.5874 26.2784 70.4539 26.5938C70.3232 26.9091 70.2579 27.2869 70.2579 27.7273C70.2579 28.1733 70.3232 28.5568 70.4539 28.8778C70.5846 29.196 70.7678 29.4418 71.0036 29.6151C71.2423 29.7855 71.5221 29.8707 71.8431 29.8707C72.0704 29.8707 72.2735 29.8281 72.4525 29.7429C72.6343 29.6548 72.7863 29.5284 72.9085 29.3636C73.0306 29.1989 73.1144 28.9986 73.1599 28.7628H74.6343C74.5974 29.2259 74.461 29.6364 74.2252 29.9943C73.9894 30.3494 73.6684 30.6278 73.2622 30.8295C72.8559 31.0284 72.3786 31.1278 71.8303 31.1278ZM78.7561 31.1278C78.1169 31.1278 77.5629 30.9872 77.0942 30.706C76.6254 30.4247 76.2618 30.0312 76.0033 29.5256C75.7476 29.0199 75.6198 28.429 75.6198 27.7528C75.6198 27.0767 75.7476 26.4844 76.0033 25.9759C76.2618 25.4673 76.6254 25.0724 77.0942 24.7912C77.5629 24.5099 78.1169 24.3693 78.7561 24.3693C79.3953 24.3693 79.9493 24.5099 80.4181 24.7912C80.8868 25.0724 81.249 25.4673 81.5047 25.9759C81.7632 26.4844 81.8925 27.0767 81.8925 27.7528C81.8925 28.429 81.7632 29.0199 81.5047 29.5256C81.249 30.0312 80.8868 30.4247 80.4181 30.706C79.9493 30.9872 79.3953 31.1278 78.7561 31.1278ZM78.7646 29.892C79.1112 29.892 79.401 29.7969 79.634 29.6065C79.8669 29.4134 80.0402 29.1548 80.1539 28.831C80.2703 28.5071 80.3286 28.1463 80.3286 27.7486C80.3286 27.348 80.2703 26.9858 80.1539 26.6619C80.0402 26.3352 79.8669 26.0753 79.634 25.8821C79.401 25.6889 79.1112 25.5923 78.7646 25.5923C78.4095 25.5923 78.1141 25.6889 77.8783 25.8821C77.6453 26.0753 77.4706 26.3352 77.3541 26.6619C77.2405 26.9858 77.1837 27.348 77.1837 27.7486C77.1837 28.1463 77.2405 28.5071 77.3541 28.831C77.4706 29.1548 77.6453 29.4134 77.8783 29.6065C78.1141 29.7969 78.4095 29.892 78.7646 29.892ZM83.2018 31V24.4545H84.6762V25.5668H84.7529C84.8893 25.1918 85.1151 24.8991 85.4305 24.6889C85.7458 24.4759 86.1222 24.3693 86.5597 24.3693C87.0029 24.3693 87.3765 24.4773 87.6805 24.6932C87.9873 24.9062 88.2032 25.1974 88.3282 25.5668H88.3964C88.5413 25.2031 88.7856 24.9134 89.1294 24.6974C89.4759 24.4787 89.8865 24.3693 90.3609 24.3693C90.9632 24.3693 91.4546 24.5597 91.8353 24.9403C92.216 25.321 92.4063 25.8764 92.4063 26.6065V31H90.8595V26.8452C90.8595 26.4389 90.7515 26.142 90.5356 25.9545C90.3197 25.7642 90.0555 25.669 89.743 25.669C89.3708 25.669 89.0796 25.7855 88.8694 26.0185C88.662 26.2486 88.5583 26.5483 88.5583 26.9176V31H87.0455V26.7812C87.0455 26.4432 86.9433 26.1733 86.7387 25.9716C86.537 25.7699 86.2728 25.669 85.9461 25.669C85.7245 25.669 85.5228 25.7259 85.341 25.8395C85.1592 25.9503 85.0143 26.108 84.9063 26.3125C84.7984 26.5142 84.7444 26.75 84.7444 27.0199V31H83.2018ZM93.9713 31V24.4545H95.4458V25.5668H95.5225C95.6588 25.1918 95.8847 24.8991 96.2 24.6889C96.5154 24.4759 96.8918 24.3693 97.3293 24.3693C97.7725 24.3693 98.146 24.4773 98.45 24.6932C98.7568 24.9062 98.9727 25.1974 99.0977 25.5668H99.1659C99.3108 25.2031 99.5551 24.9134 99.8989 24.6974C100.245 24.4787 100.656 24.3693 101.13 24.3693C101.733 24.3693 102.224 24.5597 102.605 24.9403C102.986 25.321 103.176 25.8764 103.176 26.6065V31H101.629V26.8452C101.629 26.4389 101.521 26.142 101.305 25.9545C101.089 25.7642 100.825 25.669 100.513 25.669C100.14 25.669 99.8492 25.7855 99.6389 26.0185C99.4316 26.2486 99.3279 26.5483 99.3279 26.9176V31H97.8151V26.7812C97.8151 26.4432 97.7128 26.1733 97.5083 25.9716C97.3066 25.7699 97.0423 25.669 96.7156 25.669C96.4941 25.669 96.2923 25.7259 96.1105 25.8395C95.9287 25.9503 95.7838 26.108 95.6759 26.3125C95.5679 26.5142 95.5139 26.75 95.5139 27.0199V31H93.9713ZM107.639 31.1278C106.982 31.1278 106.416 30.9915 105.938 30.7188C105.464 30.4432 105.099 30.054 104.843 29.5511C104.587 29.0455 104.46 28.4503 104.46 27.7656C104.46 27.0923 104.587 26.5014 104.843 25.9929C105.102 25.4815 105.462 25.0838 105.926 24.7997C106.389 24.5128 106.933 24.3693 107.558 24.3693C107.961 24.3693 108.342 24.4347 108.7 24.5653C109.06 24.6932 109.379 24.892 109.654 25.1619C109.933 25.4318 110.151 25.7756 110.31 26.1932C110.47 26.608 110.549 27.1023 110.549 27.6761V28.1491H105.184V27.1094H109.07C109.068 26.8139 109.004 26.5511 108.879 26.321C108.754 26.0881 108.579 25.9048 108.354 25.7713C108.133 25.6378 107.874 25.571 107.579 25.571C107.264 25.571 106.987 25.6477 106.748 25.8011C106.509 25.9517 106.323 26.1506 106.19 26.3977C106.059 26.642 105.992 26.9105 105.989 27.2031V28.1108C105.989 28.4915 106.059 28.8182 106.198 29.0909C106.337 29.3608 106.532 29.5682 106.782 29.7131C107.032 29.8551 107.325 29.9261 107.66 29.9261C107.884 29.9261 108.087 29.8949 108.269 29.8324C108.451 29.767 108.609 29.6719 108.742 29.5469C108.876 29.4219 108.977 29.267 109.045 29.0824L110.485 29.2443C110.394 29.625 110.221 29.9574 109.965 30.2415C109.712 30.5227 109.389 30.7415 108.994 30.8977C108.599 31.0511 108.147 31.1278 107.639 31.1278ZM113.397 27.1648V31H111.854V24.4545H113.329V25.5668H113.405C113.556 25.2003 113.796 24.9091 114.125 24.6932C114.458 24.4773 114.868 24.3693 115.357 24.3693C115.809 24.3693 116.202 24.4659 116.537 24.6591C116.875 24.8523 117.137 25.1321 117.321 25.4986C117.509 25.8651 117.601 26.3097 117.598 26.8324V31H116.056V27.071C116.056 26.6335 115.942 26.2912 115.715 26.044C115.491 25.7969 115.179 25.6733 114.782 25.6733C114.512 25.6733 114.272 25.733 114.062 25.8523C113.854 25.9687 113.691 26.1378 113.571 26.3594C113.455 26.581 113.397 26.8494 113.397 27.1648ZM121.596 31.1151C121.081 31.1151 120.621 30.983 120.215 30.7188C119.809 30.4545 119.488 30.071 119.252 29.5682C119.016 29.0653 118.898 28.4545 118.898 27.7358C118.898 27.0085 119.017 26.3949 119.256 25.8949C119.498 25.392 119.823 25.0128 120.232 24.7571C120.641 24.4986 121.097 24.3693 121.6 24.3693C121.983 24.3693 122.299 24.4347 122.546 24.5653C122.793 24.6932 122.989 24.848 123.134 25.0298C123.279 25.2088 123.391 25.3778 123.471 25.5369H123.535V22.2727H125.081V31H123.564V29.9688H123.471C123.391 30.1278 123.276 30.2969 123.125 30.4759C122.975 30.652 122.776 30.8026 122.529 30.9276C122.282 31.0526 121.971 31.1151 121.596 31.1151ZM122.026 29.8494C122.353 29.8494 122.631 29.7614 122.861 29.5852C123.091 29.4062 123.266 29.1577 123.385 28.8395C123.505 28.5213 123.564 28.1506 123.564 27.7273C123.564 27.304 123.505 26.9361 123.385 26.6236C123.269 26.3111 123.096 26.0682 122.866 25.8949C122.638 25.7216 122.358 25.6349 122.026 25.6349C121.682 25.6349 121.395 25.7244 121.165 25.9034C120.935 26.0824 120.762 26.3295 120.645 26.6449C120.529 26.9602 120.471 27.321 120.471 27.7273C120.471 28.1364 120.529 28.5014 120.645 28.8224C120.765 29.1406 120.939 29.392 121.169 29.5767C121.402 29.7585 121.688 29.8494 122.026 29.8494ZM128.609 31.1321C128.194 31.1321 127.82 31.0582 127.488 30.9105C127.158 30.7599 126.897 30.5384 126.704 30.2457C126.514 29.9531 126.418 29.5923 126.418 29.1634C126.418 28.794 126.487 28.4886 126.623 28.2472C126.759 28.0057 126.945 27.8125 127.181 27.6676C127.417 27.5227 127.683 27.4134 127.978 27.3395C128.276 27.2628 128.585 27.2074 128.903 27.1733C129.286 27.1335 129.597 27.098 129.836 27.0668C130.075 27.0327 130.248 26.9815 130.356 26.9134C130.467 26.8423 130.522 26.733 130.522 26.5852V26.5597C130.522 26.2386 130.427 25.9901 130.237 25.8139C130.046 25.6378 129.772 25.5497 129.414 25.5497C129.036 25.5497 128.737 25.6321 128.515 25.7969C128.296 25.9616 128.149 26.1562 128.072 26.3807L126.631 26.1761C126.745 25.7784 126.933 25.446 127.194 25.179C127.455 24.9091 127.775 24.7074 128.153 24.5739C128.531 24.4375 128.948 24.3693 129.406 24.3693C129.721 24.3693 130.035 24.4062 130.347 24.4801C130.66 24.554 130.945 24.6761 131.204 24.8466C131.462 25.0142 131.67 25.2429 131.826 25.5327C131.985 25.8224 132.065 26.1847 132.065 26.6193V31H130.582V30.1009H130.531C130.437 30.2827 130.305 30.4531 130.134 30.6122C129.967 30.7685 129.755 30.8949 129.499 30.9915C129.247 31.0852 128.95 31.1321 128.609 31.1321ZM129.009 29.9986C129.319 29.9986 129.587 29.9375 129.815 29.8153C130.042 29.6903 130.217 29.5256 130.339 29.321C130.464 29.1165 130.526 28.8935 130.526 28.652V27.8807C130.478 27.9205 130.396 27.9574 130.279 27.9915C130.166 28.0256 130.038 28.0554 129.896 28.081C129.754 28.1065 129.613 28.1293 129.474 28.1491C129.335 28.169 129.214 28.1861 129.112 28.2003C128.881 28.2315 128.676 28.2827 128.494 28.3537C128.312 28.4247 128.168 28.5241 128.063 28.652C127.958 28.777 127.906 28.9389 127.906 29.1378C127.906 29.4219 128.009 29.6364 128.217 29.7812C128.424 29.9261 128.688 29.9986 129.009 29.9986ZM136.884 24.4545V25.6477H133.122V24.4545H136.884ZM134.051 22.8864H135.593V29.0312C135.593 29.2386 135.624 29.3977 135.687 29.5085C135.752 29.6165 135.837 29.6903 135.943 29.7301C136.048 29.7699 136.164 29.7898 136.292 29.7898C136.389 29.7898 136.477 29.7827 136.556 29.7685C136.639 29.7543 136.701 29.7415 136.744 29.7301L137.004 30.9361C136.921 30.9645 136.803 30.9957 136.65 31.0298C136.499 31.0639 136.315 31.0838 136.096 31.0895C135.71 31.1009 135.362 31.0426 135.052 30.9148C134.742 30.7841 134.497 30.5824 134.315 30.3097C134.136 30.0369 134.048 29.696 134.051 29.2869V22.8864ZM138.174 31V24.4545H139.717V31H138.174ZM138.95 23.5256C138.706 23.5256 138.495 23.4446 138.319 23.2827C138.143 23.1179 138.055 22.9205 138.055 22.6903C138.055 22.4574 138.143 22.2599 138.319 22.098C138.495 21.9332 138.706 21.8509 138.95 21.8509C139.197 21.8509 139.407 21.9332 139.581 22.098C139.757 22.2599 139.845 22.4574 139.845 22.6903C139.845 22.9205 139.757 23.1179 139.581 23.2827C139.407 23.4446 139.197 23.5256 138.95 23.5256ZM144.158 31.1278C143.519 31.1278 142.965 30.9872 142.497 30.706C142.028 30.4247 141.664 30.0312 141.406 29.5256C141.15 29.0199 141.022 28.429 141.022 27.7528C141.022 27.0767 141.15 26.4844 141.406 25.9759C141.664 25.4673 142.028 25.0724 142.497 24.7912C142.965 24.5099 143.519 24.3693 144.158 24.3693C144.798 24.3693 145.352 24.5099 145.82 24.7912C146.289 25.0724 146.651 25.4673 146.907 25.9759C147.166 26.4844 147.295 27.0767 147.295 27.7528C147.295 28.429 147.166 29.0199 146.907 29.5256C146.651 30.0312 146.289 30.4247 145.82 30.706C145.352 30.9872 144.798 31.1278 144.158 31.1278ZM144.167 29.892C144.514 29.892 144.803 29.7969 145.036 29.6065C145.269 29.4134 145.443 29.1548 145.556 28.831C145.673 28.5071 145.731 28.1463 145.731 27.7486C145.731 27.348 145.673 26.9858 145.556 26.6619C145.443 26.3352 145.269 26.0753 145.036 25.8821C144.803 25.6889 144.514 25.5923 144.167 25.5923C143.812 25.5923 143.516 25.6889 143.281 25.8821C143.048 26.0753 142.873 26.3352 142.756 26.6619C142.643 26.9858 142.586 27.348 142.586 27.7486C142.586 28.1463 142.643 28.5071 142.756 28.831C142.873 29.1548 143.048 29.4134 143.281 29.6065C143.516 29.7969 143.812 29.892 144.167 29.892ZM150.147 27.1648V31H148.604V24.4545H150.079V25.5668H150.155C150.306 25.2003 150.546 24.9091 150.875 24.6932C151.208 24.4773 151.618 24.3693 152.107 24.3693C152.559 24.3693 152.952 24.4659 153.287 24.6591C153.625 24.8523 153.887 25.1321 154.071 25.4986C154.259 25.8651 154.351 26.3097 154.348 26.8324V31H152.806V27.071C152.806 26.6335 152.692 26.2912 152.465 26.044C152.241 25.7969 151.929 25.6733 151.532 25.6733C151.262 25.6733 151.022 25.733 150.812 25.8523C150.604 25.9687 150.441 26.1378 150.321 26.3594C150.205 26.581 150.147 26.8494 150.147 27.1648ZM161.09 26.1847L159.684 26.3381C159.644 26.196 159.574 26.0625 159.475 25.9375C159.378 25.8125 159.248 25.7116 159.083 25.6349C158.918 25.5582 158.716 25.5199 158.478 25.5199C158.157 25.5199 157.887 25.5895 157.668 25.7287C157.452 25.8679 157.346 26.0483 157.348 26.2699C157.346 26.4602 157.415 26.6151 157.557 26.7344C157.702 26.8537 157.941 26.9517 158.273 27.0284L159.39 27.267C160.009 27.4006 160.469 27.6122 160.77 27.902C161.074 28.1918 161.228 28.571 161.231 29.0398C161.228 29.4517 161.107 29.8153 160.868 30.1307C160.633 30.4432 160.304 30.6875 159.884 30.8636C159.464 31.0398 158.981 31.1278 158.435 31.1278C157.634 31.1278 156.989 30.9602 156.5 30.625C156.012 30.2869 155.721 29.8168 155.627 29.2145L157.131 29.0696C157.199 29.3651 157.344 29.5881 157.566 29.7386C157.787 29.8892 158.076 29.9645 158.431 29.9645C158.797 29.9645 159.091 29.8892 159.313 29.7386C159.537 29.5881 159.65 29.402 159.65 29.1804C159.65 28.9929 159.577 28.8381 159.432 28.7159C159.29 28.5937 159.069 28.5 158.767 28.4347L157.651 28.2003C157.023 28.0696 156.559 27.8494 156.258 27.5398C155.956 27.2273 155.807 26.8324 155.81 26.3551C155.807 25.9517 155.917 25.6023 156.138 25.3068C156.363 25.0085 156.674 24.7784 157.071 24.6165C157.472 24.4517 157.934 24.3693 158.456 24.3693C159.223 24.3693 159.827 24.5327 160.267 24.8594C160.711 25.1861 160.985 25.6278 161.09 26.1847Z" fill="#333333"/>
<path d="M175.929 23L179.959 26.8116C179.985 26.8363 180.006 26.8657 180.02 26.898C180.034 26.9303 180.042 26.965 180.042 27C180.042 27.035 180.034 27.0697 180.02 27.102C180.006 27.1343 179.985 27.1637 179.959 27.1884L175.929 31" stroke="#333333" stroke-linecap="round" stroke-linejoin="round"/>
<rect x="189" y="43" width="74" height="1" rx="0.5" fill="#FF7336"/>
<path d="M196.002 25.0597C195.931 24.8295 195.833 24.6236 195.708 24.4418C195.586 24.2571 195.438 24.0994 195.265 23.9688C195.094 23.8381 194.898 23.7401 194.677 23.6747C194.455 23.6065 194.213 23.5724 193.952 23.5724C193.483 23.5724 193.066 23.6903 192.699 23.9261C192.333 24.1619 192.044 24.5085 191.834 24.9659C191.627 25.4205 191.523 25.9744 191.523 26.6278C191.523 27.2869 191.627 27.8452 191.834 28.3026C192.042 28.7599 192.33 29.108 192.699 29.3466C193.069 29.5824 193.498 29.7003 193.986 29.7003C194.429 29.7003 194.813 29.6151 195.137 29.4446C195.463 29.2741 195.715 29.0327 195.891 28.7202C196.067 28.4048 196.155 28.0355 196.155 27.6122L196.513 27.6676H194.144V26.4318H197.685V27.4801C197.685 28.2273 197.526 28.8736 197.208 29.419C196.89 29.9645 196.452 30.3849 195.895 30.6804C195.338 30.973 194.699 31.1193 193.978 31.1193C193.174 31.1193 192.468 30.9389 191.86 30.5781C191.255 30.2145 190.782 29.6989 190.441 29.0312C190.103 28.3608 189.934 27.5653 189.934 26.6449C189.934 25.9403 190.033 25.3111 190.232 24.7571C190.434 24.2031 190.715 23.733 191.076 23.3466C191.436 22.9574 191.86 22.6619 192.346 22.4602C192.831 22.2557 193.36 22.1534 193.931 22.1534C194.414 22.1534 194.864 22.2244 195.282 22.3665C195.699 22.5057 196.07 22.7045 196.394 22.9631C196.721 23.2216 196.989 23.5284 197.199 23.8835C197.409 24.2386 197.547 24.6307 197.613 25.0597H196.002ZM199.146 31V24.4545H200.641V25.5455H200.71C200.829 25.1676 201.033 24.8764 201.323 24.6719C201.616 24.4645 201.95 24.3608 202.325 24.3608C202.41 24.3608 202.505 24.3651 202.61 24.3736C202.718 24.3793 202.808 24.3892 202.879 24.4034V25.8224C202.813 25.7997 202.71 25.7798 202.568 25.7628C202.428 25.7429 202.293 25.733 202.163 25.733C201.881 25.733 201.629 25.794 201.404 25.9162C201.183 26.0355 201.008 26.2017 200.88 26.4148C200.752 26.6278 200.688 26.8736 200.688 27.152V31H199.146ZM206.489 31.1278C205.85 31.1278 205.296 30.9872 204.827 30.706C204.358 30.4247 203.995 30.0312 203.736 29.5256C203.481 29.0199 203.353 28.429 203.353 27.7528C203.353 27.0767 203.481 26.4844 203.736 25.9759C203.995 25.4673 204.358 25.0724 204.827 24.7912C205.296 24.5099 205.85 24.3693 206.489 24.3693C207.128 24.3693 207.682 24.5099 208.151 24.7912C208.62 25.0724 208.982 25.4673 209.238 25.9759C209.496 26.4844 209.625 27.0767 209.625 27.7528C209.625 28.429 209.496 29.0199 209.238 29.5256C208.982 30.0312 208.62 30.4247 208.151 30.706C207.682 30.9872 207.128 31.1278 206.489 31.1278ZM206.498 29.892C206.844 29.892 207.134 29.7969 207.367 29.6065C207.6 29.4134 207.773 29.1548 207.887 28.831C208.003 28.5071 208.061 28.1463 208.061 27.7486C208.061 27.348 208.003 26.9858 207.887 26.6619C207.773 26.3352 207.6 26.0753 207.367 25.8821C207.134 25.6889 206.844 25.5923 206.498 25.5923C206.142 25.5923 205.847 25.6889 205.611 25.8821C205.378 26.0753 205.204 26.3352 205.087 26.6619C204.973 26.9858 204.917 27.348 204.917 27.7486C204.917 28.1463 204.973 28.5071 205.087 28.831C205.204 29.1548 205.378 29.4134 205.611 29.6065C205.847 29.7969 206.142 29.892 206.498 29.892ZM215.107 28.2472V24.4545H216.649V31H215.153V29.8366H215.085C214.938 30.2031 214.695 30.5028 214.357 30.7358C214.021 30.9687 213.608 31.0852 213.117 31.0852C212.688 31.0852 212.308 30.9901 211.979 30.7997C211.652 30.6065 211.396 30.3267 211.212 29.9602C211.027 29.5909 210.935 29.1449 210.935 28.6222V24.4545H212.477V28.3835C212.477 28.7983 212.591 29.1278 212.818 29.3722C213.045 29.6165 213.344 29.7386 213.713 29.7386C213.94 29.7386 214.161 29.6832 214.374 29.5724C214.587 29.4616 214.761 29.2969 214.898 29.0781C215.037 28.8565 215.107 28.5795 215.107 28.2472ZM218.235 33.4545V24.4545H219.753V25.5369H219.842C219.922 25.3778 220.034 25.2088 220.179 25.0298C220.324 24.848 220.52 24.6932 220.767 24.5653C221.014 24.4347 221.329 24.3693 221.713 24.3693C222.218 24.3693 222.674 24.4986 223.081 24.7571C223.49 25.0128 223.814 25.392 224.052 25.8949C224.294 26.3949 224.414 27.0085 224.414 27.7358C224.414 28.4545 224.297 29.0653 224.061 29.5682C223.825 30.071 223.504 30.4545 223.098 30.7188C222.691 30.983 222.231 31.1151 221.717 31.1151C221.342 31.1151 221.031 31.0526 220.784 30.9276C220.537 30.8026 220.338 30.652 220.187 30.4759C220.039 30.2969 219.924 30.1278 219.842 29.9688H219.778V33.4545H218.235ZM219.748 27.7273C219.748 28.1506 219.808 28.5213 219.927 28.8395C220.049 29.1577 220.224 29.4062 220.451 29.5852C220.682 29.7614 220.96 29.8494 221.287 29.8494C221.628 29.8494 221.913 29.7585 222.143 29.5767C222.373 29.392 222.547 29.1406 222.663 28.8224C222.782 28.5014 222.842 28.1364 222.842 27.7273C222.842 27.321 222.784 26.9602 222.667 26.6449C222.551 26.3295 222.378 26.0824 222.147 25.9034C221.917 25.7244 221.63 25.6349 221.287 25.6349C220.957 25.6349 220.677 25.7216 220.447 25.8949C220.217 26.0682 220.042 26.3111 219.923 26.6236C219.807 26.9361 219.748 27.304 219.748 27.7273ZM228.397 23.598V22.2727H235.36V23.598H232.662V31H231.094V23.598H228.397ZM237.627 31.1321C237.212 31.1321 236.838 31.0582 236.506 30.9105C236.177 30.7599 235.915 30.5384 235.722 30.2457C235.532 29.9531 235.436 29.5923 235.436 29.1634C235.436 28.794 235.505 28.4886 235.641 28.2472C235.777 28.0057 235.963 27.8125 236.199 27.6676C236.435 27.5227 236.701 27.4134 236.996 27.3395C237.294 27.2628 237.603 27.2074 237.921 27.1733C238.304 27.1335 238.615 27.098 238.854 27.0668C239.093 27.0327 239.266 26.9815 239.374 26.9134C239.485 26.8423 239.54 26.733 239.54 26.5852V26.5597C239.54 26.2386 239.445 25.9901 239.255 25.8139C239.064 25.6378 238.79 25.5497 238.432 25.5497C238.054 25.5497 237.755 25.6321 237.533 25.7969C237.314 25.9616 237.167 26.1562 237.09 26.3807L235.65 26.1761C235.763 25.7784 235.951 25.446 236.212 25.179C236.473 24.9091 236.793 24.7074 237.171 24.5739C237.549 24.4375 237.966 24.3693 238.424 24.3693C238.739 24.3693 239.053 24.4062 239.365 24.4801C239.678 24.554 239.963 24.6761 240.222 24.8466C240.481 25.0142 240.688 25.2429 240.844 25.5327C241.003 25.8224 241.083 26.1847 241.083 26.6193V31H239.6V30.1009H239.549C239.455 30.2827 239.323 30.4531 239.152 30.6122C238.985 30.7685 238.773 30.8949 238.517 30.9915C238.265 31.0852 237.968 31.1321 237.627 31.1321ZM238.027 29.9986C238.337 29.9986 238.606 29.9375 238.833 29.8153C239.06 29.6903 239.235 29.5256 239.357 29.321C239.482 29.1165 239.544 28.8935 239.544 28.652V27.8807C239.496 27.9205 239.414 27.9574 239.297 27.9915C239.184 28.0256 239.056 28.0554 238.914 28.081C238.772 28.1065 238.631 28.1293 238.492 28.1491C238.353 28.169 238.232 28.1861 238.13 28.2003C237.9 28.2315 237.694 28.2827 237.512 28.3537C237.33 28.4247 237.186 28.5241 237.081 28.652C236.976 28.777 236.924 28.9389 236.924 29.1378C236.924 29.4219 237.027 29.6364 237.235 29.7812C237.442 29.9261 237.706 29.9986 238.027 29.9986ZM242.702 31V22.2727H244.245V25.5369H244.309C244.388 25.3778 244.5 25.2088 244.645 25.0298C244.79 24.848 244.986 24.6932 245.233 24.5653C245.481 24.4347 245.796 24.3693 246.179 24.3693C246.685 24.3693 247.141 24.4986 247.547 24.7571C247.956 25.0128 248.28 25.392 248.519 25.8949C248.76 26.3949 248.881 27.0085 248.881 27.7358C248.881 28.4545 248.763 29.0653 248.527 29.5682C248.292 30.071 247.971 30.4545 247.564 30.7188C247.158 30.983 246.698 31.1151 246.184 31.1151C245.809 31.1151 245.498 31.0526 245.25 30.9276C245.003 30.8026 244.804 30.652 244.654 30.4759C244.506 30.2969 244.391 30.1278 244.309 29.9688H244.219V31H242.702ZM244.215 27.7273C244.215 28.1506 244.275 28.5213 244.394 28.8395C244.516 29.1577 244.691 29.4062 244.918 29.5852C245.148 29.7614 245.427 29.8494 245.753 29.8494C246.094 29.8494 246.38 29.7585 246.61 29.5767C246.84 29.392 247.013 29.1406 247.13 28.8224C247.249 28.5014 247.309 28.1364 247.309 27.7273C247.309 27.321 247.25 26.9602 247.134 26.6449C247.017 26.3295 246.844 26.0824 246.614 25.9034C246.384 25.7244 246.097 25.6349 245.753 25.6349C245.424 25.6349 245.144 25.7216 244.914 25.8949C244.684 26.0682 244.509 26.3111 244.39 26.6236C244.273 26.9361 244.215 27.304 244.215 27.7273ZM251.735 22.2727V31H250.193V22.2727H251.735ZM256.219 31.1278C255.563 31.1278 254.996 30.9915 254.519 30.7188C254.044 30.4432 253.679 30.054 253.424 29.5511C253.168 29.0455 253.04 28.4503 253.04 27.7656C253.04 27.0923 253.168 26.5014 253.424 25.9929C253.682 25.4815 254.043 25.0838 254.506 24.7997C254.969 24.5128 255.513 24.3693 256.138 24.3693C256.542 24.3693 256.922 24.4347 257.28 24.5653C257.641 24.6932 257.959 24.892 258.235 25.1619C258.513 25.4318 258.732 25.7756 258.891 26.1932C259.05 26.608 259.13 27.1023 259.13 27.6761V28.1491H253.765V27.1094H257.651C257.648 26.8139 257.584 26.5511 257.459 26.321C257.334 26.0881 257.159 25.9048 256.935 25.7713C256.713 25.6378 256.455 25.571 256.159 25.571C255.844 25.571 255.567 25.6477 255.329 25.8011C255.09 25.9517 254.904 26.1506 254.77 26.3977C254.64 26.642 254.573 26.9105 254.57 27.2031V28.1108C254.57 28.4915 254.64 28.8182 254.779 29.0909C254.918 29.3608 255.113 29.5682 255.363 29.7131C255.613 29.8551 255.905 29.9261 256.24 29.9261C256.465 29.9261 256.668 29.8949 256.85 29.8324C257.032 29.767 257.189 29.6719 257.323 29.5469C257.456 29.4219 257.557 29.267 257.625 29.0824L259.066 29.2443C258.975 29.625 258.802 29.9574 258.546 30.2415C258.293 30.5227 257.969 30.7415 257.574 30.8977C257.179 31.0511 256.728 31.1278 256.219 31.1278Z" fill="#FF7336"/>
<g clip-path="url(#clip0_2466_1107)">
<path d="M1109.37 37.0376H1108.21L1111.58 28.1045H1112.73L1116.1 37.0376H1114.94L1112.19 29.5178H1112.12L1109.37 37.0376ZM1109.8 33.5481H1114.5V34.5078H1109.8V33.5481ZM1117.39 37.0376V30.3378H1118.41V31.3847H1118.5C1118.64 31.027 1118.88 30.7493 1119.2 30.5516C1119.52 30.3509 1119.9 30.2506 1120.35 30.2506C1120.8 30.2506 1121.18 30.3509 1121.48 30.5516C1121.79 30.7493 1122.03 31.027 1122.2 31.3847H1122.27C1122.45 31.0386 1122.71 30.7638 1123.06 30.5603C1123.42 30.3538 1123.84 30.2506 1124.33 30.2506C1124.95 30.2506 1125.45 30.4381 1125.84 30.8133C1126.24 31.1855 1126.43 31.7656 1126.43 32.5536V37.0376H1125.37V32.5536C1125.37 32.0593 1125.23 31.706 1124.96 31.4937C1124.68 31.2814 1124.35 31.1753 1123.97 31.1753C1123.49 31.1753 1123.11 31.3178 1122.85 31.6028C1122.58 31.8848 1122.45 32.2425 1122.45 32.6758V37.0376H1121.37V32.4489C1121.37 32.068 1121.24 31.7612 1120.99 31.5286C1120.74 31.2931 1120.41 31.1753 1120.01 31.1753C1119.73 31.1753 1119.48 31.2465 1119.24 31.389C1119 31.5315 1118.81 31.7293 1118.66 31.9822C1118.52 32.2323 1118.45 32.5217 1118.45 32.8503V37.0376H1117.39ZM1128.37 39.5501V30.3378H1129.39V31.4021H1129.51C1129.59 31.2858 1129.7 31.1375 1129.84 30.9572C1129.98 30.774 1130.18 30.6112 1130.44 30.4687C1130.7 30.3233 1131.06 30.2506 1131.51 30.2506C1132.09 30.2506 1132.6 30.3916 1133.04 30.6737C1133.48 30.9558 1133.83 31.3556 1134.08 31.8732C1134.32 32.3908 1134.45 33.0015 1134.45 33.7052C1134.45 34.4147 1134.32 35.0297 1134.08 35.5503C1133.83 36.0679 1133.48 36.4691 1133.04 36.7541C1132.6 37.0362 1132.1 37.1772 1131.52 37.1772C1131.08 37.1772 1130.73 37.106 1130.46 36.9635C1130.19 36.8181 1129.99 36.6538 1129.85 36.4706C1129.7 36.2845 1129.59 36.1304 1129.51 36.0082H1129.42V39.5501H1128.37ZM1129.41 33.6877C1129.41 34.1937 1129.48 34.6401 1129.64 35.0268C1129.79 35.4107 1130.01 35.7116 1130.3 35.9297C1130.6 36.1449 1130.96 36.2525 1131.38 36.2525C1131.82 36.2525 1132.19 36.1391 1132.49 35.9123C1132.79 35.6826 1133.01 35.3743 1133.16 34.9876C1133.31 34.5979 1133.39 34.1646 1133.39 33.6877C1133.39 33.2166 1133.31 32.7921 1133.17 32.4141C1133.02 32.0331 1132.8 31.7322 1132.5 31.5112C1132.2 31.2872 1131.83 31.1753 1131.38 31.1753C1130.95 31.1753 1130.59 31.2814 1130.29 31.4937C1130 31.7031 1129.78 31.9968 1129.63 32.3748C1129.48 32.7499 1129.41 33.1876 1129.41 33.6877ZM1137.12 28.1045V37.0376H1136.06V28.1045H1137.12ZM1139.06 37.0376V30.3378H1140.12V37.0376H1139.06ZM1139.6 29.2212C1139.39 29.2212 1139.21 29.1528 1139.06 29.0162C1138.92 28.8795 1138.84 28.7152 1138.84 28.5233C1138.84 28.3314 1138.92 28.1671 1139.06 28.0304C1139.21 27.8937 1139.39 27.8254 1139.6 27.8254C1139.8 27.8254 1139.98 27.8937 1140.13 28.0304C1140.28 28.1671 1140.35 28.3314 1140.35 28.5233C1140.35 28.7152 1140.28 28.8795 1140.13 29.0162C1139.98 29.1528 1139.8 29.2212 1139.6 29.2212ZM1145.12 30.3378V31.2102H1141.41V30.3378H1145.12ZM1142.52 37.0376V29.4131C1142.52 29.0292 1142.62 28.7094 1142.8 28.4535C1142.99 28.1976 1143.23 28.0057 1143.52 27.8777C1143.82 27.7498 1144.13 27.6858 1144.46 27.6858C1144.72 27.6858 1144.93 27.7061 1145.1 27.7469C1145.26 27.7876 1145.39 27.8254 1145.47 27.8603L1145.16 28.7501C1145.11 28.7327 1145.03 28.7108 1144.94 28.6847C1144.84 28.6585 1144.72 28.6454 1144.57 28.6454C1144.22 28.6454 1143.97 28.7312 1143.81 28.9028C1143.66 29.0743 1143.58 29.3259 1143.58 29.6574V37.0376H1142.52ZM1146.61 37.0376V30.3378H1147.67V37.0376H1146.61ZM1147.15 29.2212C1146.94 29.2212 1146.76 29.1528 1146.61 29.0162C1146.47 28.8795 1146.39 28.7152 1146.39 28.5233C1146.39 28.3314 1146.47 28.1671 1146.61 28.0304C1146.76 27.8937 1146.94 27.8254 1147.15 27.8254C1147.35 27.8254 1147.53 27.8937 1147.68 28.0304C1147.83 28.1671 1147.9 28.3314 1147.9 28.5233C1147.9 28.7152 1147.83 28.8795 1147.68 29.0162C1147.53 29.1528 1147.35 29.2212 1147.15 29.2212ZM1152.49 37.1772C1151.83 37.1772 1151.26 37.0347 1150.78 36.7498C1150.3 36.4619 1149.93 36.0606 1149.67 35.5459C1149.41 35.0283 1149.28 34.4263 1149.28 33.7401C1149.28 33.0538 1149.41 32.4489 1149.67 31.9255C1149.93 31.3992 1150.29 30.9892 1150.75 30.6955C1151.22 30.3989 1151.76 30.2506 1152.39 30.2506C1152.74 30.2506 1153.1 30.3087 1153.45 30.4251C1153.8 30.5414 1154.12 30.7304 1154.4 30.9921C1154.69 31.2509 1154.92 31.594 1155.09 32.0215C1155.26 32.4489 1155.35 32.9753 1155.35 33.6005V34.0367H1150.04V33.1469H1154.27C1154.27 32.7688 1154.19 32.4315 1154.04 32.1349C1153.88 31.8383 1153.67 31.6042 1153.38 31.4326C1153.1 31.2611 1152.77 31.1753 1152.39 31.1753C1151.96 31.1753 1151.6 31.2771 1151.29 31.4806C1150.99 31.6813 1150.75 31.943 1150.59 32.2658C1150.42 32.5885 1150.34 32.9346 1150.34 33.3039V33.8971C1150.34 34.4031 1150.43 34.832 1150.61 35.1839C1150.79 35.5328 1151.05 35.7989 1151.37 35.9821C1151.69 36.1624 1152.07 36.2525 1152.49 36.2525C1152.77 36.2525 1153.02 36.2147 1153.25 36.1391C1153.47 36.0606 1153.67 35.9443 1153.83 35.7901C1154 35.6331 1154.13 35.4383 1154.22 35.2057L1155.24 35.4848C1155.13 35.8221 1154.95 36.1187 1154.7 36.3746C1154.44 36.6276 1154.13 36.8254 1153.75 36.9678C1153.38 37.1074 1152.96 37.1772 1152.49 37.1772ZM1156.96 37.0376V30.3378H1157.98V31.3498H1158.05C1158.18 31.0183 1158.4 30.7493 1158.73 30.5428C1159.06 30.3364 1159.43 30.2331 1159.85 30.2331C1159.92 30.2331 1160.02 30.2346 1160.14 30.2375C1160.25 30.2404 1160.34 30.2448 1160.4 30.2506V31.2974C1160.37 31.2887 1160.28 31.2756 1160.15 31.2582C1160.03 31.2378 1159.9 31.2276 1159.76 31.2276C1159.42 31.2276 1159.12 31.296 1158.86 31.4326C1158.6 31.5664 1158.39 31.7525 1158.24 31.991C1158.09 32.2265 1158.02 32.4955 1158.02 32.7979V37.0376H1156.96Z" fill="#191919"/>
<path d="M1166.32 37.0376H1164.55L1167.78 28.1045H1169.84L1173.08 37.0376H1171.3L1168.85 29.9365H1168.77L1166.32 37.0376ZM1166.38 33.535H1171.23V34.8349H1166.38V33.535ZM1175.95 28.1045V37.0376H1174.29V28.1045H1175.95Z" fill="#FF6643"/>
<path d="M1103.49 34.1865C1103.49 39.9405 1098.69 44.6051 1092.77 44.6051C1086.86 44.6051 1082.06 39.9405 1082.06 34.1865C1082.06 28.4324 1086.86 23.7678 1092.77 23.7678C1098.69 23.7678 1103.49 28.4324 1103.49 34.1865Z" stroke="#191919" stroke-width="1.53538"/>
<path d="M1097.28 32.728L1094.94 38.1151C1094.86 38.2907 1094.61 38.2944 1094.53 38.1211L1090.71 30.0193C1090.63 29.8481 1090.38 29.8489 1090.3 30.0207L1086.68 37.824" stroke="#191919" stroke-width="1.53538" stroke-linecap="round" stroke-linejoin="round"/>
<path d="M1097.96 31.335C1098.46 31.335 1098.86 30.9422 1098.86 30.4577C1098.86 29.9731 1098.46 29.5803 1097.96 29.5803C1097.46 29.5803 1097.06 29.9731 1097.06 30.4577C1097.06 30.9422 1097.46 31.335 1097.96 31.335Z" fill="#FF6643"/>
<path d="M1090.29 37.0374C1090.79 37.0374 1091.2 36.6446 1091.2 36.1601C1091.2 35.6755 1090.79 35.2827 1090.29 35.2827C1089.8 35.2827 1089.39 35.6755 1089.39 36.1601C1089.39 36.6446 1089.8 37.0374 1090.29 37.0374Z" fill="#191919"/>
</g>
<path d="M1005.21 37V28.2727H1008.16C1008.84 28.2727 1009.4 28.3963 1009.84 28.6435C1010.27 28.8878 1010.6 29.2188 1010.81 29.6364C1011.02 30.054 1011.12 30.5199 1011.12 31.0341C1011.12 31.5483 1011.02 32.0156 1010.81 32.4361C1010.6 32.8565 1010.28 33.1918 1009.85 33.4418C1009.41 33.6889 1008.85 33.8125 1008.18 33.8125H1006.06V32.875H1008.14C1008.61 32.875 1008.99 32.794 1009.27 32.6321C1009.55 32.4702 1009.76 32.2514 1009.89 31.9759C1010.02 31.6974 1010.08 31.3835 1010.08 31.0341C1010.08 30.6847 1010.02 30.3722 1009.89 30.0966C1009.76 29.821 1009.55 29.6051 1009.27 29.4489C1008.98 29.2898 1008.6 29.2102 1008.12 29.2102H1006.27V37H1005.21ZM1015.28 37.1364C1014.69 37.1364 1014.17 36.9957 1013.72 36.7145C1013.28 36.4332 1012.93 36.0398 1012.68 35.5341C1012.44 35.0284 1012.31 34.4375 1012.31 33.7614C1012.31 33.0795 1012.44 32.4844 1012.68 31.9759C1012.93 31.4673 1013.28 31.0724 1013.72 30.7912C1014.17 30.5099 1014.69 30.3693 1015.28 30.3693C1015.87 30.3693 1016.39 30.5099 1016.83 30.7912C1017.28 31.0724 1017.62 31.4673 1017.87 31.9759C1018.12 32.4844 1018.24 33.0795 1018.24 33.7614C1018.24 34.4375 1018.12 35.0284 1017.87 35.5341C1017.62 36.0398 1017.28 36.4332 1016.83 36.7145C1016.39 36.9957 1015.87 37.1364 1015.28 37.1364ZM1015.28 36.233C1015.73 36.233 1016.1 36.1179 1016.39 35.8878C1016.68 35.6577 1016.89 35.3551 1017.03 34.9801C1017.17 34.6051 1017.24 34.1989 1017.24 33.7614C1017.24 33.3239 1017.17 32.9162 1017.03 32.5384C1016.89 32.1605 1016.68 31.8551 1016.39 31.6222C1016.1 31.3892 1015.73 31.2727 1015.28 31.2727C1014.83 31.2727 1014.46 31.3892 1014.17 31.6222C1013.88 31.8551 1013.67 32.1605 1013.53 32.5384C1013.39 32.9162 1013.32 33.3239 1013.32 33.7614C1013.32 34.1989 1013.39 34.6051 1013.53 34.9801C1013.67 35.3551 1013.88 35.6577 1014.17 35.8878C1014.46 36.1179 1014.83 36.233 1015.28 36.233ZM1021.04 37L1019.05 30.4545H1020.1L1021.52 35.4659H1021.59L1022.98 30.4545H1024.06L1025.44 35.4489H1025.51L1026.92 30.4545H1027.98L1025.98 37H1024.99L1023.56 31.9716H1023.46L1022.03 37H1021.04ZM1031.83 37.1364C1031.2 37.1364 1030.65 36.9972 1030.2 36.7188C1029.74 36.4375 1029.39 36.0455 1029.14 35.5426C1028.9 35.0369 1028.78 34.4489 1028.78 33.7784C1028.78 33.108 1028.9 32.517 1029.14 32.0057C1029.39 31.4915 1029.74 31.0909 1030.18 30.804C1030.62 30.5142 1031.14 30.3693 1031.73 30.3693C1032.07 30.3693 1032.4 30.4261 1032.74 30.5398C1033.07 30.6534 1033.37 30.8381 1033.64 31.0938C1033.92 31.3466 1034.13 31.6818 1034.3 32.0994C1034.46 32.517 1034.54 33.0312 1034.54 33.642V34.0682H1029.49V33.1989H1033.52C1033.52 32.8295 1033.44 32.5 1033.29 32.2102C1033.15 31.9205 1032.94 31.6918 1032.67 31.5241C1032.41 31.3565 1032.09 31.2727 1031.73 31.2727C1031.33 31.2727 1030.98 31.3722 1030.69 31.571C1030.4 31.767 1030.17 32.0227 1030.02 32.3381C1029.86 32.6534 1029.78 32.9915 1029.78 33.3523V33.9318C1029.78 34.4261 1029.87 34.8452 1030.04 35.1889C1030.21 35.5298 1030.45 35.7898 1030.76 35.9688C1031.07 36.1449 1031.42 36.233 1031.83 36.233C1032.09 36.233 1032.33 36.196 1032.54 36.1222C1032.76 36.0455 1032.95 35.9318 1033.1 35.7812C1033.26 35.6278 1033.38 35.4375 1033.47 35.2102L1034.44 35.483C1034.33 35.8125 1034.16 36.1023 1033.92 36.3523C1033.68 36.5994 1033.38 36.7926 1033.03 36.9318C1032.67 37.0682 1032.27 37.1364 1031.83 37.1364ZM1036.07 37V30.4545H1037.04V31.4432H1037.11C1037.23 31.1193 1037.44 30.8565 1037.76 30.6548C1038.07 30.4531 1038.42 30.3523 1038.81 30.3523C1038.89 30.3523 1038.98 30.3537 1039.09 30.3565C1039.2 30.3594 1039.28 30.3636 1039.34 30.3693V31.392C1039.31 31.3835 1039.23 31.3707 1039.11 31.3537C1038.99 31.3338 1038.86 31.3239 1038.73 31.3239C1038.41 31.3239 1038.13 31.3906 1037.88 31.5241C1037.63 31.6548 1037.43 31.8366 1037.29 32.0696C1037.15 32.2997 1037.07 32.5625 1037.07 32.858V37H1036.07ZM1043.08 37.1364C1042.45 37.1364 1041.9 36.9972 1041.45 36.7188C1040.99 36.4375 1040.64 36.0455 1040.39 35.5426C1040.15 35.0369 1040.03 34.4489 1040.03 33.7784C1040.03 33.108 1040.15 32.517 1040.39 32.0057C1040.64 31.4915 1040.99 31.0909 1041.43 30.804C1041.87 30.5142 1042.39 30.3693 1042.98 30.3693C1043.32 30.3693 1043.65 30.4261 1043.99 30.5398C1044.32 30.6534 1044.62 30.8381 1044.89 31.0938C1045.17 31.3466 1045.38 31.6818 1045.55 32.0994C1045.71 32.517 1045.79 33.0312 1045.79 33.642V34.0682H1040.74V33.1989H1044.77C1044.77 32.8295 1044.69 32.5 1044.54 32.2102C1044.4 31.9205 1044.19 31.6918 1043.92 31.5241C1043.66 31.3565 1043.34 31.2727 1042.98 31.2727C1042.58 31.2727 1042.23 31.3722 1041.94 31.571C1041.65 31.767 1041.42 32.0227 1041.27 32.3381C1041.11 32.6534 1041.03 32.9915 1041.03 33.3523V33.9318C1041.03 34.4261 1041.12 34.8452 1041.29 35.1889C1041.46 35.5298 1041.7 35.7898 1042.01 35.9688C1042.32 36.1449 1042.67 36.233 1043.08 36.233C1043.34 36.233 1043.58 36.196 1043.79 36.1222C1044.01 36.0455 1044.2 35.9318 1044.35 35.7812C1044.51 35.6278 1044.63 35.4375 1044.72 35.2102L1045.69 35.483C1045.58 35.8125 1045.41 36.1023 1045.17 36.3523C1044.93 36.5994 1044.63 36.7926 1044.28 36.9318C1043.92 37.0682 1043.52 37.1364 1043.08 37.1364ZM1049.79 37.1364C1049.25 37.1364 1048.76 36.9986 1048.35 36.723C1047.93 36.4446 1047.6 36.0526 1047.37 35.5469C1047.13 35.0384 1047.01 34.4375 1047.01 33.7443C1047.01 33.0568 1047.13 32.4602 1047.37 31.9545C1047.6 31.4489 1047.93 31.0582 1048.35 30.7827C1048.77 30.5071 1049.26 30.3693 1049.81 30.3693C1050.23 30.3693 1050.57 30.4403 1050.82 30.5824C1051.07 30.7216 1051.26 30.8807 1051.39 31.0597C1051.52 31.2358 1051.63 31.3807 1051.7 31.4943H1051.78V28.2727H1052.79V37H1051.82V35.9943H1051.7C1051.63 36.1136 1051.52 36.2642 1051.38 36.446C1051.25 36.625 1051.05 36.7855 1050.8 36.9276C1050.55 37.0668 1050.21 37.1364 1049.79 37.1364ZM1049.93 36.233C1050.33 36.233 1050.67 36.1278 1050.95 35.9176C1051.23 35.7045 1051.44 35.4105 1051.58 35.0355C1051.73 34.6577 1051.8 34.2216 1051.8 33.7273C1051.8 33.2386 1051.73 32.8111 1051.59 32.4446C1051.45 32.0753 1051.24 31.7884 1050.96 31.5838C1050.68 31.3764 1050.34 31.2727 1049.93 31.2727C1049.5 31.2727 1049.15 31.3821 1048.86 31.6009C1048.58 31.8168 1048.37 32.1108 1048.23 32.483C1048.09 32.8523 1048.02 33.267 1048.02 33.7273C1048.02 34.1932 1048.09 34.6165 1048.23 34.9972C1048.38 35.375 1048.59 35.6761 1048.87 35.9006C1049.15 36.1222 1049.51 36.233 1049.93 36.233ZM1058.28 37V28.2727H1059.29V31.4943H1059.37C1059.45 31.3807 1059.55 31.2358 1059.68 31.0597C1059.81 30.8807 1060 30.7216 1060.25 30.5824C1060.5 30.4403 1060.84 30.3693 1061.27 30.3693C1061.82 30.3693 1062.3 30.5071 1062.72 30.7827C1063.14 31.0582 1063.47 31.4489 1063.71 31.9545C1063.94 32.4602 1064.06 33.0568 1064.06 33.7443C1064.06 34.4375 1063.94 35.0384 1063.71 35.5469C1063.47 36.0526 1063.15 36.4446 1062.73 36.723C1062.31 36.9986 1061.83 37.1364 1061.28 37.1364C1060.86 37.1364 1060.53 37.0668 1060.27 36.9276C1060.02 36.7855 1059.83 36.625 1059.69 36.446C1059.55 36.2642 1059.45 36.1136 1059.37 35.9943H1059.25V37H1058.28ZM1059.27 33.7273C1059.27 34.2216 1059.34 34.6577 1059.49 35.0355C1059.63 35.4105 1059.85 35.7045 1060.12 35.9176C1060.4 36.1278 1060.74 36.233 1061.15 36.233C1061.57 36.233 1061.92 36.1222 1062.2 35.9006C1062.48 35.6761 1062.7 35.375 1062.84 34.9972C1062.98 34.6165 1063.06 34.1932 1063.06 33.7273C1063.06 33.267 1062.99 32.8523 1062.84 32.483C1062.7 32.1108 1062.49 31.8168 1062.21 31.6009C1061.93 31.3821 1061.57 31.2727 1061.15 31.2727C1060.74 31.2727 1060.39 31.3764 1060.12 31.5838C1059.84 31.7884 1059.63 32.0753 1059.49 32.4446C1059.34 32.8111 1059.27 33.2386 1059.27 33.7273ZM1066.01 39.4545C1065.84 39.4545 1065.69 39.4403 1065.56 39.4119C1065.42 39.3864 1065.33 39.3608 1065.28 39.3352L1065.54 38.4489C1065.78 38.5114 1066 38.5341 1066.18 38.517C1066.37 38.5 1066.54 38.4162 1066.68 38.2656C1066.83 38.1179 1066.97 37.8778 1067.09 37.5455L1067.27 37.0341L1064.85 30.4545H1065.95L1067.75 35.6705H1067.82L1069.63 30.4545H1070.72L1067.94 37.9545C1067.81 38.2926 1067.66 38.5724 1067.48 38.794C1067.29 39.0185 1067.08 39.1847 1066.83 39.2926C1066.59 39.4006 1066.32 39.4545 1066.01 39.4545Z" fill="#4C4C4C"/>
<path d="M1207.13 37.8023H1206.31C1205.87 37.8023 1205.45 37.6338 1205.14 37.3338C1204.84 37.0337 1204.66 36.6267 1204.66 36.2023V32.2023C1204.66 31.9902 1204.58 31.7867 1204.42 31.6367C1204.27 31.4866 1204.06 31.4023 1203.84 31.4023H1203.02" stroke="#333333" stroke-width="2" stroke-linecap="round" stroke-linejoin="round"/>
<path d="M1204.25 28.1999C1204.02 28.1999 1203.84 28.0208 1203.84 27.7999C1203.84 27.579 1204.02 27.3999 1204.25 27.3999" stroke="#333333" stroke-width="2"/>
<path d="M1204.25 28.1999C1204.47 28.1999 1204.66 28.0208 1204.66 27.7999C1204.66 27.579 1204.47 27.3999 1204.25 27.3999" stroke="#333333" stroke-width="2"/>
<path d="M1204.66 45C1211.47 45 1217 39.6274 1217 33C1217 26.3726 1211.47 21 1204.66 21C1197.84 21 1192.32 26.3726 1192.32 33C1192.32 39.6274 1197.84 45 1204.66 45Z" stroke="#333333" stroke-width="2" stroke-linecap="round" stroke-linejoin="round"/>
<defs>
<filter id="filter0_d_2466_1107" x="293" y="53" width="933" height="867" filterUnits="userSpaceOnUse" color-interpolation-filters="sRGB">
<feFlood flood-opacity="0" result="BackgroundImageFix"/>
<feColorMatrix in="SourceAlpha" type="matrix" values="0 0 0 0 0 0 0 0 0 0 0 0 0 0 0 0 0 0 127 0" result="hardAlpha"/>
<feOffset dy="4"/>
<feGaussianBlur stdDeviation="4"/>
<feComposite in2="hardAlpha" operator="out"/>
<feColorMatrix type="matrix" values="0 0 0 0 0.0980392 0 0 0 0 0.0980392 0 0 0 0 0.0980392 0 0 0 0.1 0"/>
<feBlend mode="normal" in2="BackgroundImageFix" result="effect1_dropShadow_2466_1107"/>
<feBlend mode="normal" in="SourceGraphic" in2="effect1_dropShadow_2466_1107" result="shape"/>
</filter>
<filter id="filter1_d_2466_1107" x="8" y="53" width="285" height="867" filterUnits="userSpaceOnUse" color-interpolation-filters="sRGB">
<feFlood flood-opacity="0" result="BackgroundImageFix"/>
<feColorMatrix in="SourceAlpha" type="matrix" values="0 0 0 0 0 0 0 0 0 0 0 0 0 0 0 0 0 0 127 0" result="hardAlpha"/>
<feOffset dy="4"/>
<feGaussianBlur stdDeviation="4"/>
<feComposite in2="hardAlpha" operator="out"/>
<feColorMatrix type="matrix" values="0 0 0 0 0.0980392 0 0 0 0 0.0980392 0 0 0 0 0.0980392 0 0 0 0.1 0"/>
<feBlend mode="normal" in2="BackgroundImageFix" result="effect1_dropShadow_2466_1107"/>
<feBlend mode="normal" in="SourceGraphic" in2="effect1_dropShadow_2466_1107" result="shape"/>
</filter>
<filter id="filter2_d_2466_1107" x="8" y="53" width="285" height="867" filterUnits="userSpaceOnUse" color-interpolation-filters="sRGB">
<feFlood flood-opacity="0" result="BackgroundImageFix"/>
<feColorMatrix in="SourceAlpha" type="matrix" values="0 0 0 0 0 0 0 0 0 0 0 0 0 0 0 0 0 0 127 0" result="hardAlpha"/>
<feOffset dy="4"/>
<feGaussianBlur stdDeviation="4"/>
<feComposite in2="hardAlpha" operator="out"/>
<feColorMatrix type="matrix" values="0 0 0 0 0.0980392 0 0 0 0 0.0980392 0 0 0 0 0.0980392 0 0 0 0.1 0"/>
<feBlend mode="normal" in2="BackgroundImageFix" result="effect1_dropShadow_2466_1107"/>
<feBlend mode="normal" in="SourceGraphic" in2="effect1_dropShadow_2466_1107" result="shape"/>
</filter>
<clipPath id="clip0_2466_1107">
<rect width="95.6276" height="22.3726" fill="white" transform="translate(1081.27 23)"/>
</clipPath>
</defs>
</svg>
